<?xml version="1.0" encoding="UTF-8" standalone="no"?>
<svg
   xmlns:dc="http://purl.org/dc/elements/1.1/"
   xmlns:cc="http://creativecommons.org/ns#"
   xmlns:rdf="http://www.w3.org/1999/02/22-rdf-syntax-ns#"
   xmlns:svg="http://www.w3.org/2000/svg"
   xmlns="http://www.w3.org/2000/svg"
   xmlns:sodipodi="http://sodipodi.sourceforge.net/DTD/sodipodi-0.dtd"
   xmlns:inkscape="http://www.inkscape.org/namespaces/inkscape"
   version="1.1"
   id="Capa_1"
   x="0px"
   y="0px"
   viewBox="0 0 39.999999 39.999999"
   enable-background="new 0 0 850.4 850.4"
   xml:space="preserve"
   sodipodi:docname="ico_eguel.svg"
   width="40"
   height="40"
   inkscape:version="1.0.2 (e86c870879, 2021-01-15, custom)"><metadata
   id="metadata71"><rdf:RDF><cc:Work
       rdf:about=""><dc:format>image/svg+xml</dc:format><dc:type
         rdf:resource="http://purl.org/dc/dcmitype/StillImage" /><dc:title></dc:title></cc:Work></rdf:RDF></metadata><defs
   id="defs69" /><sodipodi:namedview
   pagecolor="#ffffff"
   bordercolor="#666666"
   borderopacity="1"
   objecttolerance="10"
   gridtolerance="10"
   guidetolerance="10"
   inkscape:pageopacity="0"
   inkscape:pageshadow="2"
   inkscape:window-width="1920"
   inkscape:window-height="1017"
   id="namedview67"
   showgrid="false"
   inkscape:zoom="7.9962368"
   inkscape:cx="61.171249"
   inkscape:cy="32.025179"
   inkscape:window-x="-8"
   inkscape:window-y="-8"
   inkscape:window-maximized="1"
   inkscape:current-layer="Capa_1" />
<g
   id="g64"
   transform="matrix(0.04955651,0,0,0.04955651,-0.70610785,-1.6374697)">
	<g
   id="g6">
		<g
   id="g4">
			<path
   fill="#ffffff"
   d="m 222.2,446 c 0,-57.6 46.1,-104.3 103.4,-105.4 V 204 L 43.3,589.4 H 325.6 V 551.5 C 268.3,550.4 222.2,503.6 222.2,446 Z"
   id="path2" />
		</g>
	</g>
	<rect
   x="210.7"
   y="430.60001"
   fill="#ffffff"
   width="45.200001"
   height="28"
   id="rect8" />
	<path
   fill="#ffffff"
   d="m 369.3,445.7 c 0,23.6 -19.1,42.7 -42.7,42.7 -23.6,0 -42.7,-19.1 -42.7,-42.7 0,-23.6 19.1,-42.7 42.7,-42.7 23.6,0 42.7,19.1 42.7,42.7 z"
   id="path10" />
	<g
   id="g16">
		<g
   id="g14">
			<path
   fill="#ffffff"
   d="m 325.9,530.7 c -45.6,-1.5 -82.2,-39 -82.2,-85 0,-46 36.5,-83.5 82.2,-85 v -10.4 c -51.4,1.5 -92.6,43.6 -92.6,95.4 0,51.7 41.2,93.9 92.6,95.4 z"
   id="path12" />
		</g>
	</g>
	<path
   fill="#ffffff"
   stroke="#ffffff"
   d="m 335.9,467 c 1.4,-4.3 4.7,-24.6 8.8,-29.1 4.1,-4.5 16.7,0.2 12.9,9.3 -3.7,9.3 -13,14.1 -21.7,19.8 z"
   id="path18" />
	<polygon
   fill="#ffffff"
   points="271.7,644.1 271.7,634.9 376.5,634.9 376.5,391.1 386.5,391.1 386.5,644.1 "
   id="polygon20" />
	<polygon
   fill="#ffffff"
   points="260,677.7 260,652.1 393.2,652.1 393.2,391.1 424.6,391.1 424.6,677.7 "
   id="polygon22" />
	<rect
   x="536.90002"
   y="391.10001"
   fill="#ffffff"
   width="38.200001"
   height="120"
   id="rect24" />
	<rect
   x="520.5"
   y="391.10001"
   fill="#ffffff"
   width="7.3000002"
   height="121"
   id="rect26" />
	<path
   fill="#ffffff"
   d="m 464.5,477.7 c 0,0 -0.2,17.7 11,23.9 10.6,5.9 43.8,4.2 46.7,3.9 2.9,-0.3 5.4,6.5 0.1,6.5 -5.9,0 -41.9,1.6 -52.4,-5.8 -10.9,-7.8 -12.7,-20.2 -12.6,-29.3 0.1,-9.2 0,-85.9 0,-85.9 h 7.3 v 86.7 z"
   id="path28" />
	<rect
   x="735.20001"
   y="361.39999"
   fill="#ffffff"
   width="9.1999998"
   height="150.39999"
   id="rect30" />
	<rect
   x="750"
   y="361.39999"
   fill="#ffffff"
   width="42"
   height="150.39999"
   id="rect32" />
	<g
   id="g36">
		<path
   fill="#ffffff"
   d="m 605.3,489 v -23 c -1,-4.2 -1.6,-8.6 -1.6,-13.1 0,-4.5 0.6,-8.9 1.6,-13.1 v -23 c -7.1,10.3 -11.3,22.7 -11.3,36.2 0,13.3 4.1,25.8 11.3,36 z m 109.6,-32.7 v 0 l 6,-0.1 c 0.1,-1.1 0.1,-2.2 0.1,-3.3 0,-35.1 -28.4,-63.5 -63.5,-63.5 -18.5,0 -35.2,7.9 -46.8,20.6 v 85.8 c 11.6,12.7 28.3,20.6 46.8,20.6 28.7,0 52.9,-19 60.8,-45.1 h -10.2 c -7.5,20.7 -27.3,35.4 -50.6,35.4 -4.1,0 -8.2,-0.5 -12,-1.4 v -49 z m -69.5,-55.9 c 3.9,-0.9 7.9,-1.4 12,-1.4 6.1,0 11.9,1 17.4,2.9 v 42.5 h -29.4 z"
   id="path34" />
	</g>
	<g
   id="g62">
		<path
   fill="#ffffff"
   d="m 345.2,312.6 h 5.6 v -80.3 h -5.6 v -6.9 h 20.5 v 6.9 h -5.6 v 80.3 h 5.6 v 6.9 h -20.5 z"
   id="path38" />
		<path
   fill="#ffffff"
   d="m 382.7,319.5 h -9.4 V 249 h 24.2 c 5,0 8.5,0.7 10.5,2.1 3.5,2.4 5.2,7.3 5.2,14.8 v 53.5 h -9.4 V 260 c 0,-2.3 -0.7,-3.7 -2.1,-4.2 -0.2,0 -1.6,0 -4.2,0 h -14.8 z"
   id="path40" />
		<path
   fill="#ffffff"
   d="m 461.5,319.5 h -9.4 V 255.8 H 431 v 63.7 h -9.4 V 249 h 54.7 c 5,0 8.5,0.7 10.5,2.1 3.5,2.4 5.2,7.3 5.2,14.8 v 53.5 h -9.4 v -59.3 c 0,-2.3 -0.7,-3.7 -2.1,-4.2 -0.2,-0.1 -1.6,-0.1 -4.2,-0.1 h -14.8 z"
   id="path42" />
		<path
   fill="#ffffff"
   d="M 500.3,304.6 V 266 c 0,-7.5 1.7,-12.4 5.2,-14.8 2,-1.4 5.5,-2.1 10.5,-2.1 h 8.5 c 5,0 8.5,0.7 10.5,2.1 3.5,2.4 5.2,7.3 5.2,14.8 v 36.6 c 0,7.5 -1.7,12.4 -5.2,14.8 -2,1.4 -5.5,2.1 -10.5,2.1 H 516 c -4.7,0 -8,-0.6 -10,-1.9 -3.9,-2.4 -5.7,-6.7 -5.7,-13 z M 530.7,260 c 0,-2.3 -0.7,-3.8 -2.1,-4.2 -0.2,0 -1.6,0 -4.2,0 h -8.5 c -2.8,0 -4.5,0.2 -5.1,0.5 -0.8,0.5 -1.2,1.8 -1.2,3.8 v 48.3 c 0,2.3 0.7,3.7 2.2,4.1 0.2,0.1 1.6,0.1 4.1,0.1 h 8.5 c 2.8,0 4.5,-0.2 5.1,-0.5 0.8,-0.5 1.2,-1.7 1.2,-3.7 z"
   id="path44" />
		<path
   fill="#ffffff"
   d="m 571.5,319.5 h -24.2 v -94.1 h 9.4 V 249 h 14.8 c 5,0 8.5,0.7 10.5,2.1 3.5,2.4 5.2,7.3 5.2,14.8 v 36.6 c 0,7.5 -1.7,12.4 -5.2,14.8 -2,1.5 -5.5,2.2 -10.5,2.2 z m -14.8,-6.8 h 14.8 c 2.8,0 4.5,-0.2 5.1,-0.5 0.8,-0.5 1.2,-1.7 1.2,-3.7 V 260 c 0,-2.3 -0.7,-3.8 -2.1,-4.2 -0.2,0 -1.6,0 -4.2,0 h -14.8 z"
   id="path46" />
		<path
   fill="#ffffff"
   d="m 603.8,237.1 h -9.4 v -11.8 h 9.4 z m -9.4,82.4 v -70.3 h 9.4 v 70.3 z"
   id="path48" />
		<path
   fill="#ffffff"
   d="m 612.5,319.5 v -94.1 h 9.4 v 94.1 z"
   id="path50" />
		<path
   fill="#ffffff"
   d="m 639.8,237.1 h -9.4 v -11.8 h 9.4 z m -9.4,82.4 v -70.3 h 9.4 v 70.3 z"
   id="path52" />
		<path
   fill="#ffffff"
   d="m 663.7,319.5 c -5,0 -8.5,-0.7 -10.5,-2.1 -3.5,-2.4 -5.2,-7.3 -5.2,-14.8 v -4 c 0,-7.5 1.7,-12.4 5.2,-14.8 2,-1.4 5.5,-2.1 10.5,-2.1 h 14.8 V 260 c 0,-2.3 -0.7,-3.8 -2.1,-4.3 -0.2,0 -1.6,0 -4.2,0 h -8.5 c -2.8,0 -4.5,0.2 -5.1,0.5 -0.8,0.5 -1.2,1.8 -1.2,3.8 v 9.9 H 648 v -4 c 0,-7.5 1.7,-12.4 5.2,-14.8 2,-1.4 5.5,-2.1 10.5,-2.1 h 8.5 c 5,0 8.5,0.7 10.5,2.1 3.5,2.4 5.2,7.3 5.2,14.8 v 53.5 h -24.2 z m 0,-31.2 c -2.8,0 -4.5,0.2 -5.1,0.5 -0.8,0.5 -1.2,1.8 -1.2,3.8 v 15.8 c 0,2.3 0.7,3.7 2.2,4.1 0.2,0.1 1.6,0.1 4.1,0.1 h 14.8 v -24.4 h -14.8 z"
   id="path54" />
		<path
   fill="#ffffff"
   d="m 705.7,319.5 h -9.4 V 249 h 16.9 c 5,0 8.5,0.7 10.5,2.1 3.5,2.4 5.2,7.3 5.2,14.8 v 4.1 h -9.4 v -10 c 0,-2.3 -0.7,-3.8 -2.1,-4.3 -0.2,0 -1.6,0 -4.2,0 h -7.5 z"
   id="path56" />
		<path
   fill="#ffffff"
   d="M 743.3,237.1 H 734 v -11.8 h 9.4 v 11.8 z m -9.3,82.4 v -70.3 h 9.4 v 70.3 z"
   id="path58" />
		<path
   fill="#ffffff"
   d="m 767.2,319.5 c -5,0 -8.5,-0.7 -10.5,-2.1 -3.5,-2.4 -5.2,-7.3 -5.2,-14.8 v -4 c 0,-7.5 1.7,-12.4 5.2,-14.8 2,-1.4 5.5,-2.1 10.5,-2.1 H 782 V 260 c 0,-2.3 -0.7,-3.8 -2.1,-4.3 -0.2,0 -1.6,0 -4.2,0 h -8.5 c -2.8,0 -4.5,0.2 -5.1,0.5 -0.8,0.5 -1.2,1.8 -1.2,3.8 v 9.9 h -9.4 v -4 c 0,-7.5 1.7,-12.4 5.2,-14.8 2,-1.4 5.5,-2.1 10.5,-2.1 h 8.5 c 5,0 8.5,0.7 10.5,2.1 3.5,2.4 5.2,7.3 5.2,14.8 v 53.5 h -24.2 z m 0,-31.2 c -2.8,0 -4.5,0.2 -5.1,0.5 -0.8,0.5 -1.2,1.8 -1.2,3.8 v 15.8 c 0,2.3 0.7,3.7 2.2,4.1 0.2,0.1 1.6,0.1 4.1,0.1 H 782 v -24.4 h -14.8 z"
   id="path60" />
	</g>
</g>
</svg>
