<?xml version="1.0" encoding="UTF-8" standalone="no"?>
<svg
   xmlns:dc="http://purl.org/dc/elements/1.1/"
   xmlns:cc="http://creativecommons.org/ns#"
   xmlns:rdf="http://www.w3.org/1999/02/22-rdf-syntax-ns#"
   xmlns:svg="http://www.w3.org/2000/svg"
   xmlns="http://www.w3.org/2000/svg"
   xmlns:sodipodi="http://sodipodi.sourceforge.net/DTD/sodipodi-0.dtd"
   xmlns:inkscape="http://www.inkscape.org/namespaces/inkscape"
   version="1.1"
   id="Capa_1"
   x="0px"
   y="0px"
   viewBox="0 0 39.999999 39.999999"
   enable-background="new 0 0 850.4 850.4"
   xml:space="preserve"
   sodipodi:docname="ITA (1).svg"
   width="40"
   height="40"
   inkscape:version="1.0.2 (e86c870879, 2021-01-15, custom)"><metadata
   id="metadata21"><rdf:RDF><cc:Work
       rdf:about=""><dc:format>image/svg+xml</dc:format><dc:type
         rdf:resource="http://purl.org/dc/dcmitype/StillImage" /><dc:title></dc:title></cc:Work></rdf:RDF></metadata><defs
   id="defs19" /><sodipodi:namedview
   pagecolor="#ffffff"
   bordercolor="#666666"
   borderopacity="1"
   objecttolerance="10"
   gridtolerance="10"
   guidetolerance="10"
   inkscape:pageopacity="0"
   inkscape:pageshadow="2"
   inkscape:window-width="1920"
   inkscape:window-height="1017"
   id="namedview17"
   showgrid="false"
   inkscape:zoom="11.308387"
   inkscape:cx="41.979082"
   inkscape:cy="26.61357"
   inkscape:window-x="-8"
   inkscape:window-y="-8"
   inkscape:window-maximized="1"
   inkscape:current-layer="layer1" />

<g
   inkscape:groupmode="layer"
   id="layer1"
   inkscape:label="Layer 1"><rect
     style="fill:#0000ff;fill-rule:evenodd"
     id="rect26"
     width="47.022118"
     height="187.08801"
     x="373.17554"
     y="240.11295" /><g
     id="g14"
     transform="matrix(0.05264599,0,0,0.05264599,-3.0914181,-0.9250544)"><path
       fill-rule="evenodd"
       clip-rule="evenodd"
       fill="#ffffff"
       d="M 438.2,173.3 C 476.8,366.5 563.8,532.6 709.3,666 619.3,614.1 529.4,562.3 439.4,510.4 347.1,561.9 254.7,613.3 162.4,664.8 277.5,572 373.3,420.2 438.2,173.3 m -58.3,283.6 c 26.4,-27.2 50.4,-60.7 56.4,-107 11.7,41 29.7,77.7 56.9,107.9 l -56.4,-34 z"
       id="path2" /><path
       fill-rule="evenodd"
       clip-rule="evenodd"
       fill="#ffffff"
       d="M 559,268.5 C 756.1,254.4 720.1,311.8 521,397.1 331.6,476.1 54.3,482.5 336.1,333.4 73.4,445.9 142.4,502.1 298.9,483.3 412.7,469.6 574.2,424.5 684.9,354 820.2,260.8 711.5,240.8 559,268.5"
       id="path4" /><path
       fill-rule="evenodd"
       clip-rule="evenodd"
       fill="#ffffff"
       d="m 438.8,56.2 c 16.5,0 29.9,13.5 29.9,30 0,16.5 -13.5,29.9 -29.9,29.9 -16.5,0 -29.9,-13.4 -29.9,-29.9 -0.1,-16.5 13.4,-30 29.9,-30"
       id="path6" /><path
       fill="#ffffff"
       d="m 300.6,646.6 c 0,8.5 -3.1,15.8 -9.1,21.7 -6.1,5.9 -13.5,8.8 -22.1,8.8 V 674 c 0,-8.4 3,-15.6 9.1,-21.5 6.1,-6 13.5,-8.9 22.1,-8.9 z m 0,81.1 c 0,8.4 -3.1,15.6 -9.2,21.5 -6.1,6 -13.5,9 -22,9 v -53.3 c 0,-8.4 3.1,-15.6 9.2,-21.5 6.1,-6 13.5,-8.9 22,-8.9 z"
       id="path8" /><path
       fill="#ffffff"
       d="m 386.3,676.6 c 0,6 -4.3,11.1 -12.8,15.3 -8.5,4.2 -18.8,6.3 -30.7,6.3 h -6.9 c 0,-6 4.3,-11.1 12.8,-15.3 8.5,-4.2 18.8,-6.3 30.7,-6.3 z m 80.4,0 c 0,5.8 -4.2,10.8 -12.6,14.8 -8.4,4.1 -18.7,6.3 -30.9,6.8 h -5.4 c -6.3,0.3 -9.5,2.5 -9.5,6.5 v 24 c 0,8.2 -3.1,15.2 -9.3,21.1 -6.2,5.8 -13.6,8.8 -22.2,8.8 v -53.8 c 0,-7.8 4,-14.4 12,-19.9 8,-5.5 17.7,-8.2 29,-8.2 h 48.9 z"
       id="path10" /><path
       fill="#ffffff"
       d="m 606.2,758.8 c -7.8,0 -14.5,-3 -19.9,-9.1 -5.5,-6.1 -8.3,-13.4 -8.5,-22 v -25 c 0,-4.5 -2.8,-6.8 -8.5,-6.8 h -44 c -5.7,0 -8.5,2.2 -8.5,6.8 v 25 c -0.2,8.6 -3,15.9 -8.5,22 -5.5,6.1 -12.1,9.1 -19.9,9.1 v -56.1 c 0,-8.1 3.6,-15 10.8,-20.7 7.2,-5.7 15.9,-8.6 26.1,-8.6 h 44 c 10.2,0 18.9,2.9 26.1,8.6 7.2,5.7 10.8,12.6 10.8,20.7 z m -0.4,-57.2 -0.2,1.7 c 0,7.9 -2.8,13.4 -10,19 -7.2,5.6 -16,8.3 -26.2,8.3 h -41.1 c 0,-6 3.9,-11.2 11.6,-15.5 7.7,-4.3 17,-6.4 27.8,-6.4 l 1.7,-0.2 c 5.7,-0.7 8.6,-2.9 8.6,-6.5 v -0.2 c -0.1,-4.3 27.8,-8.1 27.8,-0.2"
       id="path12" /></g></g></svg>
