<?xml version="1.0" encoding="UTF-8" standalone="no"?>
<svg
   xmlns:dc="http://purl.org/dc/elements/1.1/"
   xmlns:cc="http://creativecommons.org/ns#"
   xmlns:rdf="http://www.w3.org/1999/02/22-rdf-syntax-ns#"
   xmlns:svg="http://www.w3.org/2000/svg"
   xmlns="http://www.w3.org/2000/svg"
   xmlns:sodipodi="http://sodipodi.sourceforge.net/DTD/sodipodi-0.dtd"
   xmlns:inkscape="http://www.inkscape.org/namespaces/inkscape"
   version="1.1"
   id="Capa_1"
   x="0px"
   y="0px"
   viewBox="0 0 39.999999 39.999999"
   enable-background="new 0 0 850.4 850.4"
   xml:space="preserve"
   sodipodi:docname="ico_cana.svg"
   width="40"
   height="40"
   inkscape:version="1.0.2 (e86c870879, 2021-01-15, custom)"><metadata
   id="metadata317"><rdf:RDF><cc:Work
       rdf:about=""><dc:format>image/svg+xml</dc:format><dc:type
         rdf:resource="http://purl.org/dc/dcmitype/StillImage" /><dc:title></dc:title></cc:Work></rdf:RDF></metadata><defs
   id="defs315" /><sodipodi:namedview
   pagecolor="#ffffff"
   bordercolor="#666666"
   borderopacity="1"
   objecttolerance="10"
   gridtolerance="10"
   guidetolerance="10"
   inkscape:pageopacity="0"
   inkscape:pageshadow="2"
   inkscape:window-width="1920"
   inkscape:window-height="1017"
   id="namedview313"
   showgrid="false"
   inkscape:zoom="7.9962368"
   inkscape:cx="57.847029"
   inkscape:cy="25.172311"
   inkscape:window-x="-8"
   inkscape:window-y="-8"
   inkscape:window-maximized="1"
   inkscape:current-layer="Capa_1" />
<g
   id="g310"
   transform="matrix(0.06464778,0,0,0.06464778,-8.303167,-8.4129225)">
	<path
   fill="#ffffff"
   d="m 183.9,143.1 c 1,-1 3.1,0.7 2.4,2 -1.1,1 -3.2,-0.7 -2.4,-2 z"
   id="path2" />
	<g
   id="g12">
		<g
   id="g6">
			<path
   fill="#ffffff"
   d="m 501.2,296.9 c -7.5,-3.8 -14.9,-8.3 -23.1,-10.6 2.2,3.6 5.4,6.6 8.2,9.8 -4.2,-1.5 -8.6,-2.6 -12.4,-5.1 -3.1,-3.4 -2.7,-9.1 -7.1,-11.3 -0.1,2.8 -0.9,5.6 0.2,8.3 1,2.5 3.2,4.1 5.3,5.7 9.3,7 20.8,9.9 31,15.2 1.4,0.8 2.6,1.9 3.9,3.1 -10.3,-4.2 -20.5,-8.1 -30.6,-12.7 -7,-0.7 -13.8,-4.4 -17.2,-10.8 -0.2,-3.2 0.2,-6.5 -1.2,-9.6 -0.4,0.9 -1.3,2.4 -1.8,3.3 -1.3,-4.2 -2,-8.6 -3,-12.8 -0.9,-3.2 -5.3,-3.3 -5.9,-6.5 -1.1,-2.3 -1.4,-5.5 -4,-6.7 -17.5,-9.5 -33.7,-21 -50.9,-30.8 -2.2,-1.2 -4.5,-2.4 -7.1,-3 -17.5,-4.1 -34,-11.4 -49.8,-19.8 -3.1,-1.7 -6,-3.9 -9.5,-4.7 -3.4,-0.9 -5.9,-3.8 -8.8,-5.6 -2.5,-2.2 -6.2,-3.8 -7,-7.3 -11.4,-3.4 -16.8,-15.1 -26.5,-21 0.7,-0.4 2.1,-1.4 2.8,-1.9 -4.1,-2.9 -7.4,-7.2 -12.6,-8.2 -2.8,-2.1 -6.2,-4.9 -5.3,-8.7 -3,-1.7 -6.4,-2.9 -9.9,-2.9 -0.6,2 -1.1,3.9 -1.5,5.9 6.7,5.4 13.7,10.7 19.8,17 1.5,1.8 3.5,3.1 5.7,3.9 0.1,-1 0.2,-3.1 0.3,-4.1 1.3,1.4 2.7,2.8 4.1,4.2 -1.3,-0.1 -2.5,-0.2 -3.8,-0.3 1,4.1 4.8,6.3 8,8.5 0.2,-0.4 0.6,-1.5 0.7,-2 2.3,3.6 5.7,6.3 8.4,9.6 -15,-8.1 -30,-16.3 -45.1,-24.5 -5.5,-3.3 -11.9,-4.7 -17.6,-8 -3.8,-2 -9.7,-2.9 -9.9,-8.2 -2.7,0.7 -5.5,1.2 -7.6,-0.8 -5.5,-4.1 -11.9,-7.1 -18.8,-8.1 -0.2,0.4 -0.7,1.2 -0.9,1.5 0.8,0.1 1.7,0.2 2.5,0.2 0.3,1.8 1,3.4 1.8,5 -6.7,-2 -12.2,-6.5 -18.3,-9.7 -1.8,0.7 -3.6,1.4 -5.4,2.1 0.1,1 0.2,2.1 0.3,3.1 4.4,1.1 8.7,3.1 12.4,5.9 8.6,6.2 17.3,12.4 27.1,16.7 5,-2 10.1,1.2 13.1,5 2.6,3.3 8.2,3.8 11.6,1.3 2.8,-1.7 6.3,-0.8 9.3,-0.8 1,1.2 1.4,2.7 2.2,4.1 1.1,0.3 2.3,0.7 3.5,0.9 -1.2,-1.9 -2.5,-3.6 -3.6,-5.6 4.6,2.5 9.3,5.2 14.2,7 0.4,1.7 0,4 1.8,4.9 3.1,1.8 6.1,3.6 9.1,5.5 2.6,2 6.2,0.8 9.3,1.2 4.4,1.7 8.7,3.8 12.4,6.7 -2.4,-0.9 -4.7,-2.1 -7.4,-2.8 4.2,4.3 9.3,8.1 15.2,9.4 0.9,-0.7 1.8,-1.2 2.8,-1.9 2.9,2.5 5.9,5.1 9.2,7.1 3.3,1.5 6.6,3.1 9.9,4.9 4.1,2.1 8.7,3 12.9,5 0.8,1.7 0.6,3.6 1.1,5.5 1,1.5 2.6,2.5 4.1,3.6 -0.4,2.3 -1.5,4.9 -0.8,7.3 1.8,3.9 5.3,6.4 8.1,9.5 2.1,2.3 3.6,5.1 5.7,7.4 2.4,2.7 6.2,3.4 8.2,6.3 3,4.2 7.8,6.4 12.3,8.5 -1.2,6.2 2.3,11.5 2.9,17.5 0.2,1.7 1,3.3 1.1,5 0,5.5 -5.7,8.7 -6.5,14.1 -0.6,-1.2 -1,-2.5 -1.5,-3.8 0.3,2.7 0.6,5.6 2.5,7.6 3,2 6.3,3.5 9.8,4.6 -2.8,-1.9 -6.1,-2.9 -8.5,-5.1 -0.9,-6.1 5,-9.6 7.8,-14 0.7,-6.8 0.1,-13.7 -0.8,-20.5 0.2,-3.3 2,-6.3 2.1,-9.6 -3.5,-2.3 -7.8,-2.9 -11,-5.6 -2.3,-1.8 -3.6,-4.5 -5.4,-6.7 -2.2,-2 -5.3,-2.7 -7.1,-5.1 -2.4,-3.1 -4.6,-6.3 -7.2,-9.4 2.4,-2.7 5.1,-6.6 2.9,-10.3 5.6,3.5 10.8,8.1 17,10.7 -1,-2 -2.2,-3.8 -3.4,-5.5 2.5,1.1 5.2,1.7 7.8,1 3.1,-1 5.1,1.9 7.3,3.3 4.6,4 10,7 14.8,10.7 -3.5,-1.4 -6.3,-4.2 -9.8,-5.5 -3.6,0.8 -2.9,4.6 -2.5,7.4 -1.9,0.7 -4.3,1.3 -4.1,3.8 0,5.4 5.1,8.7 8.2,12.5 3.4,5.4 2.7,12.5 6.8,17.6 1.4,6 -1.5,13.3 2.4,18.7 1.2,2.3 4.5,3 5.4,5.5 -0.4,6.6 -1.9,14.7 3,20.1 -0.4,1.5 -1,3.2 -1.1,5 -1.2,5 3.8,9.1 2.4,14.1 2.4,2 5.1,3.8 8.1,5 -4.9,-3.4 -5,-9.8 -7.1,-14.8 -0.6,-5 3.9,-9.7 1.1,-14.6 -0.2,-4.3 -0.4,-8.9 1.1,-13.1 1.4,-5.1 -3.2,-8.8 -6.5,-11.9 0.3,-3.6 -1.3,-8 1.3,-10.9 1.5,-1.8 1,-4.2 1,-6.3 -1.5,-1.5 -3.4,-2.5 -5.1,-3.8 -0.1,-2 0.6,-4.2 -0.7,-6 -3,-5.1 -6.4,-9.9 -9.6,-14.9 4.9,4.2 7.6,10.3 11,15.6 4.2,2.1 8.8,3.2 13.3,5.1 -1.2,4.5 -3.3,9.3 -1.3,13.9 0.4,4.5 5.4,6.4 6.1,10.6 0.8,2.9 2.4,5.3 4.1,7.7 -0.8,2.5 -1.8,5.1 -1.1,7.7 2.3,2.5 4,5.6 6.6,8 3.8,3.2 7.3,6.8 9.9,11 2.2,2.9 3.8,6.7 7.6,7.7 -2,-1.8 -4.8,-3.1 -5.4,-6 -1,-2 0.1,-4.9 -2,-6.4 -4.6,-5 -9.1,-10.3 -11.9,-16.5 1.7,-3.8 2.1,-8.1 0.7,-12 -1.9,-5.5 -6.5,-9.8 -7.5,-15.7 0.2,-4.3 3.3,-7.8 4.4,-12 -0.3,-1.5 -0.7,-3.5 -2.3,-4.3 -4.5,-2.3 -9.6,-3.4 -14.1,-5.9 -2.1,-5.4 -7.6,-8.2 -10.4,-13.3 3.3,1.3 6.4,3.2 9.3,5.3 0.3,1.4 0,3.3 1.7,4.1 5.9,3.6 12.9,5 18.1,9.5 2.5,2.2 2.9,5.9 5.1,8.3 5.1,7 7.8,15.1 11.4,22.8 2.8,5.7 8.4,9.4 14.4,11 2.2,0.3 1.4,2.9 1.7,4.4 0.2,-1.2 0.6,-2.3 0.8,-3.4 8.2,1 13.8,8.5 22.1,9.1 -2.3,-1.7 -5,-2.8 -7.4,-4.4 7.3,1.7 14.6,3.3 21.7,5.9 2.4,-5.3 -4,-8 -6.6,-11.4 4.9,2.4 10.8,3.1 14.5,7.6 3,1 6.6,3.5 9.6,2.2 l 0.6,-0.6 C 519.7,306.9 510.4,302 501.2,296.9 Z M 258.7,146 c 1.9,-1.3 4.1,-1 6.3,-0.9 -0.7,0.7 -1.2,1.3 -1.9,2.1 3.9,3.5 8.4,6.6 11,11.3 -6.2,-2.8 -10,-8.6 -15.4,-12.5 z m -51.1,-1.9 c 2.4,0.6 4.6,1.9 6.7,3.3 -2.5,-0.5 -4.8,-1.6 -6.7,-3.3 z m 8.9,4.4 c 4,1.7 7.7,3.9 11.4,6.1 -3.8,-2 -8,-3.3 -11.4,-6.1 z m 27.3,16.3 c -1.7,1.7 -4.2,0.3 -6.3,0.2 1.5,-1.1 3.1,-2.2 4.5,-3.3 0.9,0.9 2.1,1.6 1.8,3.1 z"
   id="path4" />
		</g>
		<g
   id="g10">
			<path
   fill="#ffffff"
   d="m 501.2,296.9 c -7.5,-3.8 -14.9,-8.3 -23.1,-10.6 2.2,3.6 5.4,6.6 8.2,9.8 -4.2,-1.5 -8.6,-2.6 -12.4,-5.1 -3.1,-3.4 -2.7,-9.1 -7.1,-11.3 -0.1,2.8 -0.9,5.6 0.2,8.3 1,2.5 3.2,4.1 5.3,5.7 9.3,7 20.8,9.9 31,15.2 1.4,0.8 2.6,1.9 3.9,3.1 -10.3,-4.2 -20.5,-8.1 -30.6,-12.7 -7,-0.7 -13.8,-4.4 -17.2,-10.8 -0.2,-3.2 0.2,-6.5 -1.2,-9.6 -0.4,0.9 -1.3,2.4 -1.8,3.3 -1.3,-4.2 -2,-8.6 -3,-12.8 -0.9,-3.2 -5.3,-3.3 -5.9,-6.5 -1.1,-2.3 -1.4,-5.5 -4,-6.7 -17.5,-9.5 -33.7,-21 -50.9,-30.8 -2.2,-1.2 -4.5,-2.4 -7.1,-3 -17.5,-4.1 -34,-11.4 -49.8,-19.8 -3.1,-1.7 -6,-3.9 -9.5,-4.7 -3.4,-0.9 -5.9,-3.8 -8.8,-5.6 -2.5,-2.2 -6.2,-3.8 -7,-7.3 -11.4,-3.4 -16.8,-15.1 -26.5,-21 0.7,-0.4 2.1,-1.4 2.8,-1.9 -4.1,-2.9 -7.4,-7.2 -12.6,-8.2 -2.8,-2.1 -6.2,-4.9 -5.3,-8.7 -3,-1.7 -6.4,-2.9 -9.9,-2.9 -0.6,2 -1.1,3.9 -1.5,5.9 6.7,5.4 13.7,10.7 19.8,17 1.5,1.8 3.5,3.1 5.7,3.9 0.1,-1 0.2,-3.1 0.3,-4.1 1.3,1.4 2.7,2.8 4.1,4.2 -1.3,-0.1 -2.5,-0.2 -3.8,-0.3 1,4.1 4.8,6.3 8,8.5 0.2,-0.4 0.6,-1.5 0.7,-2 2.3,3.6 5.7,6.3 8.4,9.6 -15,-8.1 -30,-16.3 -45.1,-24.5 -5.5,-3.3 -11.9,-4.7 -17.6,-8 -3.8,-2 -9.7,-2.9 -9.9,-8.2 -2.7,0.7 -5.5,1.2 -7.6,-0.8 -5.5,-4.1 -11.9,-7.1 -18.8,-8.1 -0.2,0.4 -0.7,1.2 -0.9,1.5 0.8,0.1 1.7,0.2 2.5,0.2 0.3,1.8 1,3.4 1.8,5 -6.7,-2 -12.2,-6.5 -18.3,-9.7 -1.8,0.7 -3.6,1.4 -5.4,2.1 0.1,1 0.2,2.1 0.3,3.1 4.4,1.1 8.7,3.1 12.4,5.9 8.6,6.2 17.3,12.4 27.1,16.7 5,-2 10.1,1.2 13.1,5 2.6,3.3 8.2,3.8 11.6,1.3 2.8,-1.7 6.3,-0.8 9.3,-0.8 1,1.2 1.4,2.7 2.2,4.1 1.1,0.3 2.3,0.7 3.5,0.9 -1.2,-1.9 -2.5,-3.6 -3.6,-5.6 4.6,2.5 9.3,5.2 14.2,7 0.4,1.7 0,4 1.8,4.9 3.1,1.8 6.1,3.6 9.1,5.5 2.6,2 6.2,0.8 9.3,1.2 4.4,1.7 8.7,3.8 12.4,6.7 -2.4,-0.9 -4.7,-2.1 -7.4,-2.8 4.2,4.3 9.3,8.1 15.2,9.4 0.9,-0.7 1.8,-1.2 2.8,-1.9 2.9,2.5 5.9,5.1 9.2,7.1 3.3,1.5 6.6,3.1 9.9,4.9 4.1,2.1 8.7,3 12.9,5 0.8,1.7 0.6,3.6 1.1,5.5 1,1.5 2.6,2.5 4.1,3.6 -0.4,2.3 -1.5,4.9 -0.8,7.3 1.8,3.9 5.3,6.4 8.1,9.5 2.1,2.3 3.6,5.1 5.7,7.4 2.4,2.7 6.2,3.4 8.2,6.3 3,4.2 7.8,6.4 12.3,8.5 -1.2,6.2 2.3,11.5 2.9,17.5 0.2,1.7 1,3.3 1.1,5 0,5.5 -5.7,8.7 -6.5,14.1 -0.6,-1.2 -1,-2.5 -1.5,-3.8 0.3,2.7 0.6,5.6 2.5,7.6 3,2 6.3,3.5 9.8,4.6 -2.8,-1.9 -6.1,-2.9 -8.5,-5.1 -0.9,-6.1 5,-9.6 7.8,-14 0.7,-6.8 0.1,-13.7 -0.8,-20.5 0.2,-3.3 2,-6.3 2.1,-9.6 -3.5,-2.3 -7.8,-2.9 -11,-5.6 -2.3,-1.8 -3.6,-4.5 -5.4,-6.7 -2.2,-2 -5.3,-2.7 -7.1,-5.1 -2.4,-3.1 -4.6,-6.3 -7.2,-9.4 2.4,-2.7 5.1,-6.6 2.9,-10.3 5.6,3.5 10.8,8.1 17,10.7 -1,-2 -2.2,-3.8 -3.4,-5.5 2.5,1.1 5.2,1.7 7.8,1 3.1,-1 5.1,1.9 7.3,3.3 4.6,4 10,7 14.8,10.7 -3.5,-1.4 -6.3,-4.2 -9.8,-5.5 -3.6,0.8 -2.9,4.6 -2.5,7.4 -1.9,0.7 -4.3,1.3 -4.1,3.8 0,5.4 5.1,8.7 8.2,12.5 3.4,5.4 2.7,12.5 6.8,17.6 1.4,6 -1.5,13.3 2.4,18.7 1.2,2.3 4.5,3 5.4,5.5 -0.4,6.6 -1.9,14.7 3,20.1 -0.4,1.5 -1,3.2 -1.1,5 -1.2,5 3.8,9.1 2.4,14.1 2.4,2 5.1,3.8 8.1,5 -4.9,-3.4 -5,-9.8 -7.1,-14.8 -0.6,-5 3.9,-9.7 1.1,-14.6 -0.2,-4.3 -0.4,-8.9 1.1,-13.1 1.4,-5.1 -3.2,-8.8 -6.5,-11.9 0.3,-3.6 -1.3,-8 1.3,-10.9 1.5,-1.8 1,-4.2 1,-6.3 -1.5,-1.5 -3.4,-2.5 -5.1,-3.8 -0.1,-2 0.6,-4.2 -0.7,-6 -3,-5.1 -6.4,-9.9 -9.6,-14.9 4.9,4.2 7.6,10.3 11,15.6 4.2,2.1 8.8,3.2 13.3,5.1 -1.2,4.5 -3.3,9.3 -1.3,13.9 0.4,4.5 5.4,6.4 6.1,10.6 0.8,2.9 2.4,5.3 4.1,7.7 -0.8,2.5 -1.8,5.1 -1.1,7.7 2.3,2.5 4,5.6 6.6,8 3.8,3.2 7.3,6.8 9.9,11 2.2,2.9 3.8,6.7 7.6,7.7 -2,-1.8 -4.8,-3.1 -5.4,-6 -1,-2 0.1,-4.9 -2,-6.4 -4.6,-5 -9.1,-10.3 -11.9,-16.5 1.7,-3.8 2.1,-8.1 0.7,-12 -1.9,-5.5 -6.5,-9.8 -7.5,-15.7 0.2,-4.3 3.3,-7.8 4.4,-12 -0.3,-1.5 -0.7,-3.5 -2.3,-4.3 -4.5,-2.3 -9.6,-3.4 -14.1,-5.9 -2.1,-5.4 -7.6,-8.2 -10.4,-13.3 3.3,1.3 6.4,3.2 9.3,5.3 0.3,1.4 0,3.3 1.7,4.1 5.9,3.6 12.9,5 18.1,9.5 2.5,2.2 2.9,5.9 5.1,8.3 5.1,7 7.8,15.1 11.4,22.8 2.8,5.7 8.4,9.4 14.4,11 2.2,0.3 1.4,2.9 1.7,4.4 0.2,-1.2 0.6,-2.3 0.8,-3.4 8.2,1 13.8,8.5 22.1,9.1 -2.3,-1.7 -5,-2.8 -7.4,-4.4 7.3,1.7 14.6,3.3 21.7,5.9 2.4,-5.3 -4,-8 -6.6,-11.4 4.9,2.4 10.8,3.1 14.5,7.6 3,1 6.6,3.5 9.6,2.2 l 0.6,-0.6 C 519.7,306.9 510.4,302 501.2,296.9 Z M 258.7,146 c 1.9,-1.3 4.1,-1 6.3,-0.9 -0.7,0.7 -1.2,1.3 -1.9,2.1 3.9,3.5 8.4,6.6 11,11.3 -6.2,-2.8 -10,-8.6 -15.4,-12.5 z m -51.1,-1.9 c 2.4,0.6 4.6,1.9 6.7,3.3 -2.5,-0.5 -4.8,-1.6 -6.7,-3.3 z m 8.9,4.4 c 4,1.7 7.7,3.9 11.4,6.1 -3.8,-2 -8,-3.3 -11.4,-6.1 z m 27.3,16.3 c -1.7,1.7 -4.2,0.3 -6.3,0.2 1.5,-1.1 3.1,-2.2 4.5,-3.3 0.9,0.9 2.1,1.6 1.8,3.1 z"
   id="path8" />
		</g>
	</g>
	<g
   id="g22">
		<g
   id="g16">
			<path
   fill="#ffffff"
   d="m 239.6,170.6 c -3.5,-2.5 -7.7,-4 -11.7,-5.9 -3.2,-1.5 -7.1,-1.2 -10.4,-2.8 -3.8,-1.2 -6,-5 -9.9,-5.7 -6.6,-1.8 -11.8,-6.3 -17.8,-9.3 -3.3,-0.3 -7.2,1.2 -9.6,-1.7 -1.9,-5.3 -8.1,-6 -12.1,-8.7 -2.2,1.5 -4.2,3.3 -5.6,5.6 13.5,4.3 26.6,9.8 39.5,15.5 1.8,0.8 3.4,1.7 5,2.9 -6.2,-1.1 -11.8,-4.3 -18,-5.5 2.9,1.8 5.5,3.4 8.3,5.3 6.7,1.5 13.6,3.1 20.2,5.1 2.1,0.7 3.3,2.7 4.9,4 2.9,-0.3 5.9,0.1 8.5,1.2 6.8,2.6 14.6,4.3 19.3,10.2 -3,1.1 -5.1,-1.7 -7.5,-2.9 -3.8,-2.2 -7.8,-3.6 -11,-6.6 -3.6,2 -7.4,-0.1 -10.8,-1.7 -5.9,-2.4 -12.3,-3.5 -18.1,-5.9 -3.3,-1.5 -6.8,0.6 -10.3,-0.9 0.7,-0.8 1.3,-1.4 2.1,-2.1 -6.4,-1.4 -12.3,-4.3 -18.6,-5.9 0.7,-0.7 1.3,-1.3 2,-2 -1.4,0.1 -2.8,0.2 -4.1,0.3 v 2.7 c 1.9,0.8 3.8,1.4 5.6,2.3 -2.1,-0.1 -4.2,-0.3 -6.3,-0.7 -0.4,1.2 -1,2.3 -1.5,3.4 7,0.1 13.6,2.2 20.2,4.1 0,3.1 -0.6,6.2 -2.4,8.7 0.4,2.1 0.7,4.3 1,6.4 3.6,0.6 7.1,1.8 10.7,2.1 6,-2 13.4,-2.7 18.2,2 l 0.8,0.3 c 0.3,-0.8 1,-2.2 1.4,-3 -9.1,-5.1 -20.4,-3.3 -28.7,-9.9 3.9,-1.7 7.3,1.2 10.9,2.2 -3.4,-2.7 -7.5,-3.9 -11.2,-6.1 -0.1,-0.6 -0.4,-1.7 -0.6,-2.2 8,1.7 15.2,5.7 22.6,9.2 9.3,5.4 20.2,7.3 28.5,14.4 -2.9,1.2 -6.3,2.7 -9.3,0.7 -3.6,-2.1 -7.4,-4 -11.6,-4.5 -0.1,0.7 -0.4,1.9 -0.6,2.5 0.3,0.4 1.1,1.3 1.5,1.9 0.4,-0.1 1.4,-0.2 2,-0.2 1.7,1 2.9,2.5 4.1,4 3.1,1.4 6.8,1 10.3,0.8 3.4,-0.4 8,-2.1 8.5,-6.1 0.6,-3.3 3.6,-5.4 4.2,-8.6 -1.5,-5.6 -8.1,-6.6 -12.6,-8.9 z m -3.9,8.4 c 0.2,-0.4 0.8,-1.1 1,-1.5 2.1,1.5 4.1,3 5.7,4.9 -2.3,-1.1 -4.5,-2.2 -6.7,-3.4 z"
   id="path14" />
		</g>
		<g
   id="g20">
			<path
   fill="#ffffff"
   d="m 239.6,170.6 c -3.5,-2.5 -7.7,-4 -11.7,-5.9 -3.2,-1.5 -7.1,-1.2 -10.4,-2.8 -3.8,-1.2 -6,-5 -9.9,-5.7 -6.6,-1.8 -11.8,-6.3 -17.8,-9.3 -3.3,-0.3 -7.2,1.2 -9.6,-1.7 -1.9,-5.3 -8.1,-6 -12.1,-8.7 -2.2,1.5 -4.2,3.3 -5.6,5.6 13.5,4.3 26.6,9.8 39.5,15.5 1.8,0.8 3.4,1.7 5,2.9 -6.2,-1.1 -11.8,-4.3 -18,-5.5 2.9,1.8 5.5,3.4 8.3,5.3 6.7,1.5 13.6,3.1 20.2,5.1 2.1,0.7 3.3,2.7 4.9,4 2.9,-0.3 5.9,0.1 8.5,1.2 6.8,2.6 14.6,4.3 19.3,10.2 -3,1.1 -5.1,-1.7 -7.5,-2.9 -3.8,-2.2 -7.8,-3.6 -11,-6.6 -3.6,2 -7.4,-0.1 -10.8,-1.7 -5.9,-2.4 -12.3,-3.5 -18.1,-5.9 -3.3,-1.5 -6.8,0.6 -10.3,-0.9 0.7,-0.8 1.3,-1.4 2.1,-2.1 -6.4,-1.4 -12.3,-4.3 -18.6,-5.9 0.7,-0.7 1.3,-1.3 2,-2 -1.4,0.1 -2.8,0.2 -4.1,0.3 v 2.7 c 1.9,0.8 3.8,1.4 5.6,2.3 -2.1,-0.1 -4.2,-0.3 -6.3,-0.7 -0.4,1.2 -1,2.3 -1.5,3.4 7,0.1 13.6,2.2 20.2,4.1 0,3.1 -0.6,6.2 -2.4,8.7 0.4,2.1 0.7,4.3 1,6.4 3.6,0.6 7.1,1.8 10.7,2.1 6,-2 13.4,-2.7 18.2,2 l 0.8,0.3 c 0.3,-0.8 1,-2.2 1.4,-3 -9.1,-5.1 -20.4,-3.3 -28.7,-9.9 3.9,-1.7 7.3,1.2 10.9,2.2 -3.4,-2.7 -7.5,-3.9 -11.2,-6.1 -0.1,-0.6 -0.4,-1.7 -0.6,-2.2 8,1.7 15.2,5.7 22.6,9.2 9.3,5.4 20.2,7.3 28.5,14.4 -2.9,1.2 -6.3,2.7 -9.3,0.7 -3.6,-2.1 -7.4,-4 -11.6,-4.5 -0.1,0.7 -0.4,1.9 -0.6,2.5 0.3,0.4 1.1,1.3 1.5,1.9 0.4,-0.1 1.4,-0.2 2,-0.2 1.7,1 2.9,2.5 4.1,4 3.1,1.4 6.8,1 10.3,0.8 3.4,-0.4 8,-2.1 8.5,-6.1 0.6,-3.3 3.6,-5.4 4.2,-8.6 -1.5,-5.6 -8.1,-6.6 -12.6,-8.9 z m -3.9,8.4 c 0.2,-0.4 0.8,-1.1 1,-1.5 2.1,1.5 4.1,3 5.7,4.9 -2.3,-1.1 -4.5,-2.2 -6.7,-3.4 z"
   id="path18" />
		</g>
	</g>
	<path
   fill="#ffffff"
   d="m 211.7,187.5 c 0.6,0 1.9,0 2.4,0.1 2.3,0.2 4.6,0.3 6.6,1.5 0.6,1.4 0.8,2.9 1.1,4.3 6.3,6.1 11.7,13 17.6,19.4 1.2,1.2 1.8,2.9 2.4,4.3 2.5,1.1 5.4,1.4 7.5,3.4 0.2,2.3 0.4,4.7 0,7.1 -1.2,1.1 -2.8,1.8 -4.2,2.5 1.3,-3 3.1,-6.6 1.2,-9.7 -3.5,-2.7 -8.3,-2.4 -11.8,-5 -3.9,-2.8 -8.8,-5.9 -8.9,-11.2 -2,-2.9 -5.5,-5.3 -9.1,-6 0.3,-2.4 1.3,-4.7 0.6,-7.2 -1.3,-1.9 -3.9,-1.7 -5.9,-1.7 0.2,-0.2 0.4,-1.2 0.5,-1.8 z"
   id="path24" />
	<path
   fill="#ffffff"
   d="m 232.3,211.8 c 0.6,0.7 0.6,0.7 0,0 z"
   id="path26" />
	<path
   fill="#ffffff"
   d="m 249.5,230.2 c 4,2.5 9.8,2.3 12.4,6.8 2.3,3.1 5.5,5.4 8.1,8.4 0.6,2.2 -1.2,4.2 -2.1,6.2 0.3,-1.5 1,-3 0.9,-4.6 -3,-4.5 -8,-7.8 -13.3,-9.3 -2.8,-0.9 -5.1,-2.9 -7.2,-4.9 -0.7,-1.2 0.5,-1.9 1.2,-2.6 z"
   id="path28" />
	<path
   fill="#ffffff"
   d="m 258.7,252.4 c 1.9,2.1 3.8,4.4 5.5,6.6 -1.1,0.3 -2.3,0.8 -3.4,1.1 -1.5,-2.3 -3.2,-4.9 -2.1,-7.7 z"
   id="path30" />
	<path
   fill="#ffffff"
   d="m 265.8,260.9 c 6.7,4.7 8.9,12.8 10.9,20.3 -1.3,-1.5 -1.9,-3.6 -2.4,-5.5 -2.4,-5.2 -5.8,-9.8 -8.5,-14.8 z"
   id="path32" />
	<path
   fill="#ffffff"
   d="m 277.1,283.5 c 2.4,1.5 5.1,3.3 5.9,6.4 -2.2,-1.9 -4.2,-4 -5.9,-6.4 z"
   id="path34" />
	<g
   id="g44">
		<g
   id="g38">
			<path
   fill="#ffffff"
   d="m 547.8,297.5 c 0.6,-0.1 1.5,-0.4 2.1,-0.6 1.7,2 3.5,3.9 5.3,5.9 4.8,5.3 8.8,11.6 15.4,14.8 -2.1,-3.2 -5,-5.9 -7.2,-8.9 -8.1,-10.5 -14.9,-21.8 -22.8,-32.4 -1.4,-5.1 -3.2,-10.7 -8.3,-13.4 -4.2,2.1 -4.2,7.4 -2.9,11.3 2,5.7 5.2,11.2 4.7,17.5 4.3,8.7 11.9,14.9 17.6,22.6 -4.9,-0.9 -8.4,-4.5 -12.6,-6.8 -6.6,-3.8 -12.5,-8.7 -18.1,-13.8 -7.1,-2.9 -12.6,-8.1 -18.8,-12.3 -0.2,0.8 -0.4,2.1 -0.6,2.9 -1,-2.1 -2.1,-4.2 -2.3,-6.5 0.3,0.9 0.9,2.6 1.1,3.5 0.4,-0.4 1.2,-1.3 1.5,-1.8 5,3.9 10.5,7.1 16.2,9.5 -3.5,-4 -8,-7.1 -11.4,-11.2 -2.9,-3.4 -10.8,-5.5 -12.6,-0.1 0.7,3.4 1.8,7 4.2,9.6 3.4,3 8,4.4 10.9,8 1.4,1.7 1.4,4.2 3.4,5.3 5.2,4.1 11,7.2 16.6,10.7 l 0.3,-0.6 c -0.4,-1.1 -0.9,-2.2 -1.2,-3.4 1.1,0.7 2.3,1.3 3.4,1.9 5.4,3.1 11.2,5.5 15.9,9.4 2.8,2.2 6,3.4 9.5,3.2 0.7,-1.4 1.3,-2.9 2,-4.4 -1.8,-5.3 -7,-8.4 -8.7,-13.6 -0.8,-0.8 -1.5,-1.4 -2.3,-2.2 -8.1,-9.2 -14.6,-20.5 -14.7,-33.1 1.9,4.1 2.9,8.6 6,12 3.6,4.1 6.2,8.8 8.5,13.7 -1.2,-0.6 -2.5,-1.2 -3.9,-1.8 1.5,1.7 2.7,3.4 3.8,5.1 z m -42,-11.2 c 5.5,2.9 11.3,5.7 16,9.9 2.3,3.3 5.2,6.1 7.8,9.1 -8.2,-6.1 -18.4,-9.9 -23.8,-19 z"
   id="path36" />
		</g>
		<g
   id="g42">
			<path
   fill="#ffffff"
   d="m 547.8,297.5 c 0.6,-0.1 1.5,-0.4 2.1,-0.6 1.7,2 3.5,3.9 5.3,5.9 4.8,5.3 8.8,11.6 15.4,14.8 -2.1,-3.2 -5,-5.9 -7.2,-8.9 -8.1,-10.5 -14.9,-21.8 -22.8,-32.4 -1.4,-5.1 -3.2,-10.7 -8.3,-13.4 -4.2,2.1 -4.2,7.4 -2.9,11.3 2,5.7 5.2,11.2 4.7,17.5 4.3,8.7 11.9,14.9 17.6,22.6 -4.9,-0.9 -8.4,-4.5 -12.6,-6.8 -6.6,-3.8 -12.5,-8.7 -18.1,-13.8 -7.1,-2.9 -12.6,-8.1 -18.8,-12.3 -0.2,0.8 -0.4,2.1 -0.6,2.9 -1,-2.1 -2.1,-4.2 -2.3,-6.5 0.3,0.9 0.9,2.6 1.1,3.5 0.4,-0.4 1.2,-1.3 1.5,-1.8 5,3.9 10.5,7.1 16.2,9.5 -3.5,-4 -8,-7.1 -11.4,-11.2 -2.9,-3.4 -10.8,-5.5 -12.6,-0.1 0.7,3.4 1.8,7 4.2,9.6 3.4,3 8,4.4 10.9,8 1.4,1.7 1.4,4.2 3.4,5.3 5.2,4.1 11,7.2 16.6,10.7 l 0.3,-0.6 c -0.4,-1.1 -0.9,-2.2 -1.2,-3.4 1.1,0.7 2.3,1.3 3.4,1.9 5.4,3.1 11.2,5.5 15.9,9.4 2.8,2.2 6,3.4 9.5,3.2 0.7,-1.4 1.3,-2.9 2,-4.4 -1.8,-5.3 -7,-8.4 -8.7,-13.6 -0.8,-0.8 -1.5,-1.4 -2.3,-2.2 -8.1,-9.2 -14.6,-20.5 -14.7,-33.1 1.9,4.1 2.9,8.6 6,12 3.6,4.1 6.2,8.8 8.5,13.7 -1.2,-0.6 -2.5,-1.2 -3.9,-1.8 1.5,1.7 2.7,3.4 3.8,5.1 z m -42,-11.2 c 5.5,2.9 11.3,5.7 16,9.9 2.3,3.3 5.2,6.1 7.8,9.1 -8.2,-6.1 -18.4,-9.9 -23.8,-19 z"
   id="path40" />
		</g>
	</g>
	<path
   fill="#ffffff"
   d="m 286.7,294.7 c 1.4,-0.8 4,1.1 3.3,2.8 -1.4,0.6 -3.9,-1.2 -3.3,-2.8 z"
   id="path46" />
	<path
   fill="#ffffff"
   d="m 292,296.4 c 2.9,3.5 7.4,6.7 7.1,11.8 2.5,5.2 8.2,8.3 9.7,14.1 -2.8,-2 -4.9,-4.7 -7.4,-7.1 2.2,4.9 7.1,7.8 9.3,12.7 -4.2,-2.1 -6.8,-6.2 -10.2,-9.4 -4.1,-4 -6.5,-9.4 -8.7,-14.6 -1.2,-2.3 0,-4.9 0.2,-7.5 z"
   id="path48" />
	<path
   fill="#ffffff"
   d="m 474.3,310.8 c 1.9,0.4 4.3,0.1 5.5,2 2.7,3.2 3.8,7.3 5.6,10.9 6.3,5.9 12.3,12.3 16.8,19.7 5.7,8.7 14.1,16.6 24.9,18.3 6.8,0.8 10.7,7 16.5,9.9 4.9,3.3 9.8,9.2 16.5,7 4,3.6 9.2,5.3 14,7.5 -1,-5.7 2.5,-10.5 6,-14.7 0.8,0.8 1.5,1.7 2.3,2.4 2,-2.5 4.1,-5 6.7,-6.8 -3.6,5.1 -8.2,10.1 -8.8,16.7 2.8,1.5 5,3.9 7.1,6.2 6.2,3.2 13.7,1.9 19.9,5.3 9.8,7.8 24.6,4.5 33.6,13.9 7.1,6.8 6,17.2 9.6,25.6 -0.6,-0.1 -1.9,-0.4 -2.4,-0.7 -2.3,-4.6 -1.8,-10.5 -5.2,-14.7 -5.4,-6.5 -12.8,-11 -20.8,-13.7 -4.4,-1.5 -8.3,-4.5 -12.8,-5.9 -8.9,-3 -18.1,-5 -27,-8.5 -8.8,-3.8 -18.8,-3.6 -27.6,-7.5 -3.4,-1.4 -6.5,-3.6 -10.1,-5 -2.3,-0.3 -4.7,-0.1 -7.1,-0.8 1.7,0 3.2,0.1 4.9,0.2 -2.3,-4 -7.4,-3.1 -10.7,-5.7 -4.1,-2.8 -8.6,-4.7 -13.1,-6.6 -3.6,-1.1 -7.6,-1.3 -10.7,-3.8 -1.1,-0.9 -3,-1.5 -2.4,-3.2 0.8,-0.3 1.5,-0.8 2.4,-1 -2.5,-1.8 -4.6,-4 -6.2,-6.6 -0.4,0.1 -1.1,0.1 -1.5,0.1 -0.7,-0.8 -1.3,-1.7 -2,-2.4 0.9,0.3 2.5,1.1 3.3,1.4 -1.4,-5.2 -4.5,-9.7 -7.6,-14.1 -2.3,-3.3 -5.1,-6.4 -8.5,-8.6 -1,-0.7 -2,-1.3 -2.9,-2 0.9,-6.2 -3.4,-11.5 -8.2,-14.8 z"
   id="path50" />
	<path
   fill="#ffffff"
   d="m 394.4,313.1 c 2.5,-2 7,-1.1 7.7,2.3 -0.7,2 -1.8,3.8 -2.5,5.6 1.8,0.8 3.6,1.5 5.5,2.4 0.3,2 0.8,3.9 0.8,5.9 -0.8,2.3 -2.5,4.4 -2,7 1,5.5 2.4,11.7 7.5,15 0.3,2.5 0.2,5.6 2.7,7.3 1.9,1.3 2.4,3.4 2.3,5.6 -1,0 -2,0 -3,0 -0.2,1.4 -0.3,2.9 -0.4,4.3 0.7,-0.2 2,-0.7 2.8,-0.9 -0.9,0.9 -1.9,1.9 -2.8,2.9 -0.6,-3 -0.4,-6 -0.2,-8.9 -1.8,-1 -4.1,-1.4 -4.9,-3.6 -1,-3.1 -4.3,-4.3 -6.3,-6.6 -3.3,-6.4 -7,-13.4 -5.4,-20.9 -2.4,-2.3 -5.6,-4.7 -5.2,-8.5 0.4,-3.1 0.4,-7.1 3.4,-8.9 z"
   id="path52" />
	<path
   fill="#ffffff"
   d="m 308.4,329.5 c 3,1.2 4.4,4.1 5.5,6.8 -2.2,-1.9 -4.2,-4.2 -5.5,-6.8 z"
   id="path54" />
	<g
   id="g64">
		<g
   id="g58">
			<path
   fill="#ffffff"
   d="m 622.5,335.8 c -3.3,-1.9 -7,-3.3 -10.8,-4.2 -5.9,-0.1 -12,-2.1 -16.5,-6.1 -4.8,-5.1 -6.4,-12.4 -12,-16.7 -2.3,-3 -3.3,-6.8 -5.4,-10.2 -2.2,-3.6 -2.1,-8.3 -4.7,-11.8 -1.7,-2.4 -3.2,-5 -4.8,-7.5 -1.3,0.1 -2.6,0.1 -3.9,0.6 -1.4,3 -1.9,6.4 -1.9,9.7 0.9,1.7 2.6,2.9 3.1,4.7 2,6 3.8,12.1 5.1,18.3 0.7,4.1 4.6,6.3 6.7,9.7 -1,0.8 -1.8,1.4 -2.7,2.2 -5.2,-4.9 -10.5,-9.7 -16.2,-14 1.9,3.1 4.6,5.6 6,9.1 0.9,2.4 3.5,3.3 5.4,4.6 3.2,1.8 6.8,4.5 10.6,2.7 1.5,-1.3 1.3,-3.9 1.5,-5.7 -7.7,-9.4 -11.6,-21.1 -14.4,-32.7 2.1,3 3.4,6.3 5.3,9.4 6.6,11.7 16,21.4 22.2,33.2 2.8,2.8 6.8,3.4 10.3,5.1 -4.9,-0.1 -9.5,-1.5 -14.4,-1.8 -3,-0.2 -4.3,2.9 -6,4.7 -4.4,0.6 -8.7,1.8 -13.1,2.1 -5.7,0.4 -11.6,0.6 -17.2,2 -2.3,0.6 -3.4,3 -4.9,4.6 -2.5,0.2 -5.3,0.1 -7.6,1.5 -5.3,3.2 -11.7,3.2 -17.6,4.1 4.1,0.1 8.3,0.7 12.4,-0.6 4.4,-1.2 8.7,-2.9 13.4,-2.9 1.9,-2.5 4.7,-4.4 8,-4.5 8.7,-0.7 17.6,-1.1 26.3,-2.5 2.5,-0.8 4.4,-2.8 6.4,-4.4 7.7,-0.1 15.2,2 23,1.5 -0.2,-2.8 -3.5,-2.8 -5.4,-3.8 3.2,0.4 7.5,-0.8 9.8,2.2 2.1,2.8 4.1,6.1 3.8,9.7 -0.7,2.4 -3.6,1.9 -5.5,2.4 0.7,-1.4 1.3,-3 2,-4.4 -5,2.3 -9.7,5.2 -14.8,7.2 -3.4,0.9 -6.9,-0.2 -10.3,-0.6 -0.1,-1 -0.2,-2 -0.3,-2.9 -4.4,-1.4 -5.7,4.4 -9.8,4.1 -3.5,-0.1 -5.7,3 -7.6,5.6 -3.2,5.6 -6.6,11.9 -5.1,18.7 0.2,0.1 0.7,0.2 1,0.3 2.1,-2.5 4.1,-5.1 6.6,-7.2 -0.2,-1.3 -0.6,-2.8 -0.4,-4.1 2.3,-3.9 7.5,-3.3 10.7,-6 -1.9,2.1 -3.6,4.3 -4.6,7 5.3,-3.2 9.7,-8.3 16,-9.5 6.1,0.8 11.4,-3.1 17.3,-3.4 4,-0.3 8.6,-2.2 9.8,-6.4 0.4,-4.5 -1.3,-9.6 -4.8,-13.1 z m -19.7,22.6 c 2.5,-2.4 6,-3.3 9.3,-4.2 -2.5,2.4 -5.9,3.5 -9.3,4.2 z"
   id="path56" />
		</g>
		<g
   id="g62">
			<path
   fill="#ffffff"
   d="m 622.5,335.8 c -3.3,-1.9 -7,-3.3 -10.8,-4.2 -5.9,-0.1 -12,-2.1 -16.5,-6.1 -4.8,-5.1 -6.4,-12.4 -12,-16.7 -2.3,-3 -3.3,-6.8 -5.4,-10.2 -2.2,-3.6 -2.1,-8.3 -4.7,-11.8 -1.7,-2.4 -3.2,-5 -4.8,-7.5 -1.3,0.1 -2.6,0.1 -3.9,0.6 -1.4,3 -1.9,6.4 -1.9,9.7 0.9,1.7 2.6,2.9 3.1,4.7 2,6 3.8,12.1 5.1,18.3 0.7,4.1 4.6,6.3 6.7,9.7 -1,0.8 -1.8,1.4 -2.7,2.2 -5.2,-4.9 -10.5,-9.7 -16.2,-14 1.9,3.1 4.6,5.6 6,9.1 0.9,2.4 3.5,3.3 5.4,4.6 3.2,1.8 6.8,4.5 10.6,2.7 1.5,-1.3 1.3,-3.9 1.5,-5.7 -7.7,-9.4 -11.6,-21.1 -14.4,-32.7 2.1,3 3.4,6.3 5.3,9.4 6.6,11.7 16,21.4 22.2,33.2 2.8,2.8 6.8,3.4 10.3,5.1 -4.9,-0.1 -9.5,-1.5 -14.4,-1.8 -3,-0.2 -4.3,2.9 -6,4.7 -4.4,0.6 -8.7,1.8 -13.1,2.1 -5.7,0.4 -11.6,0.6 -17.2,2 -2.3,0.6 -3.4,3 -4.9,4.6 -2.5,0.2 -5.3,0.1 -7.6,1.5 -5.3,3.2 -11.7,3.2 -17.6,4.1 4.1,0.1 8.3,0.7 12.4,-0.6 4.4,-1.2 8.7,-2.9 13.4,-2.9 1.9,-2.5 4.7,-4.4 8,-4.5 8.7,-0.7 17.6,-1.1 26.3,-2.5 2.5,-0.8 4.4,-2.8 6.4,-4.4 7.7,-0.1 15.2,2 23,1.5 -0.2,-2.8 -3.5,-2.8 -5.4,-3.8 3.2,0.4 7.5,-0.8 9.8,2.2 2.1,2.8 4.1,6.1 3.8,9.7 -0.7,2.4 -3.6,1.9 -5.5,2.4 0.7,-1.4 1.3,-3 2,-4.4 -5,2.3 -9.7,5.2 -14.8,7.2 -3.4,0.9 -6.9,-0.2 -10.3,-0.6 -0.1,-1 -0.2,-2 -0.3,-2.9 -4.4,-1.4 -5.7,4.4 -9.8,4.1 -3.5,-0.1 -5.7,3 -7.6,5.6 -3.2,5.6 -6.6,11.9 -5.1,18.7 0.2,0.1 0.7,0.2 1,0.3 2.1,-2.5 4.1,-5.1 6.6,-7.2 -0.2,-1.3 -0.6,-2.8 -0.4,-4.1 2.3,-3.9 7.5,-3.3 10.7,-6 -1.9,2.1 -3.6,4.3 -4.6,7 5.3,-3.2 9.7,-8.3 16,-9.5 6.1,0.8 11.4,-3.1 17.3,-3.4 4,-0.3 8.6,-2.2 9.8,-6.4 0.4,-4.5 -1.3,-9.6 -4.8,-13.1 z m -19.7,22.6 c 2.5,-2.4 6,-3.3 9.3,-4.2 -2.5,2.4 -5.9,3.5 -9.3,4.2 z"
   id="path60" />
		</g>
	</g>
	<path
   fill="#ffffff"
   d="m 140.9,405.8 c 7.7,-5.6 18.3,-4.9 26.1,0.2 -0.7,1.3 -1.3,2.7 -1.9,3.9 -4.4,-3.5 -9.8,-5.5 -15.5,-4.9 -0.1,9.7 0.2,19.4 -0.2,29.2 -3.6,-0.4 -6.3,-3 -8.4,-5.9 0.7,-0.3 2.1,-0.9 2.8,-1.1 -1.5,0 -3.1,-0.2 -4.6,-0.6 0.9,-1.5 3.2,-0.9 4.6,-1.3 -2.1,-0.4 -4.4,-0.6 -6,-2.2 2,-0.3 4,-0.6 6,-1 -2,-0.2 -3.9,-0.4 -5.9,-0.7 l 0.1,-1.2 c 1.9,-0.2 3.9,-0.3 5.7,-0.7 -1.9,-0.1 -3.8,-0.2 -5.7,-0.3 V 418 c 2,-0.1 3.9,-0.2 5.9,-0.7 -1.7,-0.2 -3.4,-0.3 -5.1,-0.4 v -1.3 c 1.7,0 3.3,0 5,0 -1.7,-0.6 -3.4,-1.1 -5,-2 1.5,-0.2 3.2,-0.3 4.9,-0.4 -1.2,-0.3 -2.3,-0.7 -3.5,-0.9 1.1,-0.7 2.2,-1.3 3.3,-1.9 -0.4,-1.7 -1.3,-3.3 -2.6,-4.6 z"
   id="path66" />
	<path
   fill="#ffffff"
   d="m 270.8,402.6 c 4.1,-0.2 8.3,-0.2 12.5,-0.1 -0.1,10.5 -0.3,21.1 -0.1,31.6 -2.9,0.1 -5.9,0.2 -8.8,-0.3 1.2,-0.8 2.5,-1.4 4,-1.8 -1.3,-0.4 -2.5,-0.9 -3.8,-1.4 0.9,-0.2 2.9,-0.6 3.9,-0.7 -1.3,-0.6 -2.7,-1.1 -4,-1.7 1,-0.1 3.1,-0.4 4.1,-0.7 -1.3,-0.3 -2.5,-0.7 -3.8,-1 1.1,-0.6 2.3,-1 3.4,-1.4 -1.1,-0.4 -2.3,-0.9 -3.4,-1.3 1.1,-0.6 2.2,-1 3.4,-1.4 -1.2,-0.7 -2.4,-1.2 -3.5,-1.9 0.9,-0.2 2.8,-0.4 3.8,-0.6 -1.3,-0.4 -2.5,-1 -3.8,-1.5 0.9,-0.1 2.8,-0.4 3.8,-0.7 -1.3,-0.6 -2.5,-1.1 -3.9,-1.8 1,-0.1 2.9,-0.3 3.8,-0.3 -1.1,-0.7 -2.3,-1.2 -3.4,-1.9 1.1,-0.2 2.3,-0.6 3.5,-0.8 -0.9,-0.1 -2.8,-0.3 -3.8,-0.4 1.1,-0.9 2.3,-1.7 3.4,-2.4 -1.2,-0.6 -2.4,-1.1 -3.6,-1.8 1.1,-0.1 3.1,-0.4 4.1,-0.7 -1.3,-0.3 -2.7,-0.7 -4,-1 1.2,-0.6 2.5,-1.1 3.9,-1.7 -2.5,0.1 -5.1,0 -7.6,0 -0.1,-0.6 -0.1,-1.7 -0.1,-2.3 z"
   id="path68" />
	<path
   fill="#ffffff"
   d="m 296,402 c 2.2,1.8 3.9,4.1 5.4,6.4 -2.2,0.9 -4.5,1.2 -6.8,1.4 1.3,-2.4 2,-5 1.4,-7.8 z"
   id="path70" />
	<path
   fill="#ffffff"
   d="m 401.2,402.1 c 2.1,1.7 3.6,4 5.1,6.3 -2.1,0.9 -4.4,1.2 -6.7,1.4 1.4,-2.3 1.9,-5 1.6,-7.7 z"
   id="path72" />
	<path
   fill="#ffffff"
   d="m 287.4,411.5 c 2.3,-2.8 4.7,-5.5 8.1,-7.3 -0.2,4.2 -4.4,6.9 -8.1,7.3 z"
   id="path74" />
	<path
   fill="#ffffff"
   d="m 393.6,411 c 1.5,-2.9 3.8,-5.3 6.7,-6.7 0,3.5 -3.3,6.2 -6.7,6.7 z"
   id="path76" />
	<path
   fill="#ffffff"
   d="m 270.8,405.6 c 0.6,0.1 1.8,0.3 2.3,0.4 1.2,9.5 -0.1,19.2 0.7,28.8 3.2,0.6 6.3,0.3 9.5,0.4 v 1.9 c -4.2,0.1 -8.5,0.2 -12.7,-0.1 0.8,-10.5 0.9,-20.9 0.2,-31.4 z"
   id="path78" />
	<path
   fill="#ffffff"
   d="m 134.5,416.9 c 0.8,-3.8 2.3,-8.3 6.5,-9.2 -1.5,4.4 -4.5,8.6 -3.6,13.6 -0.2,6 4.6,10.7 9.7,12.9 5.7,2.2 11.8,-0.2 16.8,-3.1 1.7,-1.3 2.5,1.1 3.4,2.1 -5.4,3.6 -12.1,6.2 -18.7,4.2 -9,-1.8 -15.7,-11.3 -14.1,-20.5 z"
   id="path80" />
	<path
   fill="#ffffff"
   d="m 176,413 c 4.7,-1.5 9.9,-1.5 14.9,-0.9 3.4,0.6 7.1,3.3 6.8,7.1 0.2,6 0.1,12 0.3,18 -4.1,0.2 -8.2,0.1 -12.1,-0.4 -2.8,-0.3 -5.3,1.1 -8.1,1.2 -4.3,0 -8.6,-2.6 -10.4,-6.6 0,-2.5 0.7,-5.6 3.5,-6.3 -0.2,2.9 -1.5,6.5 1.2,8.6 4,3.6 9.7,1.5 13.9,-0.6 0,-3 0.1,-6 0.1,-9.1 -1.7,0 -3.3,-0.1 -4.9,-0.2 -0.1,3.8 0.1,7.6 -1,11.3 -2.5,0 -5.1,0 -7.3,-1.3 0.8,-0.8 1.5,-1.5 2.4,-2.3 -0.9,0 -2.7,0 -3.5,0.1 l -0.1,-1.3 c 1,-0.1 3,-0.3 4,-0.4 -1.5,-0.2 -3.1,-0.4 -4.6,-0.7 V 428 c 1.4,-0.1 3,-0.1 4.4,-0.2 -0.6,-0.2 -1.9,-0.8 -2.4,-1.1 0.8,-0.6 1.5,-1.1 2.3,-1.7 -1.7,-0.1 -3.3,-0.2 -4.9,-0.3 3,-5.4 10.2,-3 15.2,-3.3 0,-2.4 0,-4.8 0,-7.2 -3.6,0.4 -7.2,1.4 -10.8,2.3 0.5,-1 0.9,-2.8 1.1,-3.5 z"
   id="path82" />
	<path
   fill="#ffffff"
   d="m 243.4,413 c 5.6,-1.1 11.6,-2.3 17.1,-0.3 2.4,0.9 5.3,2.7 5.3,5.6 0.3,6.4 0.1,12.8 0.2,19.2 -4,-0.1 -8,0 -11.9,-0.7 -3.6,-0.7 -7.1,2.1 -10.7,0.8 -3.2,-0.8 -6.8,-2.8 -7.3,-6.3 -0.1,-2.4 -0.3,-6.1 2.9,-6.2 0.1,2.7 0.1,5.3 0.2,7.8 4.3,3.6 10,2.9 14.7,0.3 0.1,-3.1 0.1,-6.2 -0.1,-9.3 -1.5,-0.1 -3.2,-0.2 -4.9,-0.3 0.1,3.8 0.1,7.5 -0.1,11.3 -2.5,0.1 -5.2,0.1 -7.5,-1.3 0.9,-0.7 1.8,-1.4 2.8,-2.1 -1.7,0 -3.2,-0.1 -4.9,-0.2 1.4,-1.2 3.3,-1.3 5.1,-1.8 -1.5,-0.1 -3.1,-0.2 -4.5,-0.4 l -0.1,-1.1 c 1.5,-0.1 3.1,-0.2 4.6,-0.3 -1.2,-0.4 -2.4,-0.8 -3.6,-1.1 1.2,-0.6 2.3,-1.1 3.5,-1.7 -2,-0.1 -3.9,-0.1 -5.9,-0.3 3.8,-4.7 10.3,-3.4 15.6,-3.3 0.1,-2.3 0.1,-4.6 0.3,-7.1 0.6,0.4 1.8,1.3 2.3,1.8 0.4,6.1 0.1,12.3 -0.1,18.3 1.3,-1 2.8,-1.9 4.2,-2.6 -0.9,-0.1 -2.7,-0.4 -3.5,-0.6 1.1,-0.6 2.3,-1 3.4,-1.5 -1.2,-0.4 -2.4,-0.8 -3.5,-1.2 0.9,-0.1 2.8,-0.4 3.8,-0.7 -1.2,-0.6 -2.4,-1 -3.6,-1.5 0.9,-0.2 2.8,-0.4 3.6,-0.7 -1.2,-0.6 -2.5,-1.2 -3.9,-1.9 1.3,-0.7 2.5,-1.2 3.8,-1.9 -0.9,-0.1 -2.8,-0.3 -3.6,-0.6 1.2,-0.4 2.3,-0.9 3.5,-1.3 -1.1,-0.4 -2.3,-0.9 -3.4,-1.3 0.9,-0.2 2.8,-0.7 3.6,-0.9 -1,-0.3 -2,-0.6 -2.9,-0.8 0,-0.6 0,-1.5 0,-2.1 -5,-1.7 -9.9,0.2 -14.6,2.1 0,-1.3 0,-2.6 0.1,-3.8 z"
   id="path84" />
	<path
   fill="#ffffff"
   d="m 367.6,417 c 2.5,-4.9 8.6,-5.5 13.6,-5.2 3.4,0 6.5,1.3 9.5,2.9 -0.6,1.1 -1,2.2 -1.5,3.4 -3.6,-2.3 -7.6,-3.9 -11.9,-4.3 -0.4,7.1 0.2,14.1 -0.3,21.2 -3,-0.3 -5.3,-2.1 -7.1,-4.4 0.7,-0.3 1.9,-1 2.5,-1.2 -1.5,-0.1 -3,-0.1 -4.4,-0.1 l -0.1,-1.3 c 1.5,-0.1 3.1,-0.3 4.8,-0.4 -1.7,-0.3 -3.2,-0.6 -4.8,-0.7 v -1 c 1.5,-0.2 3.1,-0.4 4.8,-0.8 -1.8,-0.2 -3.4,-0.3 -5.2,-0.6 0.7,-1.5 2,-2.1 3.4,-2.5 -0.8,-0.6 -1.4,-1.2 -2.1,-1.8 0.9,-0.1 2.7,-0.2 3.5,-0.3 -0.6,-0.2 -1.7,-0.8 -2.1,-1.1 0.7,-0.6 1.2,-1.1 1.9,-1.7 -1.5,0.1 -3.1,-0.1 -4.5,-0.1 z"
   id="path86" />
	<path
   fill="#ffffff"
   d="m 412.4,416.1 c 6.3,-6 17.3,-6.1 23.6,0.2 4,4 4,10.6 1.5,15.5 -2.4,-0.1 -4.9,-0.2 -7.3,-0.4 0.8,-0.7 1.7,-1.3 2.4,-2 -0.6,-0.1 -1.9,-0.4 -2.5,-0.7 1.3,-0.6 2.6,-1 4,-1.5 -0.9,0 -2.8,-0.1 -3.6,-0.1 v -1.2 c 0.9,-0.1 2.8,-0.1 3.6,-0.2 -1.4,-0.7 -2.9,-1.4 -4.3,-2.1 1.5,-0.3 3,-0.6 4.5,-0.8 -1.3,-0.7 -2.7,-1.3 -4,-2 0.6,-0.1 1.5,-0.6 2,-0.8 -1.2,-1.7 -2.1,-3.6 -3.6,-5.2 -2.2,-1.1 -4.9,-0.7 -7.4,-0.8 -0.2,7 0.3,14 -0.2,21 -2.1,-0.9 -4.1,-2.1 -5.9,-3.5 0.1,-0.6 0.4,-1.4 0.7,-2 -0.8,-0.1 -2.4,-0.3 -3.2,-0.6 1.2,-0.6 2.4,-1.2 3.8,-1.8 -0.9,0 -2.8,-0.1 -3.6,-0.1 v -1.2 c 0.9,-0.1 2.9,-0.2 3.9,-0.3 -1.4,-0.4 -2.8,-0.9 -4.2,-1.3 1.3,-0.6 2.5,-1 3.8,-1.5 -1.1,-0.7 -2.3,-1.4 -3.4,-2.2 0.8,-0.1 2.3,-0.4 3.1,-0.6 -0.1,-0.8 -0.2,-1.5 -0.2,-2.2 -1.3,-0.7 -2.4,-1.1 -3.5,-1.6 z"
   id="path88" />
	<path
   fill="#ffffff"
   d="m 455.9,413.8 c 5.4,-1.5 11.6,-3.3 17,-1.1 0.2,7.1 -0.7,14.1 0,21.3 -3,0.1 -5.9,0.1 -8.7,-0.2 1.2,-1 2.6,-1.7 4.2,-2 -1.2,-0.2 -2.4,-0.4 -3.6,-0.7 0.8,-0.7 1.7,-1.2 2.5,-1.9 -1,-0.1 -2.9,-0.4 -3.8,-0.7 1.5,-0.8 3.2,-0.9 4.9,-1.1 -1.3,-0.4 -2.7,-0.9 -3.9,-1.3 0.7,-0.2 2.1,-0.6 2.8,-0.8 -1.1,-0.6 -2.3,-1 -3.4,-1.5 1.1,-0.4 2.2,-0.9 3.3,-1.2 -0.9,-0.8 -1.7,-1.7 -2.4,-2.4 0.8,-0.1 2.5,-0.2 3.3,-0.3 l -0.1,-0.1 c -1.2,-0.4 -2.4,-1 -3.6,-1.4 1,-0.2 3.1,-0.6 4.2,-0.8 -1.3,-0.3 -2.5,-0.7 -3.9,-1 1.2,-1 2.4,-2 3.5,-3 -4.4,0.6 -8.8,1.4 -12.8,3.5 -0.6,5.6 -0.2,11.3 -0.1,16.9 -2.9,0.1 -5.9,0.1 -8.8,-0.2 1.2,-1.1 2.7,-1.8 4.3,-2 -1.3,-0.2 -2.7,-0.6 -3.9,-0.8 1.2,-0.7 2.5,-1.2 3.9,-1.8 -1.4,0 -3,0 -4.4,-0.1 v -1.3 c 1.4,-0.1 3,-0.1 4.4,-0.1 -1.3,-0.7 -2.7,-1.2 -4,-1.8 1.1,-0.2 3.1,-0.4 4.1,-0.7 -1.2,-0.3 -2.4,-0.7 -3.6,-1.1 1.1,-0.8 2.2,-1.5 3.2,-2.3 -1.3,-0.2 -2.5,-0.6 -3.6,-1.2 1.3,-0.4 2.7,-0.8 4.1,-1.1 -1,-0.1 -3.1,-0.4 -4.1,-0.7 1.3,-0.6 2.7,-1.2 4.1,-1.8 -1.1,-0.1 -3.2,-0.3 -4.3,-0.6 1.3,-0.7 2.8,-1.2 4.2,-1.8 -2.8,-0.6 -6.6,0.4 -8.3,-2.2 4.3,0.1 9.6,-1.5 13.3,1.4 z"
   id="path90" />
	<path
   fill="#ffffff"
   d="m 202.6,414.1 c 0.2,-2.5 3.4,-1.7 5.2,-2 4.1,-0.2 8.2,1.7 12.3,0.6 4.1,-0.9 8.3,-0.8 12.4,-0.3 0,8.3 -0.8,16.8 0.3,25.1 -4.2,-0.1 -8.4,0 -12.6,0.1 0.1,-7.4 0.9,-14.8 -0.1,-22.2 -1.8,0.6 -3.5,1.2 -5.4,1.9 -0.2,5.6 -0.1,11.3 0,16.9 -2.9,0.1 -5.9,0.2 -8.7,-0.2 1.2,-0.9 2.5,-1.5 3.9,-2.1 -1.2,-0.3 -2.4,-0.7 -3.6,-1.1 1.3,-0.4 2.7,-0.8 4,-1.1 -1,-0.2 -3.1,-0.6 -4.1,-0.7 1.3,-0.7 2.6,-1.1 4,-1.7 -1,-0.1 -2.9,-0.4 -3.9,-0.6 1.1,-0.6 2.1,-1.1 3.1,-1.5 0,-1 0,-1.9 0,-2.9 -1,-0.7 -2,-1.2 -3,-1.9 0.9,-0.1 2.9,-0.3 3.8,-0.4 -1.2,-0.4 -2.5,-0.9 -3.8,-1.4 1.3,-0.4 2.5,-0.8 3.9,-1.2 -1,-0.1 -3,-0.3 -4,-0.4 1.3,-0.9 2.5,-1.7 3.9,-2.4 -2.8,-0.2 -5.2,-0.3 -7.6,-0.5 z"
   id="path92" />
	<path
   fill="#ffffff"
   d="m 287.3,412.4 c 4.4,-0.2 8.8,-0.2 13.3,0 -1,7.2 -1,14.5 -0.7,21.7 -2.6,0.1 -5.2,0.1 -7.8,-0.1 0.9,-0.8 1.9,-1.7 2.9,-2.4 -0.9,-0.1 -2.8,-0.2 -3.6,-0.3 1.2,-0.7 2.5,-1.2 3.8,-1.8 -1,-0.2 -2.9,-0.4 -3.8,-0.6 1.2,-0.7 2.5,-1.2 3.8,-1.7 -0.9,-0.2 -2.8,-0.4 -3.8,-0.6 1.2,-0.7 2.5,-1.2 3.8,-1.7 -0.9,-0.2 -2.9,-0.6 -3.8,-0.7 1,-1.1 2.3,-2 3.6,-2.8 -0.9,-0.1 -2.8,-0.3 -3.6,-0.4 1.2,-0.6 2.3,-1.1 3.5,-1.5 -1.2,-0.3 -2.3,-0.7 -3.5,-1.1 1.2,-0.3 2.5,-0.8 3.8,-1.1 -0.9,-0.2 -2.8,-0.6 -3.8,-0.7 1.2,-0.7 2.5,-1.2 3.8,-1.8 -2.2,0 -4.3,0 -6.4,0 -0.5,-0.5 -1.2,-1.7 -1.5,-2.4 z"
   id="path94" />
	<path
   fill="#ffffff"
   d="m 393.3,412.5 c 4.1,-0.7 8.2,-0.3 12.2,-0.1 -1,7.3 -0.9,14.6 -0.7,21.9 -3.5,0.7 -6.2,-1.5 -8.5,-4 0.9,-0.1 2.8,-0.3 3.6,-0.3 -1.3,-0.6 -2.5,-1.1 -3.8,-1.8 0.9,-0.1 2.9,-0.4 3.8,-0.6 -1.2,-0.4 -2.4,-1 -3.6,-1.5 1.2,-0.3 2.4,-0.7 3.8,-1 -1,-0.2 -3,-0.7 -4,-0.9 1.1,-1 2.4,-1.9 3.8,-2.7 -0.9,-0.1 -2.7,-0.2 -3.6,-0.3 1.2,-0.7 2.5,-1.2 3.8,-1.9 -1,-0.1 -2.8,-0.3 -3.8,-0.4 1.2,-0.6 2.5,-1.1 3.8,-1.7 -0.9,-0.2 -2.9,-0.4 -3.9,-0.7 1.3,-0.4 2.5,-1 3.9,-1.4 -2.4,-0.2 -4.9,-0.6 -7.3,-0.9 0.1,-0.4 0.4,-1.2 0.5,-1.7 z"
   id="path96" />
	<path
   fill="#ffffff"
   d="m 494.3,412.5 c 4.6,-0.4 9.3,-0.3 13.9,-0.2 1.9,4.3 3.3,8.9 6.3,12.6 2.1,-3.9 3.2,-8.2 3.9,-12.5 1.4,-0.1 3,-0.1 4.5,-0.2 -2.5,8.2 -6.2,16.1 -11,23.1 -0.3,0.1 -1,0.2 -1.4,0.3 -0.4,-1.3 0.1,-2.8 0.3,-4.1 -0.7,-0.1 -2.1,-0.2 -2.9,-0.3 1.2,-0.7 2.4,-1.2 3.6,-1.8 -1.7,-0.1 -3.3,-0.2 -5,-0.4 1.2,-0.7 2.5,-1.2 3.9,-1.7 -1.7,-0.2 -3.3,-0.3 -5,-0.6 1.3,-0.6 2.5,-1.1 3.9,-1.7 -1.7,-0.2 -3.3,-0.4 -4.9,-0.7 0.7,-1 1.4,-2 2.2,-3.1 -1.3,0.2 -2.5,0.3 -3.9,0.4 2.2,5.4 6.1,10.2 7.5,15.9 -3.6,5.6 -7.8,12.9 -15.6,12.7 0,-1.5 0,-3 0.1,-4.5 5.3,-0.3 10.5,-4.1 12,-9.1 -2.4,-7.6 -7.5,-14 -10.3,-21.5 2.8,0.2 3.9,2.9 5.4,4.7 1.4,0 2.8,-0.1 4.1,-0.1 -1,-0.3 -3.1,-0.9 -4.1,-1.1 1.3,-0.6 2.7,-1.1 4.1,-1.5 -2.1,-0.1 -4.2,-0.2 -6.3,-0.4 1.3,-0.7 2.7,-1.3 4,-1.9 -3,-0.1 -7.9,1.7 -9.3,-2.3 z"
   id="path98" />
	<path
   fill="#ffffff"
   d="m 203.2,415.1 1.2,0.7 c 1.2,6.3 0.2,12.9 0.7,19.2 3.5,0.6 7.8,-0.9 10.7,1.8 -4.3,0.8 -8.7,0.6 -13,0.4 0.3,-7.5 0,-14.7 0.4,-22.1 z"
   id="path100" />
	<path
   fill="#ffffff"
   d="m 288,415.5 c 0.7,0.1 2.1,0.1 2.9,0.2 0,6.5 -0.1,13 0,19.6 3.3,0.3 7.8,-1.4 10.2,1.5 -4.4,0.7 -8.7,0.4 -13.1,0.3 -0.1,-7.1 0.5,-14.4 0,-21.6 z"
   id="path102" />
	<path
   fill="#ffffff"
   d="m 393.1,415.5 c 0.7,0 2,0 2.8,0 0.1,6.6 0,13.1 0,19.7 3.3,0 6.6,0 9.9,0.3 -0.2,0.4 -0.7,1.3 -0.9,1.8 -3.9,0 -8.3,0.9 -11.9,-0.6 0,-7.1 0.4,-14.1 0.1,-21.2 z"
   id="path104" />
	<path
   fill="#ffffff"
   d="m 426.7,415.8 c 0.7,-0.1 1.8,-0.1 2.4,-0.2 0.1,5.4 0.1,10.9 0,16.3 2.3,0.1 4.6,0.3 6.8,0.4 -1.2,3.5 -5.3,4.5 -8.5,5.3 -7.7,1.7 -17.3,-2.6 -18.7,-11 -0.3,-3.4 0.7,-8.3 4.6,-9.3 -1,4.2 -3.4,9.1 -0.2,12.8 2.9,4.6 8.4,5.7 13.5,5.4 0.5,-6.5 0.3,-13.2 0.1,-19.7 z"
   id="path106" />
	<path
   fill="#ffffff"
   d="m 443.9,415.7 1.3,-0.7 c 0.7,6.7 0.2,13.5 0.4,20.1 3.3,-0.1 6.7,-0.1 10.2,0.2 l -0.7,1.2 c -3.8,1.2 -7.8,0.4 -11.8,0.6 0.3,-7.1 -0.4,-14.4 0.6,-21.4 z"
   id="path108" />
	<path
   fill="#ffffff"
   d="m 460.6,415.7 c 0.7,0 2,-0.1 2.7,-0.2 0.1,6.6 0,13.1 0,19.8 3.4,-0.2 6.7,-0.2 10.2,0.1 -0.2,0.4 -0.8,1.4 -1,1.9 -3.9,0.3 -7.8,0 -11.7,0.2 -0.6,-7.3 0.3,-14.5 -0.2,-21.8 z"
   id="path110" />
	<g
   id="g120">
		<g
   id="g114">
			<path
   fill="#ffffff"
   d="m 329.4,433.3 c -3.8,0.8 -7.5,1.2 -11.3,1.5 2.5,-8 7.4,-14.9 10.7,-22.5 -8.2,-0.1 -16.5,-0.3 -24.7,0.3 v 3 c 5.7,-0.9 11.6,-0.7 17.5,-0.6 -1.5,0.4 -3.1,0.9 -4.6,1.3 1.2,0.4 2.4,0.9 3.6,1.4 -1.7,0 -3.3,0 -5,0.1 1.2,0.7 2.4,1.4 3.8,2.1 -1.5,0.1 -3.1,0.1 -4.6,0.2 1.1,0.8 2.3,1.5 3.5,2.2 -1.5,0.6 -3.1,1 -4.6,1.5 1.2,0.4 2.4,1 3.6,1.4 -1.7,0.1 -3.3,0.2 -5,0.4 1.2,0.7 2.5,1.2 3.8,1.9 -1.7,0.1 -3.3,0.2 -4.9,0.3 1.2,0.7 2.4,1.2 3.8,1.9 -1.7,0.1 -3.2,0.1 -4.9,0.2 1.1,0.6 2.3,1 3.4,1.4 -1.9,0.8 -3.8,1.7 -5.6,2.6 2.5,-5.5 5.3,-10.8 7.7,-16.3 0.2,-0.6 0.7,-1.8 0.9,-2.4 -0.7,0.1 -1.9,0.3 -2.4,0.4 -3.5,7.1 -7.4,14 -10.8,21.1 8.7,0.3 17.5,0.2 26.3,0 -0.1,-0.5 -0.2,-2.4 -0.2,-3.4 z"
   id="path112" />
		</g>
		<g
   id="g118">
			<path
   fill="#ffffff"
   d="m 329.4,433.3 c -3.8,0.8 -7.5,1.2 -11.3,1.5 2.5,-8 7.4,-14.9 10.7,-22.5 -8.2,-0.1 -16.5,-0.3 -24.7,0.3 v 3 c 5.7,-0.9 11.6,-0.7 17.5,-0.6 -1.5,0.4 -3.1,0.9 -4.6,1.3 1.2,0.4 2.4,0.9 3.6,1.4 -1.7,0 -3.3,0 -5,0.1 1.2,0.7 2.4,1.4 3.8,2.1 -1.5,0.1 -3.1,0.1 -4.6,0.2 1.1,0.8 2.3,1.5 3.5,2.2 -1.5,0.6 -3.1,1 -4.6,1.5 1.2,0.4 2.4,1 3.6,1.4 -1.7,0.1 -3.3,0.2 -5,0.4 1.2,0.7 2.5,1.2 3.8,1.9 -1.7,0.1 -3.3,0.2 -4.9,0.3 1.2,0.7 2.4,1.2 3.8,1.9 -1.7,0.1 -3.2,0.1 -4.9,0.2 1.1,0.6 2.3,1 3.4,1.4 -1.9,0.8 -3.8,1.7 -5.6,2.6 2.5,-5.5 5.3,-10.8 7.7,-16.3 0.2,-0.6 0.7,-1.8 0.9,-2.4 -0.7,0.1 -1.9,0.3 -2.4,0.4 -3.5,7.1 -7.4,14 -10.8,21.1 8.7,0.3 17.5,0.2 26.3,0 -0.1,-0.5 -0.2,-2.4 -0.2,-3.4 z"
   id="path116" />
		</g>
	</g>
	<path
   fill="#ffffff"
   d="m 364.8,420.7 c 0.4,-1.7 2,-2.5 3.4,-3.2 -0.6,4.6 -3.1,10.8 1.2,14.5 3.1,3.6 8.2,4.1 12.6,3.2 2.8,-0.8 5.4,-2.1 8.2,-3 0,0.9 -0.1,2.5 -0.1,3.4 -5.4,3 -12.1,3.4 -17.9,1.4 -6.4,-2.2 -10,-10.1 -7.4,-16.3 z"
   id="path122" />
	<path
   fill="#ffffff"
   d="m 615.9,418.3 c 6.2,-0.4 12.4,1.3 16.7,5.7 2.3,2.5 4.9,5 7.2,7.6 -2.2,0.6 -4.4,1.4 -6.6,1.9 -4.8,-1 -9.3,-4 -10.2,-9.1 1.8,1.8 4.4,6.8 6.6,2.9 -2.6,-1.5 -4.7,-3.8 -5.9,-6.6 -2.8,0.3 -5.5,-0.8 -7.8,-2.4 z"
   id="path124" />
	<g
   id="g134">
		<g
   id="g128">
			<path
   fill="#ffffff"
   d="m 360.2,420.1 c -0.1,-2.2 -0.4,-5 -2.8,-6.1 -6.1,-3.6 -13.5,-2.6 -20.1,-1.1 0,1.2 0,2.5 -0.1,3.8 4.6,-1.5 9.3,-3.2 14.1,-2.5 0.2,0.9 0.4,1.8 0.7,2.5 0.9,0.3 1.8,0.7 2.7,0.9 -0.9,0.2 -2.8,0.6 -3.6,0.8 1.1,0.4 2.3,1 3.4,1.4 -1.2,0.4 -2.3,0.8 -3.5,1.3 0.9,0.1 2.8,0.4 3.6,0.6 -1.2,0.8 -2.3,1.4 -3.4,2.3 1.2,0.4 2.4,0.9 3.5,1.4 -0.9,0.1 -2.7,0.6 -3.5,0.7 1.1,0.6 2.2,1 3.4,1.4 -1.2,0.3 -2.4,0.8 -3.6,1.2 0.9,0.2 2.8,0.4 3.8,0.7 l -3.6,1.7 c 0.9,0.1 2.7,0.3 3.5,0.4 -1.4,0.9 -2.9,1.8 -4.2,2.6 0.3,-6.5 0.2,-13 0.1,-19.7 -0.6,0 -1.8,0.1 -2.4,0.1 0.1,2.2 0.1,4.4 0.1,6.6 -5,0.3 -12.3,-2.2 -15.1,3.3 1.8,0.1 3.4,0.2 5.2,0.3 -1.2,0.6 -2.4,1.1 -3.5,1.7 1.1,0.3 2.3,0.7 3.5,1.1 -1.5,0.1 -3,0.1 -4.5,0.2 v 1.2 c 1.5,0.2 3,0.4 4.5,0.7 -1.5,0.1 -3,0.2 -4.5,0.3 v 1.3 c 1.4,0.1 3,0.3 4.4,0.4 -1.4,0.4 -3,1 -4.4,1.4 -1,-2.7 -0.6,-5.5 -0.2,-8.2 -3.9,0.4 -3.8,5.1 -2.7,7.8 1.3,3 4.6,4.2 7.6,4.7 3.5,0.9 6.8,-1.8 10.4,-0.8 4,0.7 8,0.4 11.9,0.4 -0.8,-5.3 -0.5,-11 -0.7,-16.8 z m -12.5,13 c -1.2,1.1 -2.8,1.4 -4.2,2.1 -0.2,-3.9 -0.2,-7.7 0.1,-11.5 1.4,0.1 2.9,0.1 4.3,0.2 0.3,3.1 0.7,6.2 -0.2,9.2 z"
   id="path126" />
		</g>
		<g
   id="g132">
			<path
   fill="#ffffff"
   d="m 360.2,420.1 c -0.1,-2.2 -0.4,-5 -2.8,-6.1 -6.1,-3.6 -13.5,-2.6 -20.1,-1.1 0,1.2 0,2.5 -0.1,3.8 4.6,-1.5 9.3,-3.2 14.1,-2.5 0.2,0.9 0.4,1.8 0.7,2.5 0.9,0.3 1.8,0.7 2.7,0.9 -0.9,0.2 -2.8,0.6 -3.6,0.8 1.1,0.4 2.3,1 3.4,1.4 -1.2,0.4 -2.3,0.8 -3.5,1.3 0.9,0.1 2.8,0.4 3.6,0.6 -1.2,0.8 -2.3,1.4 -3.4,2.3 1.2,0.4 2.4,0.9 3.5,1.4 -0.9,0.1 -2.7,0.6 -3.5,0.7 1.1,0.6 2.2,1 3.4,1.4 -1.2,0.3 -2.4,0.8 -3.6,1.2 0.9,0.2 2.8,0.4 3.8,0.7 l -3.6,1.7 c 0.9,0.1 2.7,0.3 3.5,0.4 -1.4,0.9 -2.9,1.8 -4.2,2.6 0.3,-6.5 0.2,-13 0.1,-19.7 -0.6,0 -1.8,0.1 -2.4,0.1 0.1,2.2 0.1,4.4 0.1,6.6 -5,0.3 -12.3,-2.2 -15.1,3.3 1.8,0.1 3.4,0.2 5.2,0.3 -1.2,0.6 -2.4,1.1 -3.5,1.7 1.1,0.3 2.3,0.7 3.5,1.1 -1.5,0.1 -3,0.1 -4.5,0.2 v 1.2 c 1.5,0.2 3,0.4 4.5,0.7 -1.5,0.1 -3,0.2 -4.5,0.3 v 1.3 c 1.4,0.1 3,0.3 4.4,0.4 -1.4,0.4 -3,1 -4.4,1.4 -1,-2.7 -0.6,-5.5 -0.2,-8.2 -3.9,0.4 -3.8,5.1 -2.7,7.8 1.3,3 4.6,4.2 7.6,4.7 3.5,0.9 6.8,-1.8 10.4,-0.8 4,0.7 8,0.4 11.9,0.4 -0.8,-5.3 -0.5,-11 -0.7,-16.8 z m -12.5,13 c -1.2,1.1 -2.8,1.4 -4.2,2.1 -0.2,-3.9 -0.2,-7.7 0.1,-11.5 1.4,0.1 2.9,0.1 4.3,0.2 0.3,3.1 0.7,6.2 -0.2,9.2 z"
   id="path130" />
		</g>
	</g>
	<path
   fill="#ffffff"
   d="m 644.4,429.5 c 1.4,0.9 2.1,4.2 1.9,6 -2.4,-0.2 -2.5,-4.2 -1.9,-6 z"
   id="path136" />
	<path
   fill="#ffffff"
   d="m 650.7,438.6 c 7.2,2.2 9.3,11.2 7.3,17.7 -1.2,4.5 -4.5,8.1 -8.5,10.2 -3.6,-0.2 -6.1,-3.2 -8.4,-5.5 -3.1,-2.8 -6.4,-5.3 -9.1,-8.4 0.7,0 2,0.2 2.7,0.3 1.5,1.9 2.9,4.1 5.1,5.1 1.9,0.6 4,0.6 5.9,0.8 -2.1,-4.6 -6.2,-8 -9.9,-11.3 -3.9,-3.4 -8.9,-5 -13,-8 9.5,2.2 18.3,7.7 23.9,15.9 1.5,2.2 0.2,5 0.1,7.4 4.6,-1.2 7,-6 7.5,-10.5 0.6,-4.9 -1.3,-9.6 -3.6,-13.7 z"
   id="path138" />
	<path
   fill="#ffffff"
   d="m 643.4,442.3 c 1.8,-0.6 2.4,0 1.8,1.8 -1.8,0.6 -2.5,-0.1 -1.8,-1.8 z"
   id="path140" />
	<path
   fill="#ffffff"
   d="m 369.9,473.4 c 2,-3.1 4.5,-5.7 7.1,-8.5 2.1,0.6 4.1,1.4 6.1,2.6 -4.3,2.5 -8.7,4.2 -13.2,5.9 z"
   id="path142" />
	<path
   fill="#ffffff"
   d="m 423.2,409.3 c 2,-3.1 4.5,-5.7 7.1,-8.5 2.1,0.6 4.1,1.4 6.1,2.6 -4.3,2.5 -8.7,4.3 -13.2,5.9 z"
   id="path144" />
	<path
   fill="#ffffff"
   d="m 137.6,470.5 c 6.5,-6.4 17.2,-5.3 24.3,-0.6 -0.3,1.4 -0.7,2.9 -1,4.3 -3.1,-1.9 -6.2,-4.1 -9.7,-4.9 -4.3,-0.9 -9.2,0.2 -12.2,3.6 -2.9,3 -3.1,8.4 0.2,11.3 5.7,4 12.9,5.4 18.9,9.1 0,0.4 0,1.4 0.1,1.9 -6.5,-1.9 -12.8,-4.8 -19,-7.6 -6.2,-3.2 -6.3,-12.5 -1.6,-17.1 z"
   id="path146" />
	<path
   fill="#ffffff"
   d="m 139,473 c 6.7,3 13.8,5.3 20.2,8.7 6.2,3.5 5,12.9 -0.1,17 -7.1,6.5 -18,4.2 -25.6,-0.3 0.4,-1.4 1,-3 1.4,-4.4 4.5,2.4 8.7,6.3 14.2,5.6 4.6,0.6 9.5,-2.2 10.9,-6.7 -1.3,-0.7 -2.5,-1.2 -3.9,-1.9 -0.7,-0.4 -1.3,-1 -2,-1.4 -0.6,0 -1.8,0 -2.4,0 0.9,-1.4 1.7,-2.9 2.5,-4.2 -0.9,0.4 -1.9,0.9 -2.9,1.2 -0.1,-0.4 -0.4,-1.4 -0.6,-2 -0.9,1.2 -1.4,3.2 -3.3,3 0.2,-0.7 0.6,-1.9 0.8,-2.4 0.1,-0.1 0.3,-0.3 0.3,-0.4 0,0.1 -0.2,0.3 -0.3,0.4 -0.7,0.4 -2.1,1.3 -2.9,1.9 0.3,-1.4 0.7,-2.8 1,-4.1 -0.9,1 -1.8,1.9 -2.8,2.9 -0.1,-0.6 -0.3,-1.5 -0.4,-2.1 -0.3,0.1 -1.1,0.1 -1.4,0.2 -0.9,-0.4 -1.8,-0.9 -2.8,-1.1 -1.8,-3.1 -1.3,-6.7 0.1,-9.9 z"
   id="path148" />
	<path
   fill="#ffffff"
   d="m 199.9,476.8 c 4.5,-0.4 9.2,-0.9 13.4,0.9 4.3,-1.1 9.1,-2.7 13.1,0.1 6.6,4.9 6.5,14.6 2.3,21.1 -2.3,-0.1 -4.6,-0.1 -7,-0.2 0.6,-0.3 1.5,-1.1 2,-1.5 -0.3,-0.2 -1,-0.8 -1.3,-1.1 0.3,-0.8 0.6,-1.5 0.9,-2.3 -0.2,-0.4 -0.8,-1.3 -1,-1.8 0.8,0 2.2,-0.1 3,-0.1 -1.2,-0.6 -2.4,-1.2 -3.5,-1.8 1.5,-0.2 3,-0.3 4.5,-0.4 V 489 c -1.4,-0.1 -2.8,-0.1 -4.2,-0.1 v -1.1 c 1.5,-0.2 3,-0.3 4.5,-0.6 -1.5,-0.3 -3.2,-0.8 -4.9,-1.1 0.3,-1.9 2.1,-2.8 2.9,-4.3 -0.4,-0.2 -1.2,-0.9 -1.7,-1.1 -1.5,-5 -7.4,-0.9 -10.2,0.8 -0.1,5.6 -0.7,11.2 -0.1,16.7 1.2,1.9 3.9,1.8 5.7,2.7 0.4,-7.1 0.1,-14.3 0.1,-21.3 0.8,0 2.1,0 2.9,0 0,6.6 0,13.3 -0.1,19.9 1.9,0.2 3.8,0.4 5.6,0.7 -4,3.6 -9.7,2.8 -14.5,1.3 0.1,3.3 0.2,6.5 0.1,9.8 -3,0 -5.9,-0.1 -8.7,-0.4 1.2,-0.7 2.5,-1.1 3.8,-1.7 -1.1,-0.2 -2.3,-0.4 -3.4,-0.7 0.3,-1.8 0.8,-3.4 1.4,-5.1 -0.3,-0.3 -0.9,-0.9 -1.2,-1.2 1.1,-0.2 2.1,-0.4 3.2,-0.7 -1.2,-0.3 -2.5,-0.8 -3.8,-1.3 1,-0.1 3,-0.6 4,-0.8 -1.2,-0.3 -2.5,-0.8 -3.8,-1.2 1.2,-0.3 2.3,-0.8 3.5,-1.1 -1.1,-0.2 -2.3,-0.6 -3.4,-0.8 0.4,-1.7 0.9,-3.4 1.5,-5 -0.4,-0.3 -1.1,-1 -1.4,-1.3 0.8,-0.1 2.5,-0.3 3.3,-0.4 -1.2,-0.4 -2.4,-1 -3.6,-1.5 1,-0.2 2.9,-0.6 3.9,-0.8 -1.2,-0.3 -2.4,-0.7 -3.8,-1 0.1,-2.2 1.5,-3.5 3.3,-4.5 -1.2,-0.4 -2.3,-0.9 -3.4,-1.3 1.3,-0.4 2.5,-0.8 3.9,-1.2 -2.5,-0.6 -7.7,1.5 -7.8,-2.5 z"
   id="path150" />
	<path
   fill="#ffffff"
   d="m 268.4,476.6 c 4.3,0.3 9.4,-1.4 13,1.5 1.4,-0.2 3,-0.4 4.4,-0.6 -1.7,1.9 -3.6,3.5 -5.4,5.2 3.2,-1.4 5.9,-3.8 8,-6.6 0.3,2.9 0.4,5.7 0.4,8.6 -2.8,0.1 -6,-1 -8.3,0.9 -0.6,4.3 -0.1,8.7 0.1,13.1 -3.2,0.1 -6.3,0.1 -9.4,-0.3 1.2,-0.6 2.5,-1 3.8,-1.5 -1,-0.1 -2.1,-0.3 -3.2,-0.6 0.1,-1.4 0.1,-2.8 0.2,-4.2 1,-0.2 2,-0.4 3,-0.7 -1.2,-0.3 -2.4,-0.8 -3.6,-1.1 1.3,-0.4 2.6,-0.9 4,-1.2 -1,-0.2 -3.1,-0.7 -4.1,-0.9 1.7,-0.6 3.3,-0.9 5.1,-1.2 -1.5,-0.2 -3.1,-0.4 -4.5,-0.7 0,-0.8 0.1,-2.2 0.2,-3 1,-0.4 2,-1 3,-1.4 -1.2,-0.6 -2.3,-1.1 -3.5,-1.7 1.2,-0.4 2.4,-0.9 3.6,-1.2 -2.2,0 -4.5,0 -6.7,0 -0.1,-0.5 -0.1,-1.8 -0.1,-2.4 z"
   id="path152" />
	<path
   fill="#ffffff"
   d="m 345.8,476.7 c 4.1,-0.1 8.4,-1 12.4,0.8 1.5,0.7 3.3,0.3 5,0.3 -1.3,1.4 -2.5,3 -3.8,4.4 3.1,-1.2 4.3,-4.5 7.1,-6 0.1,2.9 0.1,5.9 0.1,8.7 -2.7,0.2 -6.4,-1.7 -8.3,0.9 -0.6,4.3 -0.1,8.6 -0.2,12.9 -2.9,0.1 -5.9,0 -8.7,-0.3 1.3,-0.7 2.7,-1.2 4.2,-1.4 -1.2,-0.2 -2.4,-0.4 -3.5,-0.7 -0.2,-1.4 -0.4,-2.9 -0.6,-4.4 1.3,-0.1 2.8,-0.3 4.1,-0.6 -1.4,-0.1 -2.9,-0.2 -4.3,-0.3 v -1.1 c 1.4,-0.2 2.9,-0.4 4.3,-0.6 -1.4,-0.4 -2.8,-1 -4.1,-1.4 1.1,-0.2 3.2,-0.6 4.2,-0.8 -1.5,-0.3 -3.1,-0.7 -4.5,-1 0.9,-1.5 1.9,-3 2.9,-4.5 -1,-0.4 -2.1,-1 -3,-1.5 1.4,-0.3 3,-0.6 4.5,-0.9 -2.5,-0.1 -5.1,-0.1 -7.7,-0.2 -0.1,-0.5 -0.1,-1.8 -0.1,-2.3 z"
   id="path154" />
	<path
   fill="#ffffff"
   d="m 369.1,476.8 c 4.1,-0.7 8.2,-0.3 12.2,-0.2 -0.6,7.3 -0.7,14.7 -0.3,22.1 -3.1,0.2 -6.1,0.2 -9.2,-0.1 1.2,-0.6 2.4,-1.1 3.8,-1.7 -1,-0.1 -2,-0.3 -3,-0.6 0.3,-0.9 0.7,-1.8 1,-2.7 -0.2,-0.4 -0.7,-1.2 -1,-1.5 1,-0.2 2,-0.4 2.9,-0.6 -1.2,-0.6 -2.4,-1 -3.5,-1.5 1.5,-0.2 3.3,-0.4 5,-0.6 -1.7,-0.4 -3.3,-0.9 -4.9,-1.5 1.5,-0.3 3.2,-0.7 4.9,-1 -1.5,-0.2 -3.1,-0.4 -4.6,-0.6 0.1,-0.8 0.3,-2.2 0.4,-2.9 0.9,-0.6 1.9,-1.1 2.8,-1.7 -1.1,-0.4 -2.2,-1 -3.2,-1.5 1.1,-0.4 2.3,-0.9 3.4,-1.2 -2.3,0 -4.7,0 -7.1,-0.1 0,-0.4 0.3,-1.5 0.4,-2.1 z"
   id="path156" />
	<g
   id="g166">
		<g
   id="g160">
			<path
   fill="#ffffff"
   d="m 195.6,484.3 c -4.2,-9.4 -18.1,-10.7 -25.4,-4.2 -1,2.2 1.9,2.1 3.2,2.7 -0.3,0.2 -0.9,0.7 -1.2,1 -1.3,-0.2 -2.5,-1 -4,-0.7 -3.2,4.5 -2.5,11.2 1.5,14.9 4.6,5 12.4,5.5 18.4,3.3 6.6,-2.4 10.9,-10.5 7.5,-17 z M 184.3,500 c -5.5,0.7 -11.8,-1.2 -14.5,-6.4 -0.6,-2.5 -0.4,-5.2 -0.7,-7.8 1.9,0.4 3.8,1 5.5,1.4 -1.8,0.2 -3.4,0.4 -5.2,0.7 1.7,0.8 3.4,1.2 5.2,1.7 -1.5,0.1 -3.1,0.2 -4.7,0.3 l 0.1,1.4 c 1.3,0.1 2.7,0.1 3.9,0.1 -0.3,1.7 -0.8,3.3 -1.1,5 1.9,1.2 3.9,2.2 6,2.8 0.2,-6.7 -0.1,-13.5 0.4,-20.2 h 5.1 c 0.3,6.9 0.3,13.9 0,21 z"
   id="path158" />
		</g>
		<g
   id="g164">
			<path
   fill="#ffffff"
   d="m 195.6,484.3 c -4.2,-9.4 -18.1,-10.7 -25.4,-4.2 -1,2.2 1.9,2.1 3.2,2.7 -0.3,0.2 -0.9,0.7 -1.2,1 -1.3,-0.2 -2.5,-1 -4,-0.7 -3.2,4.5 -2.5,11.2 1.5,14.9 4.6,5 12.4,5.5 18.4,3.3 6.6,-2.4 10.9,-10.5 7.5,-17 z M 184.3,500 c -5.5,0.7 -11.8,-1.2 -14.5,-6.4 -0.6,-2.5 -0.4,-5.2 -0.7,-7.8 1.9,0.4 3.8,1 5.5,1.4 -1.8,0.2 -3.4,0.4 -5.2,0.7 1.7,0.8 3.4,1.2 5.2,1.7 -1.5,0.1 -3.1,0.2 -4.7,0.3 l 0.1,1.4 c 1.3,0.1 2.7,0.1 3.9,0.1 -0.3,1.7 -0.8,3.3 -1.1,5 1.9,1.2 3.9,2.2 6,2.8 0.2,-6.7 -0.1,-13.5 0.4,-20.2 h 5.1 c 0.3,6.9 0.3,13.9 0,21 z"
   id="path162" />
		</g>
	</g>
	<g
   id="g176">
		<g
   id="g170">
			<path
   fill="#ffffff"
   d="m 255.4,496.6 c 2.3,-0.1 5,0.9 7.1,-0.6 2.4,-2.8 2.7,-7 1.7,-10.4 -2.5,-8.2 -12.9,-11.6 -20.4,-8.6 -7.6,2.3 -12.5,12 -8,19.1 5.9,7.7 19,9.1 25.5,1.5 -2.3,-0.2 -4.5,-0.4 -6.7,-0.6 0,-5.9 -0.2,-11.7 0.1,-17.6 1.3,2 1.1,4.4 1,6.6 1.4,0.3 2.9,0.7 4.2,1 -1.4,0.2 -3,0.3 -4.5,0.4 v 1 c 1.5,0.2 3.1,0.3 4.5,0.6 -1.4,0.2 -2.8,0.6 -4.2,0.8 -0.1,2.4 -0.2,4.6 -0.3,6.8 z m -3.9,4 c -4.6,-0.3 -9.8,-1.1 -12.8,-5.2 -3.4,-4.1 -2,-10.6 1.9,-13.8 -0.6,1.5 -1.2,3.2 -1.9,4.8 1.1,0.3 2.3,0.6 3.4,0.9 -1.7,0.2 -3.3,0.4 -5.1,0.7 1.4,0.9 3.1,1.1 4.7,1.2 l -0.1,0.4 c -1.5,0.2 -3.3,0.1 -4.6,1.3 1,0.1 2.9,0.3 3.8,0.4 -0.9,0.6 -1.7,1.2 -2.5,1.9 2.1,2.9 4.6,5.5 8.3,6.1 0.2,-6.8 0.1,-13.6 0.1,-20.3 2,-0.1 4,-0.1 6,-0.2 -1.1,7.2 0,14.6 -1.2,21.8 z"
   id="path168" />
		</g>
		<g
   id="g174">
			<path
   fill="#ffffff"
   d="m 255.4,496.6 c 2.3,-0.1 5,0.9 7.1,-0.6 2.4,-2.8 2.7,-7 1.7,-10.4 -2.5,-8.2 -12.9,-11.6 -20.4,-8.6 -7.6,2.3 -12.5,12 -8,19.1 5.9,7.7 19,9.1 25.5,1.5 -2.3,-0.2 -4.5,-0.4 -6.7,-0.6 0,-5.9 -0.2,-11.7 0.1,-17.6 1.3,2 1.1,4.4 1,6.6 1.4,0.3 2.9,0.7 4.2,1 -1.4,0.2 -3,0.3 -4.5,0.4 v 1 c 1.5,0.2 3.1,0.3 4.5,0.6 -1.4,0.2 -2.8,0.6 -4.2,0.8 -0.1,2.4 -0.2,4.6 -0.3,6.8 z m -3.9,4 c -4.6,-0.3 -9.8,-1.1 -12.8,-5.2 -3.4,-4.1 -2,-10.6 1.9,-13.8 -0.6,1.5 -1.2,3.2 -1.9,4.8 1.1,0.3 2.3,0.6 3.4,0.9 -1.7,0.2 -3.3,0.4 -5.1,0.7 1.4,0.9 3.1,1.1 4.7,1.2 l -0.1,0.4 c -1.5,0.2 -3.3,0.1 -4.6,1.3 1,0.1 2.9,0.3 3.8,0.4 -0.9,0.6 -1.7,1.2 -2.5,1.9 2.1,2.9 4.6,5.5 8.3,6.1 0.2,-6.8 0.1,-13.6 0.1,-20.3 2,-0.1 4,-0.1 6,-0.2 -1.1,7.2 0,14.6 -1.2,21.8 z"
   id="path172" />
		</g>
	</g>
	<g
   id="g186">
		<g
   id="g180">
			<path
   fill="#ffffff"
   d="m 334,487.3 c -0.1,-2.2 -0.2,-4.4 -0.1,-6.7 0.6,2 0.8,4 1,6.1 h 6.8 c -1.7,-11.3 -18.2,-14 -25,-5.9 1.1,0.6 2.2,1 3.3,1.5 -1.1,1.3 -2.2,2.5 -3.2,3.9 1.5,0.3 3.2,0.7 4.9,1 -1.7,0.2 -3.3,0.3 -5,0.4 v 1.1 c 1.7,0.1 3.3,0.2 5,0.4 -2,0.3 -3.9,0.6 -5.7,0.8 l -0.1,1.3 c 2,0 3.9,0.1 5.7,0.2 -1.1,0.2 -3.2,0.8 -4.3,1 1.2,0.7 2.5,1.2 3.9,1.5 -0.7,0.6 -1.4,1.1 -2.1,1.7 1.8,1.9 4.1,3.3 6.8,3.4 0.1,-3.1 0.1,-6.2 0.2,-9.3 5.4,-0.2 10.9,0.1 16.5,-0.2 -1,-3.5 -5.8,-1.5 -8.6,-2.2 z m -2.9,0.1 h -5 v -8.5 c 1.7,0.1 3.4,0.1 5.1,0.1 0,2.8 -0.1,5.5 -0.1,8.4 z"
   id="path178" />
		</g>
		<g
   id="g184">
			<path
   fill="#ffffff"
   d="m 334,487.3 c -0.1,-2.2 -0.2,-4.4 -0.1,-6.7 0.6,2 0.8,4 1,6.1 h 6.8 c -1.7,-11.3 -18.2,-14 -25,-5.9 1.1,0.6 2.2,1 3.3,1.5 -1.1,1.3 -2.2,2.5 -3.2,3.9 1.5,0.3 3.2,0.7 4.9,1 -1.7,0.2 -3.3,0.3 -5,0.4 v 1.1 c 1.7,0.1 3.3,0.2 5,0.4 -2,0.3 -3.9,0.6 -5.7,0.8 l -0.1,1.3 c 2,0 3.9,0.1 5.7,0.2 -1.1,0.2 -3.2,0.8 -4.3,1 1.2,0.7 2.5,1.2 3.9,1.5 -0.7,0.6 -1.4,1.1 -2.1,1.7 1.8,1.9 4.1,3.3 6.8,3.4 0.1,-3.1 0.1,-6.2 0.2,-9.3 5.4,-0.2 10.9,0.1 16.5,-0.2 -1,-3.5 -5.8,-1.5 -8.6,-2.2 z m -2.9,0.1 h -5 v -8.5 c 1.7,0.1 3.4,0.1 5.1,0.1 0,2.8 -0.1,5.5 -0.1,8.4 z"
   id="path182" />
		</g>
	</g>
	<path
   fill="#ffffff"
   d="m 200.8,479.2 c 0.7,0.6 2,1.4 2.7,1.9 0.6,10.2 0.1,20.3 0.2,30.5 3,0.1 6.1,-0.2 9.1,0.4 0.1,0.6 0.6,1.4 0.7,2 -4.4,0.3 -8.8,0.3 -13.3,0.2 1,-11.7 0.3,-23.3 0.6,-35 z"
   id="path188" />
	<path
   fill="#ffffff"
   d="m 268.6,479.5 c 0.6,0.1 1.7,0.3 2.2,0.6 0.6,6.4 0,13 0.2,19.4 3.2,0.1 6.4,0.2 9.6,0.3 0,0.6 0,1.5 0,2.1 -4,0 -8.1,0 -12.2,0 0,-7.5 0,-15 0.2,-22.4 z"
   id="path190" />
	<path
   fill="#ffffff"
   d="m 346,479.9 c 0.6,-0.1 1.5,-0.2 2.1,-0.2 0.4,6.6 0.1,13.3 0.2,19.8 3.4,0.1 6.8,0.2 10.3,0.3 -0.2,0.4 -0.6,1.4 -0.8,2 -4,0.7 -8.1,0.3 -12,0.2 -0.2,-7.4 0.5,-14.8 0.2,-22.1 z"
   id="path192" />
	<path
   fill="#ffffff"
   d="m 368.9,479.5 c 0.6,0.1 1.8,0.3 2.4,0.4 0.6,6.5 0.1,13.1 0.2,19.7 3.3,0 6.7,0.1 10.2,0.2 -0.3,1.4 -1.3,2.2 -2.8,2.1 -3.3,0.3 -6.7,0 -10.1,-0.1 0.1,-7.4 0.1,-14.9 0.1,-22.3 z"
   id="path194" />
	<path
   fill="#ffffff"
   d="m 312.8,489.8 c 0,-3 0.8,-7.1 4.4,-7.3 -1.1,3.6 -3.1,7.7 -0.8,11.5 2.6,6.1 10.2,6.3 15.7,5.3 3.1,-1.2 5.7,-3.3 8.9,-4.1 0,0.8 0,2.3 0,3.1 -5.7,4.1 -13.4,5.6 -20,3 -4.5,-1.9 -8.5,-6.3 -8.2,-11.5 z"
   id="path196" />
	<path
   fill="#ffffff"
   d="m 148.4,485.2 c 0.1,-0.1 0.3,-0.3 0.3,-0.4 0.1,0.1 -0.2,0.3 -0.3,0.4 z"
   id="path198" />
	<g
   id="g208">
		<g
   id="g202">
			<path
   fill="#ffffff"
   d="m 304.7,499.9 c -0.8,-6.5 -0.9,-13 -0.7,-19.5 2.2,-0.1 4.3,-0.1 6.5,-0.4 1.9,-4.1 -4,-3.1 -6.4,-3.6 v -6.6 c -4.1,-0.1 -8.2,-0.2 -12.1,0.3 1.3,2.7 5,1.3 7.4,1.8 -1.3,0.8 -2.7,1.5 -4,2.3 1,0.2 3.1,0.4 4.1,0.7 -1.3,0.4 -2.8,0.9 -4.1,1.4 1.4,0.4 2.8,0.8 4.2,1.2 -1,0.1 -3,0.2 -4,0.3 v 1 c 1,0.2 3,0.6 3.9,0.8 -1.7,0.1 -3.3,0.1 -5,0.2 0,-2.3 -0.1,-4.7 -0.3,-7 -1.7,1.7 -3.2,3.4 -4.6,5.3 -0.9,2 1.4,2.1 2.8,2.6 0.1,5.3 -0.3,10.5 -0.1,15.8 -0.1,2.9 2.3,4.7 4.7,5.6 4.9,1.1 9.8,0.3 14.5,-1.3 0.1,-0.8 0.2,-2.3 0.2,-3.1 -2.3,0.8 -4.7,1.5 -7,2.2 z m -9.1,-13.2 c 0.7,-1 3.4,-1 3.2,0.6 -0.8,0.9 -3.5,1 -3.2,-0.6 z m -0.5,-1.5 c 0.1,-1.3 0.2,-2.5 0.3,-3.9 1.3,0 2.7,0.1 4,0.1 -1.4,1.3 -3,2.5 -4.3,3.8 z"
   id="path200" />
		</g>
		<g
   id="g206">
			<path
   fill="#ffffff"
   d="m 304.7,499.9 c -0.8,-6.5 -0.9,-13 -0.7,-19.5 2.2,-0.1 4.3,-0.1 6.5,-0.4 1.9,-4.1 -4,-3.1 -6.4,-3.6 v -6.6 c -4.1,-0.1 -8.2,-0.2 -12.1,0.3 1.3,2.7 5,1.3 7.4,1.8 -1.3,0.8 -2.7,1.5 -4,2.3 1,0.2 3.1,0.4 4.1,0.7 -1.3,0.4 -2.8,0.9 -4.1,1.4 1.4,0.4 2.8,0.8 4.2,1.2 -1,0.1 -3,0.2 -4,0.3 v 1 c 1,0.2 3,0.6 3.9,0.8 -1.7,0.1 -3.3,0.1 -5,0.2 0,-2.3 -0.1,-4.7 -0.3,-7 -1.7,1.7 -3.2,3.4 -4.6,5.3 -0.9,2 1.4,2.1 2.8,2.6 0.1,5.3 -0.3,10.5 -0.1,15.8 -0.1,2.9 2.3,4.7 4.7,5.6 4.9,1.1 9.8,0.3 14.5,-1.3 0.1,-0.8 0.2,-2.3 0.2,-3.1 -2.3,0.8 -4.7,1.5 -7,2.2 z m -9.1,-13.2 c 0.7,-1 3.4,-1 3.2,0.6 -0.8,0.9 -3.5,1 -3.2,-0.6 z m -0.5,-1.5 c 0.1,-1.3 0.2,-2.5 0.3,-3.9 1.3,0 2.7,0.1 4,0.1 -1.4,1.3 -3,2.5 -4.3,3.8 z"
   id="path204" />
		</g>
	</g>
	<g
   id="g218">
		<g
   id="g212">
			<path
   fill="#ffffff"
   d="m 415.2,499.8 c -3.2,-0.1 -6.4,-0.2 -9.6,-0.2 0.1,-2.7 0.1,-5.3 0.3,-7.8 0.3,1.5 0.6,3.1 0.8,4.7 1.1,0.1 2.1,0.3 3.2,0.6 -1.4,0.3 -2.8,0.8 -4,1.4 2.9,0.3 5.9,0.3 8.7,0.3 -0.1,-5.9 0.3,-11.7 -0.3,-17.6 -1.2,-2.5 -4,-4 -6.6,-4.5 -5.2,-1.1 -10.6,-0.4 -15.7,0.9 0.1,0.9 0.2,2.7 0.2,3.5 5.1,-1.8 11.9,-4.2 16.1,0.7 -0.9,1.3 -1.7,2.8 -2.2,4.3 1.3,0.4 2.5,0.9 3.9,1.4 h -4.2 c -0.6,-2.9 1.7,-8.4 -2.9,-8.1 -0.1,2.2 -0.1,4.5 -0.1,6.8 -5.1,-1.2 -11.5,-1.9 -15.5,2.4 2,0.1 4,0.2 6,0.2 -1.1,0.6 -2.3,1 -3.5,1.5 0.6,0.3 1.8,0.9 2.3,1.2 -0.9,0.1 -2.5,0.2 -3.4,0.3 0,1.5 -0.1,3.1 -0.1,4.6 h 4.6 c -0.9,0.7 -1.8,1.3 -2.7,2 2.4,0.1 4.9,0.2 7.3,0.2 0.1,-3.4 0.1,-6.8 0.2,-10.3 1.7,0.1 3.2,0.2 4.9,0.3 -0.2,3.5 1.4,9.3 -3.4,10.2 -3.9,0.7 -9.5,1.5 -11.6,-2.8 -1.4,-2.2 0.2,-4.6 0.9,-6.7 -0.8,0.1 -2.4,0.2 -3.2,0.2 -1.1,3.4 -1.5,8 1.9,10.3 4,3.1 9.1,2 13.7,1.4 4.6,0.1 9.4,0.4 14.1,0.2 0,-0.1 0,-1.1 -0.1,-1.6 z m -6,-10.2 c -0.8,0.9 -3.5,1 -3.3,-0.7 0.8,-0.8 3.5,-0.9 3.3,0.7 z"
   id="path210" />
		</g>
		<g
   id="g216">
			<path
   fill="#ffffff"
   d="m 415.2,499.8 c -3.2,-0.1 -6.4,-0.2 -9.6,-0.2 0.1,-2.7 0.1,-5.3 0.3,-7.8 0.3,1.5 0.6,3.1 0.8,4.7 1.1,0.1 2.1,0.3 3.2,0.6 -1.4,0.3 -2.8,0.8 -4,1.4 2.9,0.3 5.9,0.3 8.7,0.3 -0.1,-5.9 0.3,-11.7 -0.3,-17.6 -1.2,-2.5 -4,-4 -6.6,-4.5 -5.2,-1.1 -10.6,-0.4 -15.7,0.9 0.1,0.9 0.2,2.7 0.2,3.5 5.1,-1.8 11.9,-4.2 16.1,0.7 -0.9,1.3 -1.7,2.8 -2.2,4.3 1.3,0.4 2.5,0.9 3.9,1.4 h -4.2 c -0.6,-2.9 1.7,-8.4 -2.9,-8.1 -0.1,2.2 -0.1,4.5 -0.1,6.8 -5.1,-1.2 -11.5,-1.9 -15.5,2.4 2,0.1 4,0.2 6,0.2 -1.1,0.6 -2.3,1 -3.5,1.5 0.6,0.3 1.8,0.9 2.3,1.2 -0.9,0.1 -2.5,0.2 -3.4,0.3 0,1.5 -0.1,3.1 -0.1,4.6 h 4.6 c -0.9,0.7 -1.8,1.3 -2.7,2 2.4,0.1 4.9,0.2 7.3,0.2 0.1,-3.4 0.1,-6.8 0.2,-10.3 1.7,0.1 3.2,0.2 4.9,0.3 -0.2,3.5 1.4,9.3 -3.4,10.2 -3.9,0.7 -9.5,1.5 -11.6,-2.8 -1.4,-2.2 0.2,-4.6 0.9,-6.7 -0.8,0.1 -2.4,0.2 -3.2,0.2 -1.1,3.4 -1.5,8 1.9,10.3 4,3.1 9.1,2 13.7,1.4 4.6,0.1 9.4,0.4 14.1,0.2 0,-0.1 0,-1.1 -0.1,-1.6 z m -6,-10.2 c -0.8,0.9 -3.5,1 -3.3,-0.7 0.8,-0.8 3.5,-0.9 3.3,0.7 z"
   id="path214" />
		</g>
	</g>
	<path
   fill="#ffffff"
   d="m 140,528.2 c 1.7,0.2 4,-0.7 5,1.1 3.5,4.7 6.4,10.2 10.4,14.6 2.1,-3.6 4.1,-7.3 6.4,-10.7 0.9,2.1 1.4,4.3 1.9,6.5 -1.3,0.6 -2.8,1.1 -4.1,1.7 1.1,6.5 2.9,12.9 3.9,19.4 4.2,0 8.4,0 12.6,0.4 -0.2,0.4 -0.7,1.5 -0.8,2 -4.6,0.3 -9.2,-0.1 -13.8,0.1 -1.5,-5.6 -1.9,-11.5 -2.9,-17.1 -2.5,3.3 -4.5,7.1 -7,10.5 -0.8,-1.2 -2,-2.3 -2.3,-3.8 0.6,-1.4 1.4,-2.9 2.2,-4.2 -0.8,0.3 -2.2,0.9 -2.9,1.2 0.4,-1.3 0.9,-2.6 1.3,-4 -0.9,0.9 -1.9,1.8 -2.8,2.7 -1.3,-1.4 -2.8,-3 -4.1,-4.5 0.7,-1.2 1.4,-2.4 2,-3.6 0.1,-0.1 0.3,-0.3 0.3,-0.4 0,0.1 -0.2,0.3 -0.3,0.4 -0.7,0.6 -2.1,1.5 -2.9,2.1 0.3,-2 0.8,-4.1 1.1,-6.1 -1.8,-2.4 -4,-5 -3.2,-8.3 z"
   id="path220" />
	<path
   fill="#ffffff"
   d="m 163.8,528.7 c 1.3,-0.6 2.8,-0.8 4.3,-0.8 2.2,10.6 4.3,21.2 6.8,31.8 -3.6,0.2 -7.4,0.3 -11,-0.3 1.3,-0.8 2.8,-1.3 4.2,-2 -1.8,0 -3.4,-0.2 -5.1,-0.3 1.5,-1 3.3,-1.3 5.1,-1.8 -1.5,-0.1 -3.2,-0.1 -4.7,-0.2 l 0.1,-1 c 1.2,-0.3 2.4,-0.7 3.5,-1 -1.4,-0.1 -3,-0.2 -4.5,-0.3 -0.1,-1.3 -0.1,-2.8 -0.2,-4.1 1.3,-0.3 2.5,-0.7 3.9,-1 -1.8,-0.2 -3.5,-0.4 -5.3,-0.8 1.5,-0.7 3.3,-1.2 5.1,-1.5 -1.7,0 -3.3,0 -4.9,-0.1 V 544 c 1.7,-0.2 3.3,-0.3 4.9,-0.6 -1.8,-0.2 -3.5,-0.6 -5.3,-0.8 1.2,-0.8 2.4,-1.4 3.6,-2 -0.3,-3.9 -2.6,-8.1 -0.5,-11.9 z"
   id="path222" />
	<path
   fill="#ffffff"
   d="m 246.5,527.8 c 2.5,1.3 3.9,4.1 5.3,6.4 -2.2,0.8 -4.5,1.2 -6.8,1.4 1.4,-2.4 2,-5 1.5,-7.8 z"
   id="path224" />
	<path
   fill="#ffffff"
   d="m 239.1,536.8 c 1.5,-2.8 3.5,-5.5 6.6,-6.6 0.2,3.6 -3.3,6.1 -6.6,6.6 z"
   id="path226" />
	<path
   fill="#ffffff"
   d="m 574.6,534.2 c 4.1,-0.9 8.5,-0.9 12.6,0.2 2.1,-3.3 3.9,1.3 5.5,2.9 -0.2,0.7 -0.4,2 -0.6,2.6 -2.3,-0.2 -4.9,0 -7.2,-0.9 -0.8,-1.1 -1.4,-2.2 -2.1,-3.3 -2.7,-0.1 -5.5,-1 -8.2,-1.5 z"
   id="path228" />
	<path
   fill="#ffffff"
   d="m 136.4,547.9 c 1.2,-5 1.5,-10.2 3.6,-14.8 0.9,1.4 1.9,2.9 2.8,4.4 -0.7,1.4 -1.3,2.9 -2,4.3 3.3,5.2 7.1,10.2 10.2,15.6 -0.2,0.7 -0.4,2 -0.6,2.7 -4,-4.1 -6.4,-9.4 -9.8,-13.9 -1.4,5.6 -2.1,11.4 -3.1,17.1 -1.5,0 -3.1,0.1 -4.6,0.1 0.5,-5.3 2.5,-10.3 3.5,-15.5 z"
   id="path230" />
	<path
   fill="#ffffff"
   d="m 180.8,542.9 c 5.9,-9.5 23.1,-6.5 25.3,4.5 -2.5,0.1 -5,0 -7.5,-0.1 0.4,-0.3 1.3,-1.2 1.8,-1.5 -1.5,-4.2 -5.6,-6.2 -9.9,-6.2 -0.1,3 -0.1,6 -0.1,8.9 1.7,0 3.3,0 5,0 0.1,-2.5 0.2,-5 0.4,-7.4 3.3,1.2 2.3,5 2.5,7.7 2.6,-0.1 5.3,-0.1 8,-0.1 v 2.1 c -5.3,0.1 -10.5,0.2 -15.8,0.1 0,3.1 0,6.1 -0.1,9.1 -3.1,0.6 -5.4,-1.3 -7.2,-3.5 0.7,-0.3 1.9,-0.9 2.5,-1.2 -1.5,0 -3.1,0 -4.5,-0.1 l -0.1,-1.2 c 1.7,-0.1 3.2,-0.3 4.7,-0.4 -1.4,-0.3 -2.9,-0.6 -4.3,-0.7 0,-1.4 0,-2.9 0,-4.2 1.3,-0.3 2.8,-0.6 4.2,-0.7 -1.5,-0.3 -2.9,-0.9 -4.1,-1.8 1,-0.1 3,-0.2 4.1,-0.3 -0.7,-0.2 -1.9,-0.8 -2.4,-1 0.8,-0.7 1.5,-1.2 2.2,-1.8 -1.6,-0.1 -3.2,-0.1 -4.7,-0.2 z"
   id="path232" />
	<path
   fill="#ffffff"
   d="m 257.6,542.2 c 6,-5.9 15.6,-6.1 22.5,-2 1.7,0.6 0.3,4.4 -1.4,2.9 -3.4,-1.8 -7.1,-3.2 -10.9,-3.3 -0.6,7.1 0.1,14.1 -0.6,21.2 -2.9,-0.9 -5.3,-2.5 -7.7,-4.3 1.2,-0.4 2.3,-0.9 3.5,-1.3 -1.5,-0.1 -3.1,-0.1 -4.6,-0.1 V 554 c 1.5,-0.1 3.2,-0.3 4.9,-0.6 -1.9,-0.2 -3.6,-0.3 -5.5,-0.6 0.1,-1.3 0.2,-2.7 0.2,-4.1 1.8,-0.3 3.4,-0.6 5.2,-0.9 -1.8,-0.3 -3.6,-0.4 -5.1,-1.7 1.7,-0.2 3.3,-0.3 5,-0.4 -0.7,-0.2 -1.9,-0.7 -2.5,-0.9 0.8,-0.6 1.5,-1.1 2.3,-1.7 -1.9,0 -3.7,-0.4 -5.3,-0.9 z"
   id="path234" />
	<path
   fill="#ffffff"
   d="m 289.7,538.8 c 6.3,-2.2 13.6,-2.4 19.4,0.9 1.7,0.8 2.5,2.5 2.5,4.3 0.2,5.3 0,10.6 0.2,15.8 -3,0.1 -6,0.2 -8.8,-0.2 1.2,-0.9 2.5,-1.4 4.1,-1.8 -1.3,-0.3 -2.7,-0.6 -4,-0.9 1.2,-0.6 2.5,-1 3.9,-1.2 -1.3,-0.4 -2.7,-0.9 -3.9,-1.4 1,-0.2 3.1,-0.6 4.1,-0.8 -1.2,-0.3 -2.4,-0.7 -3.5,-0.9 0.3,-0.3 1.1,-1.1 1.5,-1.4 -0.4,-0.8 -1,-1.5 -1.4,-2.4 1.2,-0.3 2.3,-0.7 3.4,-1 -1,-0.2 -3.1,-0.7 -4.2,-0.9 1.2,-0.6 2.5,-0.9 4,-1.1 -1.3,-0.4 -2.7,-0.9 -3.9,-1.4 1,-0.2 3,-0.6 4,-0.8 -1,-0.3 -1.9,-0.6 -2.8,-0.9 -0.2,-0.8 -0.4,-1.5 -0.6,-2.4 -5.1,-1.1 -9.9,1 -14.8,2.1 0.4,-1 0.7,-2.7 0.8,-3.6 z"
   id="path236" />
	<path
   fill="#ffffff"
   d="m 331.3,538.9 c 5.1,-1.3 10.3,-1.9 15.5,-1.1 -0.2,7.3 -0.8,14.6 -0.4,22 -3,0 -5.9,-0.1 -8.7,-0.4 1.2,-0.7 2.4,-1.2 3.8,-1.9 -1,-0.1 -2.8,-0.3 -3.8,-0.4 1.2,-0.7 2.5,-1.1 3.8,-1.7 -1,-0.2 -2.9,-0.4 -3.9,-0.6 1.3,-0.6 2.7,-1 3.9,-1.4 -1.1,-0.3 -2.1,-0.6 -3.2,-0.9 0,-1.2 0,-2.5 0,-3.8 1.1,-0.3 2.2,-0.6 3.3,-0.8 -1.3,-0.6 -2.7,-1 -3.9,-1.5 1.2,-0.3 2.5,-0.6 3.8,-0.9 -1,-0.1 -2.9,-0.6 -3.9,-0.7 1.2,-0.6 2.5,-1 3.8,-1.3 -1.2,-0.4 -2.7,-0.8 -3.6,-1.7 1.2,-0.9 2.4,-1.7 3.6,-2.4 -4,0.9 -8.8,0.8 -11.9,3.8 -1.4,5.3 -0.4,10.9 -0.2,16.5 -3.1,0.1 -6.2,0.1 -9.3,-0.3 1.2,-0.6 2.5,-1.1 3.8,-1.5 -1.1,-0.3 -2.3,-0.6 -3.5,-0.9 1.2,-0.6 2.4,-1.1 3.5,-1.5 -0.9,-0.1 -2.8,-0.4 -3.6,-0.7 1.2,-0.4 2.4,-0.9 3.8,-1.3 -1.1,-0.3 -2.2,-0.6 -3.2,-0.8 0,-1.3 0,-2.5 0,-3.8 1.1,-0.3 2.3,-0.7 3.4,-1.1 -1,-0.2 -3,-0.7 -4,-0.9 1.2,-0.6 2.4,-1 3.8,-1.4 -1,-0.1 -2.9,-0.3 -3.9,-0.4 1.2,-0.7 2.4,-1 3.8,-1.3 -1.8,-1 -3.3,-2 -4.9,-3.2 1.5,6.5 0.7,13.3 0.9,19.8 3.1,0 6.3,0.1 9.5,0.2 0,0.8 -0.1,2.2 -0.1,3 -4,-0.1 -8,-0.1 -11.8,-0.1 -0.4,-8.3 0.1,-16.7 -0.1,-25.1 4.4,-0.7 9.2,-0.3 13.9,0.5 z"
   id="path238" />
	<path
   fill="#ffffff"
   d="m 357.2,538.8 c 6.4,-1.4 13.6,-2.8 19.7,0.7 2.1,1 3.2,3.3 3.3,5.6 0.2,4.9 0,9.8 0.1,14.7 -2.9,0.1 -5.7,0.1 -8.6,-0.1 0.9,-0.8 1.8,-1.5 2.6,-2.2 -0.8,-0.1 -2.5,-0.3 -3.4,-0.4 1.2,-0.6 2.3,-1.1 3.5,-1.7 -0.9,-0.2 -2.7,-0.6 -3.4,-0.8 1.4,-0.6 3.1,-1 4.6,-1.4 -0.9,-0.1 -2.6,-0.3 -3.5,-0.4 -0.2,-1.4 -0.4,-2.8 -0.6,-4.1 1.3,-0.3 2.8,-0.6 4.2,-0.8 -1.7,-0.3 -3.2,-0.7 -4.9,-0.9 1.1,-0.4 2.2,-0.9 3.3,-1.2 -1.1,-0.4 -2.2,-1 -3.2,-1.4 0.8,-0.1 2.5,-0.4 3.4,-0.7 -1.7,-1.1 -2.8,-3 -4.5,-3.8 -4.4,-0.4 -8.6,1.4 -12.7,2.8 0.1,-1.4 0.1,-2.7 0.1,-3.9 z"
   id="path240" />
	<path
   fill="#ffffff"
   d="m 208,538.3 c 4.6,-0.6 9.3,-0.4 14,-0.2 1.3,2.5 2.9,5.1 4.5,7.5 1.7,-2.4 3.2,-4.9 4.6,-7.4 1.5,0 3.1,0 4.6,0 -2.2,4 -6.2,6.9 -7.7,11 1.9,3.5 4.5,6.7 6.4,10.4 -3.2,0.1 -6.4,0 -9.6,-0.3 1.3,-0.7 2.6,-1.2 3.9,-1.9 -1.8,0 -3.6,0.1 -5.4,-0.4 0.9,-1 2,-1.4 3.3,-1.5 -1.7,-0.1 -3.4,-0.3 -5.1,-0.6 1.2,-0.6 2.4,-1 3.8,-1.4 -2.4,-0.6 -4.6,-1.5 -6.5,-3.2 2.2,3.2 3,7.3 5.9,9.8 4.2,0.4 8.7,-0.6 12.5,1.5 -0.2,0.3 -0.8,1.2 -1,1.6 -4.4,0.1 -8.8,0.4 -13.1,-0.2 -1.9,-2.8 -3.2,-5.9 -5.2,-8.6 -1.9,2.5 -3.5,5.2 -5.4,7.6 -1,1.8 -3.4,0.9 -5,1.1 2.3,-4.3 5.7,-8 8.8,-11.7 -1.9,-3.4 -4.3,-6.6 -6,-10.2 4.5,-0.3 5.5,5.1 7.7,8 1.4,-0.4 2.9,-0.9 4.4,-1.3 -1.8,-0.3 -3.5,-0.6 -5.3,-0.9 1.2,-0.6 2.5,-1.1 3.9,-1.7 -1.5,0.1 -3.1,0.1 -4.6,0.1 l -0.1,-1.3 c 0.9,-0.1 2.9,-0.4 3.9,-0.7 -1.8,-0.2 -3.4,-0.4 -5.1,-0.7 0.8,-0.9 1.7,-1.8 2.4,-2.6 -3.1,-0.2 -7.5,1.5 -9.5,-1.8 z"
   id="path242" />
	<path
   fill="#ffffff"
   d="m 238,538.4 c 4.3,-0.7 8.6,-0.6 12.9,-0.3 -0.7,7.2 -1.1,14.4 -0.3,21.5 -3,0.1 -6.1,0.1 -9.2,-0.3 1.2,-0.7 2.4,-1.1 3.8,-1.4 -1.2,-0.4 -2.5,-1 -3.6,-1.5 0.9,-0.1 2.8,-0.4 3.8,-0.6 -1.3,-0.4 -2.5,-1 -3.8,-1.5 1,-0.2 2.9,-0.6 3.9,-0.8 -1.1,-0.3 -2.2,-0.6 -3.3,-0.9 0,-1.3 0,-2.7 0,-3.9 1.1,-0.3 2.2,-0.6 3.3,-0.8 -1.3,-0.6 -2.6,-1 -4,-1.7 1,-0.1 2.9,-0.4 3.9,-0.6 -1.3,-0.3 -2.5,-0.6 -3.8,-0.9 1.1,-0.6 2.3,-1 3.6,-1.3 -2.8,-1 -5.3,-2.6 -7.2,-5 z"
   id="path244" />
	<path
   fill="#ffffff"
   d="m 145.1,540.4 c 0.1,-0.1 0.3,-0.3 0.3,-0.4 0.1,0.1 -0.2,0.3 -0.3,0.4 z"
   id="path246" />
	<path
   fill="#ffffff"
   d="m 300.4,540.1 c 2.2,0.7 1.7,3.2 1.9,5 0,5.2 -0.1,10.5 0,15.7 3.2,0.1 6.5,-0.2 9.6,0.6 l 0.7,1.5 c -4.8,0.7 -9.4,0.1 -14,-0.3 -4.6,0.9 -10.3,2.3 -14,-1.4 -3.2,-2.2 -4.1,-9.1 0.4,-10.2 -0.3,2.9 -1.2,6.3 1.3,8.4 3.9,3.2 9.7,2 13.5,-0.7 0.9,-2.8 0.4,-5.7 0.2,-8.5 -1.5,-0.2 -3.1,-0.4 -4.6,-0.7 -0.1,3.5 -0.1,7.1 -0.1,10.7 -2.4,0 -4.9,-0.1 -7.3,-0.4 0.9,-0.8 1.7,-1.5 2.4,-2.4 -1.4,0.1 -3,0.1 -4.5,0.2 V 556 c 1.7,-0.1 3.3,-0.2 4.9,-0.3 -1.5,-0.2 -3.2,-0.4 -4.9,-0.7 v -1.2 c 1.7,-0.1 3.2,-0.1 4.9,-0.2 -1.2,-0.4 -2.4,-0.8 -3.8,-1.1 1.2,-0.8 2.3,-1.5 3.5,-2.2 -1.8,-0.1 -3.4,-0.2 -5.2,-0.4 3.3,-4.6 9.9,-2.5 14.9,-2.8 0,-2.4 0,-4.7 0.2,-7 z"
   id="path248" />
	<path
   fill="#ffffff"
   d="m 367.7,547.2 c 0.7,-2.1 -1,-7 2.4,-6.6 0.8,6.7 0,13.7 0.4,20.4 3.2,0.3 8.3,-1.8 10.2,1.8 -4.6,0.8 -9.3,0.3 -13.9,-0.2 -4.6,0.8 -9.9,2.1 -14,-1.2 -3.1,-2.2 -3,-6.3 -2.4,-9.6 0.8,-0.2 2.2,-0.4 3,-0.6 -0.2,2.7 -1.7,6.5 1.3,8.3 3.9,3.1 9.1,2.1 12.9,-0.4 0.4,-3 0.6,-6.1 0.2,-9.2 -1.4,0 -2.9,-0.1 -4.4,-0.2 -0.4,3.6 0.7,7.6 -1.1,10.9 -2,0.8 -4,-0.2 -6,-0.8 0.3,-0.6 0.9,-1.7 1.2,-2.2 -1.4,-0.1 -3,-0.3 -4.4,-0.4 1.4,-1.1 3.2,-1.2 4.9,-1.4 -1.7,-0.3 -3.3,-0.9 -4.9,-1.7 1.7,-0.1 3.2,-0.2 4.9,-0.3 -0.6,-0.3 -1.7,-1 -2.3,-1.3 0.7,-0.8 1.4,-1.4 2.1,-2.2 -1.5,-0.1 -3.2,-0.3 -4.8,-0.6 3.8,-4.1 9.7,-2.9 14.7,-2.5 z"
   id="path250" />
	<path
   fill="#ffffff"
   d="m 238.6,541.4 c 0.6,0 1.8,0.1 2.4,0.1 0.2,6.2 0.2,12.5 0.1,18.7 3.3,0 6.5,0.1 9.7,0.2 0,0.8 -0.1,2.2 -0.2,3 -4,-0.2 -8,-0.1 -11.9,0 -0.6,-7.4 0.4,-14.7 -0.1,-22 z"
   id="path252" />
	<path
   fill="#ffffff"
   d="m 334.7,541.4 c 0.7,0 2,0 2.7,0 0,6.3 0,12.5 0,18.8 3.2,0 6.4,0.1 9.5,0.2 0,0.8 -0.1,2.2 -0.1,3 -4.2,-0.1 -8.4,-0.2 -12.6,-0.1 0.7,-7.3 0.4,-14.6 0.5,-21.9 z"
   id="path254" />
	<path
   fill="#ffffff"
   d="m 179.3,544.1 c 0.7,-0.1 1.9,-0.3 2.5,-0.3 -0.8,3 -3,6 -1.8,9.2 0.9,4.4 4.9,7.6 9.2,8.2 5.6,1.2 10.6,-2.2 15.1,-4.7 0.6,1 1,2 1.5,3 -6.5,4.6 -16,6.3 -23,1.9 -5.5,-3.6 -7.7,-11.9 -3.5,-17.3 z"
   id="path256" />
	<path
   fill="#ffffff"
   d="m 254.1,550.7 c 0.4,-2.9 1.1,-6.8 4.6,-7.2 -0.9,3.5 -2.9,7.2 -1.7,10.8 2.1,4.2 6.6,7.2 11.4,7.1 4.3,0.3 8,-2.5 12,-3.4 0,0.9 0.1,2.5 0.2,3.4 -5.2,2.1 -10.8,3.5 -16.3,2 -5.6,-1.2 -9.9,-6.8 -10.2,-12.7 z"
   id="path258" />
	<path
   fill="#ffffff"
   d="m 148.4,550.8 c 0.6,0.6 0.6,0.6 0,0 z"
   id="path260" />
	<path
   fill="#ffffff"
   d="m 389,554.5 c 2.4,1.1 4.7,2.4 7.1,3.9 -2.1,2.2 -4.4,4.1 -6.8,5.7 -0.2,-0.6 -0.4,-1.8 -0.7,-2.3 -1.2,2.7 -2.4,5.6 -5.4,7 1.3,-5.1 3.6,-9.7 5.8,-14.3 z"
   id="path262" />
	<path
   fill="#ffffff"
   d="m 134.5,595.8 c 1.1,-5.9 7,-9.5 12.5,-10.1 5.2,-0.8 10.3,1.2 14.9,3.5 -0.3,1.4 -0.6,2.9 -0.9,4.4 -4.4,-2.2 -8.7,-5.6 -14,-4.9 -3,0.2 -5.6,1.8 -8,3.5 6.4,3.1 13.1,5.4 19.4,8.5 7,3.3 6,13.8 0.3,17.9 -7.3,5.9 -18,3.9 -25.3,-0.9 0.4,-1.5 1,-3 1.4,-4.4 3.9,2.2 7.4,5.5 12,5.9 4.2,0.8 8.7,-0.6 11.4,-4.1 -6.2,-2.4 -12.5,-4.7 -18.4,-7.7 -4.2,-1.9 -6.6,-7.1 -5.3,-11.6 z"
   id="path264" />
	<path
   fill="#ffffff"
   d="m 345.6,590.1 c 7.3,-6.1 17.8,-5.1 25.5,-0.3 -0.3,1.4 -0.7,2.9 -1.1,4.4 -4.4,-3.3 -9.6,-5.7 -15.5,-5.2 -0.3,8.5 -0.1,17.1 -0.1,25.6 0.2,1.8 -0.9,3.1 -1.7,4.4 2.8,-0.1 5.5,0.1 8.2,-0.4 3.2,-0.9 6.1,-2.9 9.1,-4.4 0.4,1.2 1,2.4 1.4,3.6 -4.1,2.3 -8.6,4.6 -13.5,4.2 -8,0.4 -15.6,-5 -18,-12.5 -1.9,-5.1 -0.9,-10.8 1.9,-15.4 0.7,-1.9 2.7,-1.8 4.3,-2.1 -1.4,2.9 -3.3,5.5 -4.1,8.6 -0.9,3.1 -0.1,6.2 0.6,9.2 1.9,-0.4 3.8,-1 5.6,-1.4 -1.9,-0.1 -3.6,-0.3 -5.4,-0.6 1.7,-0.9 3.5,-1.3 5.4,-1.8 -2.1,-0.1 -4.2,-0.2 -6.3,-0.6 1.7,-1.6 4.1,-1.2 6.1,-1.6 -1.9,-0.1 -3.6,-0.1 -5.5,-0.2 v -1.5 c 1.9,0 3.8,-0.1 5.6,-0.2 -1.7,-0.6 -3.8,-0.7 -5.2,-1.9 0.7,-2.1 3.5,-1 5.2,-1.5 -1.2,-0.2 -2.4,-0.4 -3.8,-0.7 l 0.1,-1.2 c 0.9,0 2.5,-0.1 3.4,-0.1 -0.4,-0.2 -1.4,-0.7 -1.9,-0.9 1.9,-1.7 1.6,-3.8 -0.3,-5.5 z"
   id="path266" />
	<path
   fill="#ffffff"
   d="m 195,586.6 c 1.8,-0.1 3.4,-0.1 5.1,-0.2 4.5,10.6 9.1,21.3 14.2,31.7 -4,0.1 -8,0.1 -11.9,-0.2 1.4,-0.7 2.9,-1.3 4.3,-1.9 -1.8,0 -3.6,-0.1 -5.4,-0.3 1,-1 2.3,-1.7 3.9,-1.9 -0.9,-1.5 -1.8,-3.2 -2.7,-4.7 -1.4,-0.6 -2.9,-1 -4.3,-1.6 1.4,-0.4 2.9,-0.9 4.3,-1.3 -1.9,-0.1 -3.8,-0.3 -5.6,-0.6 1.3,-0.8 2.8,-1.2 4.2,-1.7 -1.7,0 -3.4,-0.1 -5.1,-0.2 1.2,-0.8 2.3,-1.3 3.5,-2 -1.1,-5.2 -5.3,-9.6 -4.5,-15.1 z"
   id="path268" />
	<path
   fill="#ffffff"
   d="m 270.3,587 c 4.3,-0.7 8.8,-0.4 13.1,-0.3 0,10.5 -0.4,21 0.2,31.5 -3,0 -6,0 -9.1,-0.3 1.2,-0.7 2.4,-1.1 3.6,-1.7 -1.2,-0.3 -2.4,-0.8 -3.6,-1.2 1,-0.2 3,-0.7 4,-0.8 -1.1,-0.3 -2.3,-0.6 -3.4,-0.8 0.3,-0.3 1.1,-1 1.4,-1.3 -0.6,-0.9 -1.1,-1.9 -1.5,-2.8 0.9,-0.1 2.5,-0.3 3.4,-0.6 -1.2,-0.4 -2.5,-1 -3.6,-1.4 0.9,-0.2 2.8,-0.7 3.8,-0.9 -1.3,-0.3 -2.5,-0.8 -3.8,-1.2 1.1,-0.4 2.3,-0.9 3.5,-1.3 -0.9,-0.1 -2.8,-0.3 -3.6,-0.4 1.1,-0.6 2.3,-1 3.5,-1.4 -1.3,-0.7 -2.7,-1.3 -3.5,-2.5 0.9,-0.2 2.8,-0.4 3.6,-0.7 -1.2,-0.4 -2.4,-1 -3.6,-1.5 1,-0.2 2.8,-0.6 3.6,-0.7 -1.2,-0.4 -2.3,-1 -3.5,-1.5 0.9,-0.1 2.8,-0.4 3.6,-0.7 -1.2,-0.4 -2.4,-1 -3.6,-1.5 1.2,-0.3 2.4,-0.7 3.6,-1 -0.9,-0.2 -2.7,-0.6 -3.5,-0.7 1.1,-0.9 2.2,-1.7 3.4,-2.4 -2.7,-0.3 -6.3,0.9 -8,-1.9 z"
   id="path270" />
	<path
   fill="#ffffff"
   d="m 387.3,586.8 c 5,-0.3 9.9,-0.2 14.9,-0.1 2.2,5.9 4.6,11.7 6.2,17.9 2.9,-5.7 4.3,-12 6.8,-17.9 1.7,0 3.3,0 5,0.1 -2.3,6.2 -5.5,11.9 -8,18 -1.7,3.7 -2.7,7.7 -4.8,11.2 -2,0.1 -4.1,-0.1 -6.1,-0.3 1.7,-0.9 3.4,-1.3 5.2,-1.8 -2.1,-0.1 -4.1,-0.2 -6.1,-0.4 1.1,-0.6 2.2,-1.1 3.4,-1.7 -1.5,-0.4 -3.1,-1 -4.5,-1.5 1.2,-0.7 2.4,-1.3 3.8,-2 -1.1,-0.1 -3.1,-0.2 -4.1,-0.3 1.3,-0.7 2.8,-1.2 4.2,-1.8 -1.9,-0.2 -3.9,0 -5.3,-1.2 1,-0.2 3.1,-0.5 4.2,-0.8 -1.5,-0.1 -3.1,-0.2 -4.6,-0.3 v -1.1 c 1.1,-0.3 2.3,-0.7 3.5,-1 -1.7,-0.2 -3.3,-0.4 -5,-0.7 0.3,-1.9 2.3,-2.1 3.8,-2.8 -1.5,0 -3.1,0.1 -4.6,0.1 V 597 c 1.5,-0.2 3.1,-0.4 4.8,-0.7 -2,-0.1 -3.9,-0.2 -5.7,-0.2 V 595 c 1.5,-0.3 3.1,-0.6 4.6,-0.9 -2,-0.2 -4.1,-0.3 -6.2,-0.7 1.5,-0.8 3.3,-1.2 5.1,-1.5 -2.8,0.1 -5.3,-0.3 -7.2,-2.5 4.1,8.8 7.4,17.9 10.9,27 1.8,0.2 3.6,0.3 5.4,0.6 -0.1,1.5 -0.2,3.1 -0.3,4.6 -1.9,0.1 -3.9,0.2 -5.7,0.3 -3.8,-12 -9.1,-23.4 -13.6,-35.1 z"
   id="path272" />
	<path
   fill="#ffffff"
   d="m 271.3,589.7 c 0.8,0.1 2.2,0.3 2.9,0.4 0.6,9.5 0,19.1 0.1,28.7 3.1,0 6.1,0.1 9.1,0.1 0,0.7 0,1.9 0.1,2.5 -3.5,0.1 -7,0.1 -10.4,-0.2 -4.4,-0.8 -8.8,1.7 -13.1,0.1 -4.7,-2.1 -8.2,-7.1 -7.8,-12.3 0,-4.3 1.8,-9.6 6.5,-10.5 -1.7,4.4 -5.5,8.9 -3.3,13.9 1.1,4.2 5.1,7.7 9.6,7.3 2.3,-0.4 5.3,-1.1 6.3,-3.5 0.4,-5.6 0.4,-11.4 0.3,-17 -2,-0.6 -4,-1 -6.1,-1.3 -0.1,7.2 0.1,14.3 -0.1,21.4 -1.8,-0.4 -3.5,-0.9 -5.3,-1.3 0,-0.4 0,-1.3 0,-1.8 -1,-0.4 -1.9,-0.8 -2.9,-1.2 1.2,-0.4 2.4,-0.8 3.8,-1.2 -1.5,-0.1 -3.1,-0.1 -4.5,-0.2 v -1.4 c 0.8,0 2.4,0 3.2,0 -1.8,-0.7 -3.6,-1.3 -4.6,-3 2,-0.3 4,-0.4 6,-0.7 -1.9,-0.3 -3.8,-0.3 -5.4,-1.4 1.9,-0.2 3.6,-0.4 5.5,-0.7 -1.5,-0.3 -3.1,-0.6 -4.6,-0.9 v -1.1 c 1.4,-0.1 2.9,-0.1 4.4,-0.2 -1.2,-0.3 -2.4,-0.7 -3.5,-1 1.1,-0.6 2.1,-1.2 3.3,-1.8 -0.7,-1.5 -1.3,-3.1 -2,-4.6 4.1,-1.5 8.6,-1.4 12.9,-0.3 -0.3,-2.2 -0.4,-4.5 -0.4,-6.8 z"
   id="path274" />
	<path
   fill="#ffffff"
   d="m 290.1,601.3 c 6.1,-9.1 23.9,-7.1 25.5,4.5 -2.1,0.1 -4.2,0.1 -6.3,0.1 0.1,-1.9 0.6,-4.2 -1.1,-5.5 -2,-2.6 -5.6,-1.8 -8.4,-2.1 0,2.8 0,5.6 -0.1,8.4 1.9,0 3.8,0 5.6,0 0.4,-2.3 -1,-6 1.8,-7.1 0.3,2.3 0.4,4.6 0.4,7 2.9,0.1 5.7,0.2 8.6,0.2 0,0.7 0,1.9 0,2.5 -5.4,0 -10.9,-0.1 -16.3,0 0.1,3.1 0,6.2 -0.1,9.3 -2.8,-0.2 -5.1,-1.8 -7.2,-3.5 0.6,-0.2 1.8,-0.9 2.4,-1.2 -1,-0.1 -2.9,-0.4 -3.9,-0.7 1.3,-0.6 2.5,-1.1 3.9,-1.5 -2.1,-0.1 -5.1,0.6 -4.7,-2.5 1.7,-0.1 3.3,-0.3 5,-0.4 -1.5,-0.3 -3.1,-0.6 -4.6,-0.8 v -1 c 1.5,-0.1 3.1,-0.2 4.6,-0.3 -1.4,-0.4 -2.9,-0.9 -4.2,-1.3 1.2,-0.4 2.4,-0.9 3.8,-1.1 -0.6,-0.2 -1.5,-0.6 -2.1,-0.8 0.8,-0.6 1.4,-1.2 2.2,-1.8 -1.7,-0.2 -3.2,-0.3 -4.8,-0.4 z"
   id="path276" />
	<path
   fill="#ffffff"
   d="m 288.7,602.6 c 0.8,-0.1 2.3,-0.4 3,-0.6 -1.2,3.6 -3.1,7.7 -1,11.5 1.9,4.5 7.2,6.3 11.8,6.1 4.6,-0.2 8.4,-3.2 12.5,-5.1 1.2,4 -3,5.6 -6,6.5 -5.9,1.5 -12.9,1.5 -17.8,-2.7 -4.8,-3.4 -5.5,-10.7 -2.5,-15.7 z"
   id="path278" />
	<g
   id="g288">
		<g
   id="g282">
			<path
   fill="#ffffff"
   d="m 215.6,619 c -4.6,0 -9.3,0 -13.9,-0.3 -2.3,-6.7 -5.6,-13 -8.2,-19.7 1,-0.1 3,-0.4 3.9,-0.6 -0.8,-2.7 -1.8,-5.2 -3.5,-7.2 -2.7,5.7 -4.8,11.7 -7.5,17.4 -2,4.3 -4.6,8.3 -5.6,12.9 0.9,-0.1 2.8,-0.1 3.8,-0.2 1.3,-1.4 2,-3.4 2.9,-5.2 3.6,0 7.3,-0.1 11,0 0.7,1.8 1.3,3.4 2,5.2 5.1,0.2 10.2,0.2 15.4,0.1 -0.2,-0.6 -0.3,-1.8 -0.3,-2.4 z m -27.3,-6.7 c 1.1,-2.8 2.1,-5.6 3.4,-8.3 0.3,0 1,-0.1 1.3,-0.1 1.5,2.5 2.5,5.4 3.5,8.3 -2.7,0 -5.4,0.1 -8.2,0.1 z"
   id="path280" />
		</g>
		<g
   id="g286">
			<path
   fill="#ffffff"
   d="m 215.6,619 c -4.6,0 -9.3,0 -13.9,-0.3 -2.3,-6.7 -5.6,-13 -8.2,-19.7 1,-0.1 3,-0.4 3.9,-0.6 -0.8,-2.7 -1.8,-5.2 -3.5,-7.2 -2.7,5.7 -4.8,11.7 -7.5,17.4 -2,4.3 -4.6,8.3 -5.6,12.9 0.9,-0.1 2.8,-0.1 3.8,-0.2 1.3,-1.4 2,-3.4 2.9,-5.2 3.6,0 7.3,-0.1 11,0 0.7,1.8 1.3,3.4 2,5.2 5.1,0.2 10.2,0.2 15.4,0.1 -0.2,-0.6 -0.3,-1.8 -0.3,-2.4 z m -27.3,-6.7 c 1.1,-2.8 2.1,-5.6 3.4,-8.3 0.3,0 1,-0.1 1.3,-0.1 1.5,2.5 2.5,5.4 3.5,8.3 -2.7,0 -5.4,0.1 -8.2,0.1 z"
   id="path284" />
		</g>
	</g>
	<path
   fill="#ffffff"
   d="m 152.9,608.4 c 0.4,0.4 0.4,0.4 0,0 z"
   id="path290" />
	<path
   fill="#ffffff"
   d="m 170.7,613 c 2.2,-0.3 5,-0.8 6.3,1.4 2.6,3.4 -1.1,9.3 -5.4,7.6 -3.9,-0.9 -4.5,-7.2 -0.9,-9 z"
   id="path292" />
	<path
   fill="#ffffff"
   d="m 221.4,613 c 1.9,-0.3 4.3,-0.7 5.6,1.2 1.5,1.8 0.6,4.5 0,6.5 -2.2,2.3 -6.6,2.1 -8.1,-0.9 -0.9,-2.4 -0.4,-6.3 2.5,-6.8 z"
   id="path294" />
	<path
   fill="#ffffff"
   d="m 377.3,612.9 c 2.1,-0.1 5.2,-0.7 6.4,1.4 1.9,2.4 -0.2,5.2 -0.8,7.6 -2,0 -4.4,0.8 -6.2,-0.7 -2.4,-2.1 -2.1,-6.4 0.6,-8.3 z"
   id="path296" />
	<path
   fill="#ffffff"
   d="m 425.8,612.8 c 2.3,-0.4 4.9,0.1 6.2,2.2 0.3,3 -0.4,7.6 -4.4,7.3 -5.3,0.6 -6.6,-8.2 -1.8,-9.5 z"
   id="path298" />
	<g
   id="g308">
		<g
   id="g302">
			<path
   fill="#ffffff"
   d="m 733.8,650.8 c -9.7,-20.7 -19.1,-41.5 -28.5,-62.3 -4.5,0.1 -9.7,1.9 -13.5,-1.8 0,-1.7 0,-3.3 -0.1,-5 13,-6.1 26.2,-11.7 39.1,-17.8 0.1,-12.8 -0.7,-25.6 -1.1,-38.4 -2.3,-1 -4.7,-2.1 -7.3,-2.2 -9.7,-1.1 -17.1,6.5 -25.8,9.2 -0.1,-4.2 -0.7,-8.3 -0.3,-12.5 1,-1.8 3.3,-2.1 5,-3.1 0.1,-3 0.2,-6 -0.3,-8.9 -2.1,-1.8 -5.1,-2.3 -7.7,-3 -6.7,-1.3 -12.5,3.2 -18.4,5.7 -16.5,7.5 -32.9,15.2 -49.5,22.6 -10.2,0.2 -20.3,-1.1 -30.3,-3.3 -4.5,-0.9 -8.7,-3.4 -11.5,-7.3 -4.4,-6.3 -8.4,-13 -10.8,-20.3 -4.2,-8.1 -12.7,-13.4 -15.1,-22.4 4.4,-6.4 8.2,-13.4 10.6,-20.9 0.3,0.6 1,1.5 1.2,2 5.1,-5.2 10.3,-10.8 17.5,-13.4 8.9,-3.3 19,-4.9 28.4,-2.9 5.4,2.3 11.3,3.6 16.8,5.9 1.1,-0.2 2.3,-0.4 3.4,-0.8 -2.4,-2.5 -5.3,-4.8 -8.6,-6 -7.6,-3.3 -16.3,-1.4 -24.1,-4.4 -3.6,-1.7 -7.7,-0.4 -11.2,1.3 1.1,0.2 3.2,0.6 4.2,0.8 -1.7,1.3 -3.4,2.8 -5.5,3.4 -3.5,1.2 -6.5,3.6 -10.3,4.2 -4.6,1.1 -9.4,2.5 -13.3,5.4 0.4,0.3 1.5,1 2,1.3 -7,7.4 -13,15.9 -15.8,25.7 -1.1,0.3 -2.3,0.7 -3.4,1 0.2,2.1 0.3,4.3 1.7,6.1 -0.1,-2 -0.6,-3.9 -0.9,-5.7 0.8,-0.1 2.4,-0.3 3.2,-0.4 3.5,8.8 11.6,14.5 16.7,22.1 0.1,5.4 4.4,9.1 6.8,13.5 4.7,7.7 11.7,14.8 20.7,16.9 6.2,-1.9 12.5,-0.1 18.6,1 0,0.6 -0.2,1.7 -0.3,2.2 5.9,0.1 11.7,-1.5 17.6,-0.2 3.1,0.8 5.1,3.5 6.5,6.2 2.1,-0.7 4.1,-1.8 6.3,-1.9 3.4,0.8 6.5,3 8.6,5.7 -1.3,-0.2 -2.5,-0.4 -3.8,-0.8 0.1,0.6 0.4,1.5 0.6,2.1 -2,-0.6 -4,-1 -6,-1.3 1.4,1.8 3.3,3.2 5.1,4.6 -1.8,-0.2 -3.5,-0.6 -5.2,-0.8 -1.5,2.1 -2.4,4.9 -5,6 -1.5,-0.4 -2.8,-1.5 -4.2,-2.3 0.2,1.1 0.4,2.3 0.7,3.5 -14.3,6.5 -28.4,13.4 -43,19 1.4,-1.3 3,-2.5 4.5,-3.7 -0.7,-2.1 -2.4,-4 -2.2,-6.1 2.7,-2.2 5.3,-4.5 7.7,-7.2 1.3,1.9 2.3,4.1 4.4,5.2 0.3,-2.7 0.4,-5.3 0.4,-8 1,-0.4 2,-0.9 3.1,-1.3 1.5,1.4 3.2,2.8 5.2,3.8 -0.7,-1.5 -1.3,-3 -2,-4.5 2.2,0.2 4.6,-0.4 6.6,0.8 3.2,1.8 7,2 10.5,2.2 0,-1.3 -0.1,-2.5 -0.1,-3.8 -3.5,2.2 -7.5,-0.2 -10.9,-1.3 0,-0.3 -0.1,-0.9 -0.1,-1.2 2.9,-1.5 6,-2.5 8.6,-4.6 -5.9,0.1 -11.3,2.8 -16.7,4.5 2.3,-4.5 -1.3,-8.8 -0.1,-13.4 -2.6,0.7 -5.3,0.8 -8.1,0.6 -0.7,1.1 -0.9,2.8 -2.2,3.4 -5.3,2.8 -10.8,5 -16.2,7.5 2.6,-0.2 5.4,0 8.2,-0.6 3.9,-1.2 7.3,-3.4 11,-4.9 1.7,-0.9 4.2,0.4 4,2.5 -1.5,0.7 -3.3,0.5 -5,0.5 -1.5,2.6 -4.5,3.5 -7.2,4.5 0.4,2 1.9,3.5 3.2,5.1 -4.3,2 -7.7,5.3 -11.2,8.5 1.2,-0.2 2.3,-0.4 3.5,-0.8 1.1,2.3 2.4,4.5 3.9,6.7 -1.5,1.2 -3.1,2.5 -5,3.1 -2.2,-1.8 -3.6,-4.5 -5.6,-6.6 0.4,2.2 1.2,4.3 2,6.5 -2.5,0.7 -5.4,-0.3 -6.7,-2.7 -0.6,-1.8 0,-3.6 0,-5.4 -1,0 -2,0.1 -3,0.1 0.1,-0.7 0.3,-1.9 0.3,-2.5 2.3,-0.7 4,-2.2 4.4,-4.6 -1.7,0.2 -3.3,0.6 -4.9,0.8 0.7,-2.3 2.1,-4.2 4,-5.6 -0.6,-1.2 -1,-2.4 -1.5,-3.5 -1.9,0.9 -4,1.4 -6,2.2 -4,4.1 -9.7,6.1 -13.3,10.7 0.9,1 1.7,2 2.5,3.1 -1.9,1 -3.6,2 -5.4,3 -2,-2.3 -4.3,-5.1 -7.7,-4.9 0.1,-1.4 0.3,-2.9 0.4,-4.3 1.2,-0.3 2.4,-0.6 3.8,-0.9 0.6,-2.1 1,-4.2 0.8,-6.3 2.3,-0.7 4.7,-1.2 7.1,-1.8 0.3,-3.3 -1.9,-6 -3.4,-8.7 0,-2.3 0.3,-4.6 0.3,-6.9 2.8,1.4 6,1.5 7.8,-1.3 2.4,-2.1 1.4,-5.4 -0.4,-7.6 -2.3,-2.3 -0.1,-6.3 -2.5,-8.6 -4.6,-5.7 -8.6,-12 -12.5,-18.3 -2.8,-4.3 -3.1,-9.4 -5,-14 -2.1,0.3 -4,0.9 -5.7,1.9 0.9,3.3 1.9,6.7 2.1,10.2 0.4,6.9 4.3,12.8 7.3,18.8 2.5,5.1 7,9.5 7.2,15.4 -1.2,3.3 -3.8,6.3 -2.9,10.1 -0.3,3.4 2.5,5.5 4.6,7.6 -1.4,0.8 -3,1.7 -4.5,2.5 -0.6,-0.4 -1.7,-1.2 -2.2,-1.7 -0.8,1.4 -1.4,3 -2.2,4.5 -2.5,0 -5.1,0.3 -7.5,1.1 0.1,0.7 0.4,2 0.6,2.8 -1.8,-0.8 -3.6,-1.4 -5.3,-2.4 -1.3,-3.3 0.6,-7 -0.4,-10.4 -1.4,-0.2 -2.9,-0.3 -4.4,-0.6 -2.3,3.8 -7.1,0 -10.5,-0.1 3.8,2.3 8.1,3.5 11.8,5.9 1.2,1.9 1.5,4.3 2.2,6.4 3.8,1.2 7.4,2.7 11.2,4 -0.1,1.5 -0.2,3.2 -0.3,4.7 -19.2,9.1 -38.5,17.8 -57.9,26.6 -1.8,0.6 -1.2,2.8 -1.3,4.1 0.4,12.3 0.9,24.5 1,36.8 12.9,6.5 26,13 38.9,19.5 14,-6.2 27.8,-12.9 42,-18.9 -2.9,5.9 -8.8,9.7 -10.7,16 0,5.5 1.4,11 1.8,16.7 0.8,3.5 -0.4,9.3 4.8,9.7 1.4,11.4 2,22.9 4.5,34 1.7,8.3 9.9,13.4 17.8,14.7 10.3,1.8 21.8,2.5 30.8,-3.4 7,-4.4 13.9,-9.9 17.3,-17.7 4.1,-10.3 1.1,-21.3 -0.4,-31.8 -0.9,-3.2 1.4,-6.1 0.6,-9.3 -1.4,-8.4 -0.9,-17.8 -5.9,-25.2 -1.8,-2.8 -3.4,-6.4 -7,-7.1 -6.3,-1.4 -12.8,-2.4 -19,-4.3 -0.6,-2.5 -1,-5.1 -1.3,-7.7 23.3,-10.3 46.6,-21 69.8,-31.5 2.5,-1.2 5.1,-2.3 7.7,-2.9 -1,4.6 -6.8,4.5 -8.6,8.6 -1.3,3.4 -1.9,7.1 -2.4,10.6 -2.9,18.4 -5.9,36.8 -8.7,55.1 -0.9,5.7 -2.4,11.7 -0.2,17.2 3.2,7.7 10.9,12.4 18.6,14.7 11.3,3.6 24.3,4.2 35,-1.4 8.2,-3.9 14.4,-10.9 18.7,-18.8 3.1,-6.5 2.2,-14.8 -0.8,-21.7 z M 609.7,552.9 c 0.1,3.8 -4.3,2.6 -6.3,1.2 2,-0.5 4.2,-1 6.3,-1.2 z m -13.8,11.3 c 0.9,-1.5 3.9,-0.4 2.3,1.2 -0.9,1.8 -3.8,0.4 -2.3,-1.2 z m -42.2,-8.9 c 2.3,-0.2 2.2,4.2 -0.2,3.9 -1.6,-0.6 -1,-3.2 0.2,-3.9 z m 160.6,-27.2 c 3.8,-1.5 8.1,-5 11.9,-1.7 -2.6,1.7 -5.4,3 -8.3,4.2 -18.9,8.4 -37.8,16.8 -56.6,25.2 -1.5,0.9 -3.3,0.8 -4.9,0.6 0.9,-1.5 1.8,-3.4 3.6,-4 18.3,-8 36.3,-16.3 54.3,-24.3 z m -82.4,5.6 c 19.2,-8.6 38.4,-17.6 57.7,-26.2 2.3,-1.3 4.5,0.4 6.6,1.2 -7.1,4 -14.7,6.7 -22,10.2 -11.2,5.1 -22.2,10.1 -33.4,15.2 -2.8,1.6 -6.1,0.8 -8.9,-0.4 z m 8.7,5.8 c -0.1,-2 1.7,-2.8 3.2,-3.4 13.7,-6.2 27.4,-12.4 41.1,-18.7 4.6,-2.1 9.1,-4.6 14.1,-5.5 -0.1,0.7 -0.1,2.1 -0.2,2.8 -14.7,6.5 -29.4,13.3 -44.2,19.9 -4.5,1.8 -8.9,4.8 -14,4.9 z m 8.4,1.3 c 14.6,-7 29.5,-13.7 44.4,-20 -0.1,4.3 0.1,8.7 0.2,13 -10.8,5.2 -21.9,9.8 -32.7,14.9 -2,0.9 -4,1.5 -6,2.2 0.4,-1.1 1,-2.2 1.5,-3.3 -2.4,-2.3 -4.8,-4.6 -7.4,-6.8 z m 5.3,14.3 c 0.2,1.1 0.4,2.3 0.7,3.5 -4,1.7 -7.8,3.9 -12.2,4.5 1.5,-5.2 7.3,-5.9 11.5,-8 z m -76.6,3.1 c -0.1,3 -1.4,5.7 -4.4,6.6 0.9,-2.4 2,-4.9 4.4,-6.6 z m -11.3,13 c 3.3,-1.8 6.8,-3.2 10.3,-4.7 0.3,0.7 0.9,2 1.2,2.6 -4,1.9 -8.1,4 -12.4,5.1 0.2,-0.8 0.7,-2.3 0.9,-3 z m -2,0.7 c 0,1.2 -0.1,2.5 -0.1,3.8 -2,0.1 -3.9,0.1 -5.7,0 1.5,-1.9 3.8,-2.8 5.8,-3.8 z m -11.8,-2.2 c 1.7,-1.4 3.6,1.3 1.8,2.4 -1.6,1.3 -3.5,-1.3 -1.8,-2.4 z m -0.7,8.1 c 1.7,-1 3.5,-0.2 5.1,0.4 -9.3,5.2 -19.3,8.8 -28.8,13.4 -8.4,3.9 -16.8,7.6 -25.1,11.4 -1.4,0.9 -2.9,0.1 -4.2,-0.6 2.2,-1.7 4.7,-2.9 7.4,-4.1 15.3,-6.7 30.4,-13.7 45.6,-20.5 z m -26.3,4.6 c 8,-3.5 15.8,-7.5 24,-10.7 0.6,1 1.1,2 1.7,3 -17.6,7.7 -35,15.9 -52.7,23.8 -1.7,1.3 -3.3,-0.4 -4.6,-1.3 10.3,-5.4 21.1,-9.8 31.6,-14.8 z M 496,635.6 c -2.7,-1.5 -3,-4.9 -2.9,-7.6 -0.1,-9.4 -0.7,-18.8 -0.7,-28.2 2.9,1.7 3.3,4.9 4.2,7.7 2.1,0 4.2,0.3 6.1,-0.6 16.8,-8.8 34.3,-15.7 51.4,-23.9 2.2,-1.2 4.8,-1.7 7.3,-1.2 0.7,-1.2 1.3,-2.5 2.6,-3 4.7,-2.3 9.5,-4.6 14.4,-6.3 3,4.2 8.1,5.6 12.8,7 -23.2,11 -46.8,21.4 -70.4,31.8 0.6,3.1 -1.5,8.6 2.4,9.8 0.3,-1.9 0.6,-3.9 0.9,-5.7 1.4,1.7 3.3,3.3 3,5.6 0,9.8 0.2,19.5 0.6,29.3 C 518,643.8 506,641.9 496,635.6 Z m 70.3,39.8 c -1,-6.4 -1.9,-12.9 -2.5,-19.4 -0.7,-3.3 2.1,-5.9 3.8,-8.4 3.1,-4 5.3,-8.6 8.9,-12 6.4,-1.8 13,-2.5 19.4,-3.9 -4.5,6.3 -9.9,12 -14.8,18.2 -1.5,2.2 -0.8,5.1 -0.6,7.6 1,5.6 1.7,11.3 1.7,17 -0.9,0.1 -2.8,0.4 -3.8,0.6 -0.7,-2.1 -1.3,-4.2 -2.2,-6.3 -4.3,-0.5 -9.4,2 -9.9,6.6 z m 20,-45.5 c 3.9,-2.5 8.2,-4.2 12.5,-5.9 0.3,1.2 0.7,2.4 0.9,3.5 -4.5,1.1 -8.8,2.3 -13.4,2.4 z m -6.2,90.7 c -3.9,-2.6 -5.7,-7.2 -6.2,-11.7 -1.2,-10.3 -3,-20.4 -3.8,-30.8 6.2,-0.1 12.4,0.1 18.6,-0.9 -0.1,-1.6 -0.3,-3.1 -0.4,-4.8 0.2,0 0.8,0 1,-0.1 1.3,12.4 3.4,24.7 4.6,37.1 0.6,5.9 2.2,11.8 5.6,16.7 -6.6,-0.9 -13.8,-1.4 -19.4,-5.5 z m 13.5,-32.9 c 1.1,6.5 2.7,13.1 2.7,19.8 -1.5,-6.6 -2.3,-13.2 -2.7,-19.8 z m 31.9,28.7 c 2.3,-2.8 4.9,-5.2 7.6,-7.5 -2.2,2.7 -4.7,5.3 -7.6,7.5 z m 6.3,-69.7 c 1.8,7.1 1.5,14.5 3.1,21.5 -0.3,0.1 -0.9,0.1 -1.2,0.2 -1.5,-10.9 -0.9,-23.6 -9.2,-32.1 3.3,2.7 6,6.3 7.3,10.4 z m -22.9,-9.8 c 4.6,0.2 9.2,1.7 13.7,2.8 1.4,0.1 2.1,1.7 2.8,2.8 5,9.1 5.1,19.7 5.1,29.7 1.5,9.9 4.9,20.3 1.8,30.4 -3.8,10.2 -14.2,15.5 -23.7,19.1 -3.8,1.5 -6.2,-2.4 -7.3,-5.3 7.7,-4.5 16.6,-9.9 18.9,-19.3 1.2,-8.4 -0.7,-16.8 -2.5,-24.8 -2.5,-10.3 -2.1,-21.5 -8,-30.8 -0.8,-1.7 -3,-3.4 -0.8,-4.6 z m 2.7,17.6 c 1.4,11.7 3.5,23.4 4.2,35.2 0.7,10.2 -6.8,18.7 -15.4,23.2 -2.5,-13.1 -3.2,-26.5 -5.1,-39.7 -0.4,-3.9 -4.5,-4.6 -7.6,-5 -0.8,-5.7 -3.5,-12.7 0.8,-17.7 3.5,-4 6.6,-8.4 10.3,-12.3 1.5,1.3 2.8,3.2 4.6,3.9 5.5,1.3 7.3,7.6 8.2,12.4 z m 61.2,-67.6 c -47.3,21.3 -94.4,42.9 -141.7,64.2 -0.2,-8.8 1.7,-17.7 0,-26.4 -0.6,-4.4 -3.1,-8.2 -5.2,-11.9 33.4,-15 66.7,-29.9 100.1,-45 4.1,-1.9 8.1,-3.9 12.3,-5.3 0.6,0.7 1.7,1.9 2.2,2.5 -37.2,16.7 -74.6,33.1 -111.8,49.9 0.1,0.4 0.4,1.4 0.6,2 0.4,0 1.4,0.1 1.9,0.2 52.9,-23.5 105.8,-47.2 158.6,-70.7 12.5,-5.3 24.5,-11.3 37.1,-16.2 0.6,10.7 1.1,21.3 1,32 -7.6,3 -14.9,6.6 -22.4,9.8 -7.3,3.1 -14.3,7.2 -22,9.2 -3.6,2.3 -7,4.4 -10.7,5.7 z m -8.3,89.1 c -1.7,-4.3 -0.4,-8.8 0.3,-13.3 0.8,-4.2 1.3,-8.5 2.2,-12.7 -0.1,7.8 -3.3,15.4 -2.4,23.2 1.8,8 8.8,13.1 15.7,16.7 -6.8,-2.5 -13.5,-6.9 -15.8,-13.9 z m 5.8,0.3 c 5.2,4.3 10.5,8.8 16.9,11.2 2.5,0.9 5.2,1.3 7.7,2.2 -9.7,0.3 -21,-3.3 -24.6,-13.4 z m 52.2,2.3 c -11.5,8.9 -28.7,10.5 -41.1,2.5 -4.5,-3 -8.3,-7.3 -9.9,-12.5 -1.3,-5.4 0.7,-10.8 1.4,-16.2 1.7,-12.6 3.8,-25.1 5.2,-37.7 0.6,-4.1 1,-8.1 2.2,-11.9 3,2.2 4.9,5.4 5.2,9.3 2.8,0.7 5.9,1 8.5,-0.4 2.4,-1.9 0.1,-5.2 1.5,-7.4 0.8,-1 1.3,-3.2 3.1,-2.4 8.3,18.6 17,37 25.4,55.5 3.3,6.6 2.9,15.1 -1.5,21.2 z m -22,-80.6 c 5.6,10.4 9.9,21.4 15,32.1 1.5,3.8 3.5,7.2 4.7,11 -5.6,-10.7 -10.3,-22 -15.5,-33 -1.3,-3.4 -3.2,-6.6 -4.2,-10.1 z m 20.9,45.5 c 3.8,7.4 7.5,14.9 9.9,22.9 -3,-7.8 -7,-15.2 -9.9,-22.9 z m -19.8,-51.2 c -2,-0.1 -3.9,-0.1 -5.7,-0.3 2.9,-0.4 7.3,-1.4 8.5,2.1 6.1,12.5 11.2,25.3 17.8,37.4 4.4,8.7 9.7,17.6 10.4,27.6 -10.9,-22 -20.4,-44.7 -31,-66.8 z"
   id="path300" />
		</g>
		<g
   id="g306">
			<path
   fill="#ffffff"
   d="m 733.8,650.8 c -9.7,-20.7 -19.1,-41.5 -28.5,-62.3 -4.5,0.1 -9.7,1.9 -13.5,-1.8 0,-1.7 0,-3.3 -0.1,-5 13,-6.1 26.2,-11.7 39.1,-17.8 0.1,-12.8 -0.7,-25.6 -1.1,-38.4 -2.3,-1 -4.7,-2.1 -7.3,-2.2 -9.7,-1.1 -17.1,6.5 -25.8,9.2 -0.1,-4.2 -0.7,-8.3 -0.3,-12.5 1,-1.8 3.3,-2.1 5,-3.1 0.1,-3 0.2,-6 -0.3,-8.9 -2.1,-1.8 -5.1,-2.3 -7.7,-3 -6.7,-1.3 -12.5,3.2 -18.4,5.7 -16.5,7.5 -32.9,15.2 -49.5,22.6 -10.2,0.2 -20.3,-1.1 -30.3,-3.3 -4.5,-0.9 -8.7,-3.4 -11.5,-7.3 -4.4,-6.3 -8.4,-13 -10.8,-20.3 -4.2,-8.1 -12.7,-13.4 -15.1,-22.4 4.4,-6.4 8.2,-13.4 10.6,-20.9 0.3,0.6 1,1.5 1.2,2 5.1,-5.2 10.3,-10.8 17.5,-13.4 8.9,-3.3 19,-4.9 28.4,-2.9 5.4,2.3 11.3,3.6 16.8,5.9 1.1,-0.2 2.3,-0.4 3.4,-0.8 -2.4,-2.5 -5.3,-4.8 -8.6,-6 -7.6,-3.3 -16.3,-1.4 -24.1,-4.4 -3.6,-1.7 -7.7,-0.4 -11.2,1.3 1.1,0.2 3.2,0.6 4.2,0.8 -1.7,1.3 -3.4,2.8 -5.5,3.4 -3.5,1.2 -6.5,3.6 -10.3,4.2 -4.6,1.1 -9.4,2.5 -13.3,5.4 0.4,0.3 1.5,1 2,1.3 -7,7.4 -13,15.9 -15.8,25.7 -1.1,0.3 -2.3,0.7 -3.4,1 0.2,2.1 0.3,4.3 1.7,6.1 -0.1,-2 -0.6,-3.9 -0.9,-5.7 0.8,-0.1 2.4,-0.3 3.2,-0.4 3.5,8.8 11.6,14.5 16.7,22.1 0.1,5.4 4.4,9.1 6.8,13.5 4.7,7.7 11.7,14.8 20.7,16.9 6.2,-1.9 12.5,-0.1 18.6,1 0,0.6 -0.2,1.7 -0.3,2.2 5.9,0.1 11.7,-1.5 17.6,-0.2 3.1,0.8 5.1,3.5 6.5,6.2 2.1,-0.7 4.1,-1.8 6.3,-1.9 3.4,0.8 6.5,3 8.6,5.7 -1.3,-0.2 -2.5,-0.4 -3.8,-0.8 0.1,0.6 0.4,1.5 0.6,2.1 -2,-0.6 -4,-1 -6,-1.3 1.4,1.8 3.3,3.2 5.1,4.6 -1.8,-0.2 -3.5,-0.6 -5.2,-0.8 -1.5,2.1 -2.4,4.9 -5,6 -1.5,-0.4 -2.8,-1.5 -4.2,-2.3 0.2,1.1 0.4,2.3 0.7,3.5 -14.3,6.5 -28.4,13.4 -43,19 1.4,-1.3 3,-2.5 4.5,-3.7 -0.7,-2.1 -2.4,-4 -2.2,-6.1 2.7,-2.2 5.3,-4.5 7.7,-7.2 1.3,1.9 2.3,4.1 4.4,5.2 0.3,-2.7 0.4,-5.3 0.4,-8 1,-0.4 2,-0.9 3.1,-1.3 1.5,1.4 3.2,2.8 5.2,3.8 -0.7,-1.5 -1.3,-3 -2,-4.5 2.2,0.2 4.6,-0.4 6.6,0.8 3.2,1.8 7,2 10.5,2.2 0,-1.3 -0.1,-2.5 -0.1,-3.8 -3.5,2.2 -7.5,-0.2 -10.9,-1.3 0,-0.3 -0.1,-0.9 -0.1,-1.2 2.9,-1.5 6,-2.5 8.6,-4.6 -5.9,0.1 -11.3,2.8 -16.7,4.5 2.3,-4.5 -1.3,-8.8 -0.1,-13.4 -2.6,0.7 -5.3,0.8 -8.1,0.6 -0.7,1.1 -0.9,2.8 -2.2,3.4 -5.3,2.8 -10.8,5 -16.2,7.5 2.6,-0.2 5.4,0 8.2,-0.6 3.9,-1.2 7.3,-3.4 11,-4.9 1.7,-0.9 4.2,0.4 4,2.5 -1.5,0.7 -3.3,0.5 -5,0.5 -1.5,2.6 -4.5,3.5 -7.2,4.5 0.4,2 1.9,3.5 3.2,5.1 -4.3,2 -7.7,5.3 -11.2,8.5 1.2,-0.2 2.3,-0.4 3.5,-0.8 1.1,2.3 2.4,4.5 3.9,6.7 -1.5,1.2 -3.1,2.5 -5,3.1 -2.2,-1.8 -3.6,-4.5 -5.6,-6.6 0.4,2.2 1.2,4.3 2,6.5 -2.5,0.7 -5.4,-0.3 -6.7,-2.7 -0.6,-1.8 0,-3.6 0,-5.4 -1,0 -2,0.1 -3,0.1 0.1,-0.7 0.3,-1.9 0.3,-2.5 2.3,-0.7 4,-2.2 4.4,-4.6 -1.7,0.2 -3.3,0.6 -4.9,0.8 0.7,-2.3 2.1,-4.2 4,-5.6 -0.6,-1.2 -1,-2.4 -1.5,-3.5 -1.9,0.9 -4,1.4 -6,2.2 -4,4.1 -9.7,6.1 -13.3,10.7 0.9,1 1.7,2 2.5,3.1 -1.9,1 -3.6,2 -5.4,3 -2,-2.3 -4.3,-5.1 -7.7,-4.9 0.1,-1.4 0.3,-2.9 0.4,-4.3 1.2,-0.3 2.4,-0.6 3.8,-0.9 0.6,-2.1 1,-4.2 0.8,-6.3 2.3,-0.7 4.7,-1.2 7.1,-1.8 0.3,-3.3 -1.9,-6 -3.4,-8.7 0,-2.3 0.3,-4.6 0.3,-6.9 2.8,1.4 6,1.5 7.8,-1.3 2.4,-2.1 1.4,-5.4 -0.4,-7.6 -2.3,-2.3 -0.1,-6.3 -2.5,-8.6 -4.6,-5.7 -8.6,-12 -12.5,-18.3 -2.8,-4.3 -3.1,-9.4 -5,-14 -2.1,0.3 -4,0.9 -5.7,1.9 0.9,3.3 1.9,6.7 2.1,10.2 0.4,6.9 4.3,12.8 7.3,18.8 2.5,5.1 7,9.5 7.2,15.4 -1.2,3.3 -3.8,6.3 -2.9,10.1 -0.3,3.4 2.5,5.5 4.6,7.6 -1.4,0.8 -3,1.7 -4.5,2.5 -0.6,-0.4 -1.7,-1.2 -2.2,-1.7 -0.8,1.4 -1.4,3 -2.2,4.5 -2.5,0 -5.1,0.3 -7.5,1.1 0.1,0.7 0.4,2 0.6,2.8 -1.8,-0.8 -3.6,-1.4 -5.3,-2.4 -1.3,-3.3 0.6,-7 -0.4,-10.4 -1.4,-0.2 -2.9,-0.3 -4.4,-0.6 -2.3,3.8 -7.1,0 -10.5,-0.1 3.8,2.3 8.1,3.5 11.8,5.9 1.2,1.9 1.5,4.3 2.2,6.4 3.8,1.2 7.4,2.7 11.2,4 -0.1,1.5 -0.2,3.2 -0.3,4.7 -19.2,9.1 -38.5,17.8 -57.9,26.6 -1.8,0.6 -1.2,2.8 -1.3,4.1 0.4,12.3 0.9,24.5 1,36.8 12.9,6.5 26,13 38.9,19.5 14,-6.2 27.8,-12.9 42,-18.9 -2.9,5.9 -8.8,9.7 -10.7,16 0,5.5 1.4,11 1.8,16.7 0.8,3.5 -0.4,9.3 4.8,9.7 1.4,11.4 2,22.9 4.5,34 1.7,8.3 9.9,13.4 17.8,14.7 10.3,1.8 21.8,2.5 30.8,-3.4 7,-4.4 13.9,-9.9 17.3,-17.7 4.1,-10.3 1.1,-21.3 -0.4,-31.8 -0.9,-3.2 1.4,-6.1 0.6,-9.3 -1.4,-8.4 -0.9,-17.8 -5.9,-25.2 -1.8,-2.8 -3.4,-6.4 -7,-7.1 -6.3,-1.4 -12.8,-2.4 -19,-4.3 -0.6,-2.5 -1,-5.1 -1.3,-7.7 23.3,-10.3 46.6,-21 69.8,-31.5 2.5,-1.2 5.1,-2.3 7.7,-2.9 -1,4.6 -6.8,4.5 -8.6,8.6 -1.3,3.4 -1.9,7.1 -2.4,10.6 -2.9,18.4 -5.9,36.8 -8.7,55.1 -0.9,5.7 -2.4,11.7 -0.2,17.2 3.2,7.7 10.9,12.4 18.6,14.7 11.3,3.6 24.3,4.2 35,-1.4 8.2,-3.9 14.4,-10.9 18.7,-18.8 3.1,-6.5 2.2,-14.8 -0.8,-21.7 z M 609.7,552.9 c 0.1,3.8 -4.3,2.6 -6.3,1.2 2,-0.5 4.2,-1 6.3,-1.2 z m -13.8,11.3 c 0.9,-1.5 3.9,-0.4 2.3,1.2 -0.9,1.8 -3.8,0.4 -2.3,-1.2 z m -42.2,-8.9 c 2.3,-0.2 2.2,4.2 -0.2,3.9 -1.6,-0.6 -1,-3.2 0.2,-3.9 z m 160.6,-27.2 c 3.8,-1.5 8.1,-5 11.9,-1.7 -2.6,1.7 -5.4,3 -8.3,4.2 -18.9,8.4 -37.8,16.8 -56.6,25.2 -1.5,0.9 -3.3,0.8 -4.9,0.6 0.9,-1.5 1.8,-3.4 3.6,-4 18.3,-8 36.3,-16.3 54.3,-24.3 z m -82.4,5.6 c 19.2,-8.6 38.4,-17.6 57.7,-26.2 2.3,-1.3 4.5,0.4 6.6,1.2 -7.1,4 -14.7,6.7 -22,10.2 -11.2,5.1 -22.2,10.1 -33.4,15.2 -2.8,1.6 -6.1,0.8 -8.9,-0.4 z m 8.7,5.8 c -0.1,-2 1.7,-2.8 3.2,-3.4 13.7,-6.2 27.4,-12.4 41.1,-18.7 4.6,-2.1 9.1,-4.6 14.1,-5.5 -0.1,0.7 -0.1,2.1 -0.2,2.8 -14.7,6.5 -29.4,13.3 -44.2,19.9 -4.5,1.8 -8.9,4.8 -14,4.9 z m 8.4,1.3 c 14.6,-7 29.5,-13.7 44.4,-20 -0.1,4.3 0.1,8.7 0.2,13 -10.8,5.2 -21.9,9.8 -32.7,14.9 -2,0.9 -4,1.5 -6,2.2 0.4,-1.1 1,-2.2 1.5,-3.3 -2.4,-2.3 -4.8,-4.6 -7.4,-6.8 z m 5.3,14.3 c 0.2,1.1 0.4,2.3 0.7,3.5 -4,1.7 -7.8,3.9 -12.2,4.5 1.5,-5.2 7.3,-5.9 11.5,-8 z m -76.6,3.1 c -0.1,3 -1.4,5.7 -4.4,6.6 0.9,-2.4 2,-4.9 4.4,-6.6 z m -11.3,13 c 3.3,-1.8 6.8,-3.2 10.3,-4.7 0.3,0.7 0.9,2 1.2,2.6 -4,1.9 -8.1,4 -12.4,5.1 0.2,-0.8 0.7,-2.3 0.9,-3 z m -2,0.7 c 0,1.2 -0.1,2.5 -0.1,3.8 -2,0.1 -3.9,0.1 -5.7,0 1.5,-1.9 3.8,-2.8 5.8,-3.8 z m -11.8,-2.2 c 1.7,-1.4 3.6,1.3 1.8,2.4 -1.6,1.3 -3.5,-1.3 -1.8,-2.4 z m -0.7,8.1 c 1.7,-1 3.5,-0.2 5.1,0.4 -9.3,5.2 -19.3,8.8 -28.8,13.4 -8.4,3.9 -16.8,7.6 -25.1,11.4 -1.4,0.9 -2.9,0.1 -4.2,-0.6 2.2,-1.7 4.7,-2.9 7.4,-4.1 15.3,-6.7 30.4,-13.7 45.6,-20.5 z m -26.3,4.6 c 8,-3.5 15.8,-7.5 24,-10.7 0.6,1 1.1,2 1.7,3 -17.6,7.7 -35,15.9 -52.7,23.8 -1.7,1.3 -3.3,-0.4 -4.6,-1.3 10.3,-5.4 21.1,-9.8 31.6,-14.8 z M 496,635.6 c -2.7,-1.5 -3,-4.9 -2.9,-7.6 -0.1,-9.4 -0.7,-18.8 -0.7,-28.2 2.9,1.7 3.3,4.9 4.2,7.7 2.1,0 4.2,0.3 6.1,-0.6 16.8,-8.8 34.3,-15.7 51.4,-23.9 2.2,-1.2 4.8,-1.7 7.3,-1.2 0.7,-1.2 1.3,-2.5 2.6,-3 4.7,-2.3 9.5,-4.6 14.4,-6.3 3,4.2 8.1,5.6 12.8,7 -23.2,11 -46.8,21.4 -70.4,31.8 0.6,3.1 -1.5,8.6 2.4,9.8 0.3,-1.9 0.6,-3.9 0.9,-5.7 1.4,1.7 3.3,3.3 3,5.6 0,9.8 0.2,19.5 0.6,29.3 C 518,643.8 506,641.9 496,635.6 Z m 70.3,39.8 c -1,-6.4 -1.9,-12.9 -2.5,-19.4 -0.7,-3.3 2.1,-5.9 3.8,-8.4 3.1,-4 5.3,-8.6 8.9,-12 6.4,-1.8 13,-2.5 19.4,-3.9 -4.5,6.3 -9.9,12 -14.8,18.2 -1.5,2.2 -0.8,5.1 -0.6,7.6 1,5.6 1.7,11.3 1.7,17 -0.9,0.1 -2.8,0.4 -3.8,0.6 -0.7,-2.1 -1.3,-4.2 -2.2,-6.3 -4.3,-0.5 -9.4,2 -9.9,6.6 z m 20,-45.5 c 3.9,-2.5 8.2,-4.2 12.5,-5.9 0.3,1.2 0.7,2.4 0.9,3.5 -4.5,1.1 -8.8,2.3 -13.4,2.4 z m -6.2,90.7 c -3.9,-2.6 -5.7,-7.2 -6.2,-11.7 -1.2,-10.3 -3,-20.4 -3.8,-30.8 6.2,-0.1 12.4,0.1 18.6,-0.9 -0.1,-1.6 -0.3,-3.1 -0.4,-4.8 0.2,0 0.8,0 1,-0.1 1.3,12.4 3.4,24.7 4.6,37.1 0.6,5.9 2.2,11.8 5.6,16.7 -6.6,-0.9 -13.8,-1.4 -19.4,-5.5 z m 13.5,-32.9 c 1.1,6.5 2.7,13.1 2.7,19.8 -1.5,-6.6 -2.3,-13.2 -2.7,-19.8 z m 31.9,28.7 c 2.3,-2.8 4.9,-5.2 7.6,-7.5 -2.2,2.7 -4.7,5.3 -7.6,7.5 z m 6.3,-69.7 c 1.8,7.1 1.5,14.5 3.1,21.5 -0.3,0.1 -0.9,0.1 -1.2,0.2 -1.5,-10.9 -0.9,-23.6 -9.2,-32.1 3.3,2.7 6,6.3 7.3,10.4 z m -22.9,-9.8 c 4.6,0.2 9.2,1.7 13.7,2.8 1.4,0.1 2.1,1.7 2.8,2.8 5,9.1 5.1,19.7 5.1,29.7 1.5,9.9 4.9,20.3 1.8,30.4 -3.8,10.2 -14.2,15.5 -23.7,19.1 -3.8,1.5 -6.2,-2.4 -7.3,-5.3 7.7,-4.5 16.6,-9.9 18.9,-19.3 1.2,-8.4 -0.7,-16.8 -2.5,-24.8 -2.5,-10.3 -2.1,-21.5 -8,-30.8 -0.8,-1.7 -3,-3.4 -0.8,-4.6 z m 2.7,17.6 c 1.4,11.7 3.5,23.4 4.2,35.2 0.7,10.2 -6.8,18.7 -15.4,23.2 -2.5,-13.1 -3.2,-26.5 -5.1,-39.7 -0.4,-3.9 -4.5,-4.6 -7.6,-5 -0.8,-5.7 -3.5,-12.7 0.8,-17.7 3.5,-4 6.6,-8.4 10.3,-12.3 1.5,1.3 2.8,3.2 4.6,3.9 5.5,1.3 7.3,7.6 8.2,12.4 z m 61.2,-67.6 c -47.3,21.3 -94.4,42.9 -141.7,64.2 -0.2,-8.8 1.7,-17.7 0,-26.4 -0.6,-4.4 -3.1,-8.2 -5.2,-11.9 33.4,-15 66.7,-29.9 100.1,-45 4.1,-1.9 8.1,-3.9 12.3,-5.3 0.6,0.7 1.7,1.9 2.2,2.5 -37.2,16.7 -74.6,33.1 -111.8,49.9 0.1,0.4 0.4,1.4 0.6,2 0.4,0 1.4,0.1 1.9,0.2 52.9,-23.5 105.8,-47.2 158.6,-70.7 12.5,-5.3 24.5,-11.3 37.1,-16.2 0.6,10.7 1.1,21.3 1,32 -7.6,3 -14.9,6.6 -22.4,9.8 -7.3,3.1 -14.3,7.2 -22,9.2 -3.6,2.3 -7,4.4 -10.7,5.7 z m -8.3,89.1 c -1.7,-4.3 -0.4,-8.8 0.3,-13.3 0.8,-4.2 1.3,-8.5 2.2,-12.7 -0.1,7.8 -3.3,15.4 -2.4,23.2 1.8,8 8.8,13.1 15.7,16.7 -6.8,-2.5 -13.5,-6.9 -15.8,-13.9 z m 5.8,0.3 c 5.2,4.3 10.5,8.8 16.9,11.2 2.5,0.9 5.2,1.3 7.7,2.2 -9.7,0.3 -21,-3.3 -24.6,-13.4 z m 52.2,2.3 c -11.5,8.9 -28.7,10.5 -41.1,2.5 -4.5,-3 -8.3,-7.3 -9.9,-12.5 -1.3,-5.4 0.7,-10.8 1.4,-16.2 1.7,-12.6 3.8,-25.1 5.2,-37.7 0.6,-4.1 1,-8.1 2.2,-11.9 3,2.2 4.9,5.4 5.2,9.3 2.8,0.7 5.9,1 8.5,-0.4 2.4,-1.9 0.1,-5.2 1.5,-7.4 0.8,-1 1.3,-3.2 3.1,-2.4 8.3,18.6 17,37 25.4,55.5 3.3,6.6 2.9,15.1 -1.5,21.2 z m -22,-80.6 c 5.6,10.4 9.9,21.4 15,32.1 1.5,3.8 3.5,7.2 4.7,11 -5.6,-10.7 -10.3,-22 -15.5,-33 -1.3,-3.4 -3.2,-6.6 -4.2,-10.1 z m 20.9,45.5 c 3.8,7.4 7.5,14.9 9.9,22.9 -3,-7.8 -7,-15.2 -9.9,-22.9 z m -19.8,-51.2 c -2,-0.1 -3.9,-0.1 -5.7,-0.3 2.9,-0.4 7.3,-1.4 8.5,2.1 6.1,12.5 11.2,25.3 17.8,37.4 4.4,8.7 9.7,17.6 10.4,27.6 -10.9,-22 -20.4,-44.7 -31,-66.8 z"
   id="path304" />
		</g>
	</g>
</g>
</svg>
